<mxfile host="app.diagrams.net" modified="2023-11-15T21:56:57.117Z" agent="Mozilla/5.0 (Macintosh; Intel Mac OS X 10_15_7) AppleWebKit/537.36 (KHTML, like Gecko) Chrome/119.0.0.0 Safari/537.36" etag="eUQBkYqeMvOiKjjTqVz-" version="21.8.2" type="github">
  <diagram name="Сторінка-1" id="t7edvL2MK0KQswxWXAqZ">
    <mxGraphModel dx="2074" dy="2351" grid="1" gridSize="10" guides="1" tooltips="1" connect="1" arrows="1" fold="1" page="1" pageScale="1" pageWidth="827" pageHeight="1169" math="0" shadow="0">
      <root>
        <mxCell id="0" />
        <mxCell id="1" parent="0" />
        <mxCell id="A7bG10cvLb7iZubDScCu-31" value="" style="rounded=1;whiteSpace=wrap;html=1;fillColor=none;" parent="1" vertex="1">
          <mxGeometry x="921.3" y="780" width="170" height="170" as="geometry" />
        </mxCell>
        <mxCell id="A7bG10cvLb7iZubDScCu-18" value="" style="rounded=1;whiteSpace=wrap;html=1;fillColor=none;" parent="1" vertex="1">
          <mxGeometry x="1270" y="790" width="170" height="170" as="geometry" />
        </mxCell>
        <mxCell id="A7bG10cvLb7iZubDScCu-23" style="edgeStyle=orthogonalEdgeStyle;rounded=0;orthogonalLoop=1;jettySize=auto;html=1;exitX=0.5;exitY=1;exitDx=0;exitDy=0;entryX=0.159;entryY=0.003;entryDx=0;entryDy=0;entryPerimeter=0;startArrow=classic;startFill=1;" parent="1" source="dulSs8EgE7Bo_tsadKai-80" target="dulSs8EgE7Bo_tsadKai-56" edge="1">
          <mxGeometry relative="1" as="geometry">
            <Array as="points">
              <mxPoint x="714" y="310" />
              <mxPoint x="632" y="310" />
            </Array>
          </mxGeometry>
        </mxCell>
        <mxCell id="S8oN9HsD-SmAMap5PSNZ-14" value="HTTP" style="edgeLabel;html=1;align=center;verticalAlign=middle;resizable=0;points=[];" parent="A7bG10cvLb7iZubDScCu-23" vertex="1" connectable="0">
          <mxGeometry x="0.1383" relative="1" as="geometry">
            <mxPoint x="8" as="offset" />
          </mxGeometry>
        </mxCell>
        <mxCell id="A7bG10cvLb7iZubDScCu-72" style="edgeStyle=orthogonalEdgeStyle;rounded=0;orthogonalLoop=1;jettySize=auto;html=1;exitX=1;exitY=0.5;exitDx=0;exitDy=0;entryX=1.003;entryY=0.293;entryDx=0;entryDy=0;entryPerimeter=0;" parent="1" source="dulSs8EgE7Bo_tsadKai-80" target="A7bG10cvLb7iZubDScCu-18" edge="1">
          <mxGeometry relative="1" as="geometry">
            <Array as="points">
              <mxPoint x="1480" y="125" />
              <mxPoint x="1480" y="840" />
            </Array>
          </mxGeometry>
        </mxCell>
        <mxCell id="56xTLO5u7pboGUcpIp62-15" value="TCP" style="edgeLabel;html=1;align=center;verticalAlign=middle;resizable=0;points=[];" parent="A7bG10cvLb7iZubDScCu-72" vertex="1" connectable="0">
          <mxGeometry x="0.9612" y="2" relative="1" as="geometry">
            <mxPoint as="offset" />
          </mxGeometry>
        </mxCell>
        <mxCell id="A7bG10cvLb7iZubDScCu-73" style="edgeStyle=orthogonalEdgeStyle;rounded=0;orthogonalLoop=1;jettySize=auto;html=1;exitX=1;exitY=0.75;exitDx=0;exitDy=0;entryX=0.196;entryY=0.003;entryDx=0;entryDy=0;entryPerimeter=0;" parent="1" source="dulSs8EgE7Bo_tsadKai-80" target="A7bG10cvLb7iZubDScCu-14" edge="1">
          <mxGeometry relative="1" as="geometry">
            <Array as="points">
              <mxPoint x="799" y="150" />
              <mxPoint x="1303" y="150" />
            </Array>
          </mxGeometry>
        </mxCell>
        <mxCell id="56xTLO5u7pboGUcpIp62-17" value="UDP" style="edgeLabel;html=1;align=center;verticalAlign=middle;resizable=0;points=[];" parent="A7bG10cvLb7iZubDScCu-73" vertex="1" connectable="0">
          <mxGeometry x="0.9088" y="-1" relative="1" as="geometry">
            <mxPoint as="offset" />
          </mxGeometry>
        </mxCell>
        <mxCell id="dulSs8EgE7Bo_tsadKai-80" value="" style="rounded=1;whiteSpace=wrap;html=1;fillColor=none;" parent="1" vertex="1">
          <mxGeometry x="628.6999999999999" y="40" width="170" height="170" as="geometry" />
        </mxCell>
        <mxCell id="A7bG10cvLb7iZubDScCu-5" style="edgeStyle=orthogonalEdgeStyle;rounded=0;orthogonalLoop=1;jettySize=auto;html=1;exitX=0.5;exitY=1;exitDx=0;exitDy=0;startArrow=classic;startFill=1;" parent="1" source="dulSs8EgE7Bo_tsadKai-55" target="dulSs8EgE7Bo_tsadKai-33" edge="1">
          <mxGeometry relative="1" as="geometry">
            <Array as="points">
              <mxPoint x="463" y="290" />
              <mxPoint x="463" y="340" />
              <mxPoint x="496" y="340" />
            </Array>
          </mxGeometry>
        </mxCell>
        <mxCell id="56xTLO5u7pboGUcpIp62-7" value="HTTP" style="edgeLabel;html=1;align=center;verticalAlign=middle;resizable=0;points=[];" parent="A7bG10cvLb7iZubDScCu-5" vertex="1" connectable="0">
          <mxGeometry x="-0.3651" relative="1" as="geometry">
            <mxPoint y="-28" as="offset" />
          </mxGeometry>
        </mxCell>
        <mxCell id="A7bG10cvLb7iZubDScCu-71" style="edgeStyle=orthogonalEdgeStyle;rounded=0;orthogonalLoop=1;jettySize=auto;html=1;exitX=1;exitY=0.5;exitDx=0;exitDy=0;entryX=1;entryY=0.25;entryDx=0;entryDy=0;" parent="1" source="dulSs8EgE7Bo_tsadKai-55" edge="1">
          <mxGeometry relative="1" as="geometry">
            <mxPoint x="546.0799999999999" y="237.48000000000002" as="sourcePoint" />
            <mxPoint x="1438" y="874.9800000000001" as="targetPoint" />
            <Array as="points">
              <mxPoint x="570" y="125" />
              <mxPoint x="570" y="-100" />
              <mxPoint x="1488" y="-100" />
              <mxPoint x="1488" y="875" />
            </Array>
          </mxGeometry>
        </mxCell>
        <mxCell id="56xTLO5u7pboGUcpIp62-16" value="TCP" style="edgeLabel;html=1;align=center;verticalAlign=middle;resizable=0;points=[];" parent="A7bG10cvLb7iZubDScCu-71" vertex="1" connectable="0">
          <mxGeometry x="0.9673" y="-3" relative="1" as="geometry">
            <mxPoint as="offset" />
          </mxGeometry>
        </mxCell>
        <mxCell id="A7bG10cvLb7iZubDScCu-74" style="edgeStyle=orthogonalEdgeStyle;rounded=0;orthogonalLoop=1;jettySize=auto;html=1;entryX=0.292;entryY=0.001;entryDx=0;entryDy=0;entryPerimeter=0;exitX=1;exitY=0.75;exitDx=0;exitDy=0;" parent="1" source="dulSs8EgE7Bo_tsadKai-55" target="A7bG10cvLb7iZubDScCu-14" edge="1">
          <mxGeometry relative="1" as="geometry">
            <mxPoint x="610" y="250" as="sourcePoint" />
            <Array as="points">
              <mxPoint x="580" y="167" />
              <mxPoint x="580" y="-90" />
              <mxPoint x="1320" y="-90" />
              <mxPoint x="1320" y="555" />
            </Array>
          </mxGeometry>
        </mxCell>
        <mxCell id="56xTLO5u7pboGUcpIp62-18" value="UDP" style="edgeLabel;html=1;align=center;verticalAlign=middle;resizable=0;points=[];" parent="A7bG10cvLb7iZubDScCu-74" vertex="1" connectable="0">
          <mxGeometry x="0.8928" relative="1" as="geometry">
            <mxPoint as="offset" />
          </mxGeometry>
        </mxCell>
        <mxCell id="dulSs8EgE7Bo_tsadKai-55" value="" style="rounded=1;whiteSpace=wrap;html=1;fillColor=none;" parent="1" vertex="1">
          <mxGeometry x="378.08" y="40" width="170" height="170" as="geometry" />
        </mxCell>
        <mxCell id="dulSs8EgE7Bo_tsadKai-85" style="edgeStyle=orthogonalEdgeStyle;rounded=0;orthogonalLoop=1;jettySize=auto;html=1;exitX=0.75;exitY=0;exitDx=0;exitDy=0;entryX=0.25;entryY=1;entryDx=0;entryDy=0;startArrow=classic;startFill=1;" parent="1" source="dulSs8EgE7Bo_tsadKai-33" target="dulSs8EgE7Bo_tsadKai-80" edge="1">
          <mxGeometry relative="1" as="geometry">
            <Array as="points">
              <mxPoint x="531" y="300" />
              <mxPoint x="671" y="300" />
            </Array>
          </mxGeometry>
        </mxCell>
        <mxCell id="S8oN9HsD-SmAMap5PSNZ-13" value="HTTP" style="edgeLabel;html=1;align=center;verticalAlign=middle;resizable=0;points=[];" parent="dulSs8EgE7Bo_tsadKai-85" vertex="1" connectable="0">
          <mxGeometry x="-0.2468" y="1" relative="1" as="geometry">
            <mxPoint x="2" as="offset" />
          </mxGeometry>
        </mxCell>
        <mxCell id="A7bG10cvLb7iZubDScCu-61" style="edgeStyle=orthogonalEdgeStyle;rounded=0;orthogonalLoop=1;jettySize=auto;html=1;exitX=0.25;exitY=1;exitDx=0;exitDy=0;startArrow=classic;startFill=1;" parent="1" source="dulSs8EgE7Bo_tsadKai-33" target="dulSs8EgE7Bo_tsadKai-44" edge="1">
          <mxGeometry relative="1" as="geometry">
            <Array as="points">
              <mxPoint x="461" y="520" />
              <mxPoint x="410" y="520" />
              <mxPoint x="410" y="836" />
            </Array>
          </mxGeometry>
        </mxCell>
        <mxCell id="A7bG10cvLb7iZubDScCu-79" style="edgeStyle=orthogonalEdgeStyle;rounded=0;orthogonalLoop=1;jettySize=auto;html=1;exitX=0.25;exitY=0;exitDx=0;exitDy=0;entryX=1.003;entryY=0.618;entryDx=0;entryDy=0;entryPerimeter=0;" parent="1" source="dulSs8EgE7Bo_tsadKai-33" edge="1">
          <mxGeometry relative="1" as="geometry">
            <mxPoint x="461.44000000000005" y="380" as="sourcePoint" />
            <mxPoint x="1440.5" y="680.06" as="targetPoint" />
            <Array as="points">
              <mxPoint x="461" y="350" />
              <mxPoint x="360" y="350" />
              <mxPoint x="360" y="-130" />
              <mxPoint x="1600" y="-130" />
              <mxPoint x="1600" y="680" />
            </Array>
          </mxGeometry>
        </mxCell>
        <mxCell id="jl3Iqb0W_ymRgdetUfVn-13" value="UDP" style="edgeLabel;html=1;align=center;verticalAlign=middle;resizable=0;points=[];" parent="A7bG10cvLb7iZubDScCu-79" vertex="1" connectable="0">
          <mxGeometry x="0.9178" relative="1" as="geometry">
            <mxPoint x="-1" as="offset" />
          </mxGeometry>
        </mxCell>
        <mxCell id="dulSs8EgE7Bo_tsadKai-33" value="" style="rounded=1;whiteSpace=wrap;html=1;fillColor=none;" parent="1" vertex="1">
          <mxGeometry x="426.44" y="360" width="140" height="140" as="geometry" />
        </mxCell>
        <mxCell id="A7bG10cvLb7iZubDScCu-59" style="edgeStyle=orthogonalEdgeStyle;rounded=0;orthogonalLoop=1;jettySize=auto;html=1;entryX=0.25;entryY=1;entryDx=0;entryDy=0;startArrow=classic;startFill=1;" parent="1" source="dulSs8EgE7Bo_tsadKai-47" target="dulSs8EgE7Bo_tsadKai-60" edge="1">
          <mxGeometry relative="1" as="geometry" />
        </mxCell>
        <mxCell id="A7bG10cvLb7iZubDScCu-69" style="edgeStyle=orthogonalEdgeStyle;rounded=0;orthogonalLoop=1;jettySize=auto;html=1;exitX=0;exitY=0.5;exitDx=0;exitDy=0;" parent="1" source="dulSs8EgE7Bo_tsadKai-47" edge="1">
          <mxGeometry relative="1" as="geometry">
            <mxPoint x="388.71" y="625" as="sourcePoint" />
            <mxPoint x="1320" y="960" as="targetPoint" />
            <Array as="points">
              <mxPoint x="40" y="620" />
              <mxPoint x="40" y="1150" />
              <mxPoint x="1320" y="1150" />
            </Array>
          </mxGeometry>
        </mxCell>
        <mxCell id="56xTLO5u7pboGUcpIp62-12" value="TCP" style="edgeLabel;html=1;align=center;verticalAlign=middle;resizable=0;points=[];" parent="A7bG10cvLb7iZubDScCu-69" vertex="1" connectable="0">
          <mxGeometry x="0.8441" y="1" relative="1" as="geometry">
            <mxPoint as="offset" />
          </mxGeometry>
        </mxCell>
        <mxCell id="dulSs8EgE7Bo_tsadKai-47" value="" style="rounded=1;whiteSpace=wrap;html=1;fillColor=none;" parent="1" vertex="1">
          <mxGeometry x="58.750000000000014" y="555" width="331.25" height="130" as="geometry" />
        </mxCell>
        <mxCell id="A7bG10cvLb7iZubDScCu-68" style="edgeStyle=orthogonalEdgeStyle;rounded=0;orthogonalLoop=1;jettySize=auto;html=1;exitX=0;exitY=0.5;exitDx=0;exitDy=0;entryX=0.173;entryY=1.004;entryDx=0;entryDy=0;entryPerimeter=0;" parent="1" source="dulSs8EgE7Bo_tsadKai-18" target="A7bG10cvLb7iZubDScCu-18" edge="1">
          <mxGeometry relative="1" as="geometry">
            <Array as="points">
              <mxPoint x="50" y="825" />
              <mxPoint x="50" y="1140" />
              <mxPoint x="1300" y="1140" />
              <mxPoint x="1300" y="961" />
            </Array>
          </mxGeometry>
        </mxCell>
        <mxCell id="56xTLO5u7pboGUcpIp62-11" value="TCP" style="edgeLabel;html=1;align=center;verticalAlign=middle;resizable=0;points=[];" parent="A7bG10cvLb7iZubDScCu-68" vertex="1" connectable="0">
          <mxGeometry x="0.9149" y="3" relative="1" as="geometry">
            <mxPoint as="offset" />
          </mxGeometry>
        </mxCell>
        <mxCell id="dulSs8EgE7Bo_tsadKai-18" value="" style="rounded=1;whiteSpace=wrap;html=1;fillColor=none;" parent="1" vertex="1">
          <mxGeometry x="57.46" y="700" width="331.25" height="380" as="geometry" />
        </mxCell>
        <mxCell id="dulSs8EgE7Bo_tsadKai-1" value="" style="shape=image;verticalLabelPosition=bottom;labelBackgroundColor=default;verticalAlign=top;aspect=fixed;imageAspect=0;image=data:image/svg+xml,PHN2ZyB4bWxucz0iaHR0cDovL3d3dy53My5vcmcvMjAwMC9zdmciIHZpZXdCb3g9IjAgMCAzMiAzMiI+PHBhdGggZmlsbD0iIzAxOTYzOSIgZD0ibTE1Ljk0OCAyaC4wNjVhMTAuNDE4IDEwLjQxOCAwIDAgMSAuOTcyLjUyOHE1LjQyOSAzLjEyMiAxMC44NTggNi4yNDZhLjc5Mi43OTIgMCAwIDEgLjQxNC43ODhjLS4wMDggNC4zODkgMCA4Ljc3Ny0uMDA1IDEzLjE2NGEuODEzLjgxMyAwIDAgMSAtLjM1Ni41MDdxLTUuNzczIDMuMzI0LTExLjU0NyA2LjY0NGEuNTg3LjU4NyAwIDAgMSAtLjY1Ny4wMzdxLTUuNzgtMy4zMTQtMTEuNTQ5LTYuNjRhLjcuNyAwIDAgMSAtLjQtLjY2NnEwLTYuNTgyIDAtMTMuMTYzYS42OTMuNjkzIDAgMCAxIC4zODctLjY3cTUuNDIyLTMuMTE4IDEwLjg0NC02LjI0Yy4zMjItLjE4NC42MzgtLjM3OS45NzQtLjUzNSIvPjxwYXRoIGZpbGw9IiNmZmYiIGQ9Im04Ljc2NyAxMC41MzhxMCA1LjQyOSAwIDEwLjg1OWExLjUwOSAxLjUwOSAwIDAgMCAuNDI3IDEuMDg3IDEuNjQ3IDEuNjQ3IDAgMCAwIDIuMDYuMjA2IDEuNTY0IDEuNTY0IDAgMCAwIC42ODUtMS4yOTNjMC0yLjYyLS4wMDUtNS4yNCAwLTcuODZxMy41ODMgNC4yOSA3LjE4MSA4LjU2OGEyLjgzMyAyLjgzMyAwIDAgMCAyLjYuNzgyIDEuNTYxIDEuNTYxIDAgMCAwIDEuMjUxLTEuMzcxcS4wMDgtNS41NDEgMC0xMS4wODFhMS41ODIgMS41ODIgMCAwIDAgLTMuMTUyIDBjMCAyLjY2Mi0uMDE2IDUuMzIxIDAgNy45ODItMi4zNDYtMi43NjYtNC42NjMtNS41NTYtNy04LjMzMmEyLjgxNyAyLjgxNyAwIDAgMCAtMi42NDktMS4wNTIgMS41NzkgMS41NzkgMCAwIDAgLTEuNDAzIDEuNTA1eiIvPjwvc3ZnPg==;" parent="1" vertex="1">
          <mxGeometry x="413.08" y="50" width="100" height="100" as="geometry" />
        </mxCell>
        <mxCell id="dulSs8EgE7Bo_tsadKai-5" value="PRIVATE&lt;br&gt;API GATEWAY" style="text;html=1;strokeColor=#005700;fillColor=#008a00;align=center;verticalAlign=middle;whiteSpace=wrap;rounded=0;fontColor=#ffffff;fontSize=15;" parent="1" vertex="1">
          <mxGeometry x="398.08" y="150" width="130" height="50" as="geometry" />
        </mxCell>
        <mxCell id="dulSs8EgE7Bo_tsadKai-16" value="" style="image;sketch=0;aspect=fixed;html=1;points=[];align=center;fontSize=12;image=img/lib/mscae/Azure_Database_for_PostgreSQL_servers.svg;" parent="1" vertex="1">
          <mxGeometry x="70.71" y="750" width="38" height="50" as="geometry" />
        </mxCell>
        <mxCell id="dulSs8EgE7Bo_tsadKai-25" value="" style="image;sketch=0;aspect=fixed;html=1;points=[];align=center;fontSize=12;image=img/lib/mscae/Docker.svg;" parent="1" vertex="1">
          <mxGeometry x="383.08" y="50" width="36.59" height="30" as="geometry" />
        </mxCell>
        <mxCell id="dulSs8EgE7Bo_tsadKai-32" value="" style="shape=image;verticalLabelPosition=bottom;labelBackgroundColor=default;verticalAlign=top;aspect=fixed;imageAspect=0;image=https://cdn.icon-icons.com/icons2/2699/PNG/512/golang_logo_icon_171073.png;" parent="1" vertex="1">
          <mxGeometry x="440.44" y="380" width="100" height="100" as="geometry" />
        </mxCell>
        <mxCell id="dulSs8EgE7Bo_tsadKai-34" value="project-service" style="text;html=1;strokeColor=#006EAF;fillColor=#1ba1e2;align=center;verticalAlign=middle;whiteSpace=wrap;rounded=0;fontSize=15;fontColor=#ffffff;" parent="1" vertex="1">
          <mxGeometry x="435.19" y="460" width="122.5" height="20" as="geometry" />
        </mxCell>
        <mxCell id="dulSs8EgE7Bo_tsadKai-35" value="" style="image;sketch=0;aspect=fixed;html=1;points=[];align=center;fontSize=12;image=img/lib/mscae/Docker.svg;" parent="1" vertex="1">
          <mxGeometry x="435.19" y="370" width="36.59" height="30" as="geometry" />
        </mxCell>
        <mxCell id="dulSs8EgE7Bo_tsadKai-40" value="" style="image;sketch=0;aspect=fixed;html=1;points=[];align=center;fontSize=12;image=img/lib/mscae/Docker.svg;" parent="1" vertex="1">
          <mxGeometry x="72.11999999999996" y="710" width="36.59" height="30" as="geometry" />
        </mxCell>
        <mxCell id="dulSs8EgE7Bo_tsadKai-41" value="" style="image;sketch=0;aspect=fixed;html=1;points=[];align=center;fontSize=12;image=img/lib/mscae/Azure_Database_for_PostgreSQL_servers.svg;" parent="1" vertex="1">
          <mxGeometry x="68.71" y="810" width="38" height="50" as="geometry" />
        </mxCell>
        <mxCell id="dulSs8EgE7Bo_tsadKai-42" value="" style="image;sketch=0;aspect=fixed;html=1;points=[];align=center;fontSize=12;image=img/lib/mscae/Azure_Database_for_PostgreSQL_servers.svg;" parent="1" vertex="1">
          <mxGeometry x="68.71" y="870" width="38" height="50" as="geometry" />
        </mxCell>
        <mxCell id="dulSs8EgE7Bo_tsadKai-43" value="auth-db: storage for User entity" style="text;html=1;strokeColor=#001DBC;fillColor=#0050ef;align=left;verticalAlign=middle;whiteSpace=wrap;rounded=0;fontColor=#ffffff;" parent="1" vertex="1">
          <mxGeometry x="118.08" y="750" width="260" height="50" as="geometry" />
        </mxCell>
        <mxCell id="dulSs8EgE7Bo_tsadKai-44" value="project-db: storage for Project entity" style="text;html=1;strokeColor=#001DBC;fillColor=#0050ef;align=left;verticalAlign=middle;whiteSpace=wrap;rounded=0;fontColor=#ffffff;" parent="1" vertex="1">
          <mxGeometry x="118.08999999999999" y="810" width="260" height="50" as="geometry" />
        </mxCell>
        <mxCell id="dulSs8EgE7Bo_tsadKai-45" value="checkmail-db: storage for Domain entity" style="text;html=1;strokeColor=#001DBC;fillColor=#0050ef;align=left;verticalAlign=middle;whiteSpace=wrap;rounded=0;fontColor=#ffffff;" parent="1" vertex="1">
          <mxGeometry x="118.08999999999999" y="870" width="260" height="50" as="geometry" />
        </mxCell>
        <mxCell id="dulSs8EgE7Bo_tsadKai-46" value="" style="image;sketch=0;aspect=fixed;html=1;points=[];align=center;fontSize=12;image=img/lib/mscae/Cache_Redis_Product.svg;" parent="1" vertex="1">
          <mxGeometry x="73.41000000000001" y="609" width="50" height="42" as="geometry" />
        </mxCell>
        <mxCell id="dulSs8EgE7Bo_tsadKai-49" value="" style="image;sketch=0;aspect=fixed;html=1;points=[];align=center;fontSize=12;image=img/lib/mscae/Docker.svg;" parent="1" vertex="1">
          <mxGeometry x="73.40999999999998" y="565" width="36.59" height="30" as="geometry" />
        </mxCell>
        <mxCell id="dulSs8EgE7Bo_tsadKai-52" value="auth-service: temporary storage for OAuth 2.0 Tokens" style="text;html=1;strokeColor=#6F0000;fillColor=#a20025;align=left;verticalAlign=middle;whiteSpace=wrap;rounded=0;fontColor=#ffffff;" parent="1" vertex="1">
          <mxGeometry x="130" y="605" width="248.75" height="50" as="geometry" />
        </mxCell>
        <mxCell id="A7bG10cvLb7iZubDScCu-21" style="edgeStyle=orthogonalEdgeStyle;rounded=0;orthogonalLoop=1;jettySize=auto;html=1;exitX=1;exitY=0.5;exitDx=0;exitDy=0;entryX=0;entryY=0.5;entryDx=0;entryDy=0;startArrow=classic;startFill=1;" parent="1" source="dulSs8EgE7Bo_tsadKai-56" target="A7bG10cvLb7iZubDScCu-9" edge="1">
          <mxGeometry relative="1" as="geometry" />
        </mxCell>
        <mxCell id="56xTLO5u7pboGUcpIp62-4" value="RPC" style="edgeLabel;html=1;align=center;verticalAlign=middle;resizable=0;points=[];" parent="A7bG10cvLb7iZubDScCu-21" vertex="1" connectable="0">
          <mxGeometry x="0.04" y="-1" relative="1" as="geometry">
            <mxPoint as="offset" />
          </mxGeometry>
        </mxCell>
        <mxCell id="A7bG10cvLb7iZubDScCu-62" style="edgeStyle=orthogonalEdgeStyle;rounded=0;orthogonalLoop=1;jettySize=auto;html=1;exitX=0.25;exitY=1;exitDx=0;exitDy=0;startArrow=classic;startFill=1;" parent="1" source="dulSs8EgE7Bo_tsadKai-56" target="dulSs8EgE7Bo_tsadKai-45" edge="1">
          <mxGeometry relative="1" as="geometry">
            <mxPoint x="645" y="510" as="sourcePoint" />
            <mxPoint x="388.71000000000004" y="907" as="targetPoint" />
            <Array as="points">
              <mxPoint x="645" y="540" />
              <mxPoint x="420" y="540" />
              <mxPoint x="420" y="900" />
            </Array>
          </mxGeometry>
        </mxCell>
        <mxCell id="A7bG10cvLb7iZubDScCu-78" style="edgeStyle=orthogonalEdgeStyle;rounded=0;orthogonalLoop=1;jettySize=auto;html=1;exitX=0.75;exitY=0;exitDx=0;exitDy=0;entryX=1;entryY=0.5;entryDx=0;entryDy=0;" parent="1" source="dulSs8EgE7Bo_tsadKai-56" target="A7bG10cvLb7iZubDScCu-14" edge="1">
          <mxGeometry relative="1" as="geometry">
            <Array as="points">
              <mxPoint x="715" y="330" />
              <mxPoint x="1580" y="330" />
              <mxPoint x="1580" y="640" />
            </Array>
          </mxGeometry>
        </mxCell>
        <mxCell id="jl3Iqb0W_ymRgdetUfVn-11" value="UDP" style="edgeLabel;html=1;align=center;verticalAlign=middle;resizable=0;points=[];" parent="A7bG10cvLb7iZubDScCu-78" vertex="1" connectable="0">
          <mxGeometry x="0.8825" relative="1" as="geometry">
            <mxPoint as="offset" />
          </mxGeometry>
        </mxCell>
        <mxCell id="S8oN9HsD-SmAMap5PSNZ-19" style="edgeStyle=orthogonalEdgeStyle;rounded=0;orthogonalLoop=1;jettySize=auto;html=1;entryX=0.354;entryY=1;entryDx=0;entryDy=0;entryPerimeter=0;exitX=0.5;exitY=1;exitDx=0;exitDy=0;startArrow=classic;startFill=1;" parent="1" source="dulSs8EgE7Bo_tsadKai-56" target="dulSs8EgE7Bo_tsadKai-60" edge="1">
          <mxGeometry relative="1" as="geometry">
            <Array as="points">
              <mxPoint x="680" y="550" />
              <mxPoint x="290" y="550" />
            </Array>
          </mxGeometry>
        </mxCell>
        <mxCell id="S8oN9HsD-SmAMap5PSNZ-20" value="RPC" style="edgeLabel;html=1;align=center;verticalAlign=middle;resizable=0;points=[];" parent="S8oN9HsD-SmAMap5PSNZ-19" vertex="1" connectable="0">
          <mxGeometry x="-0.3587" relative="1" as="geometry">
            <mxPoint x="79" as="offset" />
          </mxGeometry>
        </mxCell>
        <mxCell id="dulSs8EgE7Bo_tsadKai-56" value="" style="rounded=1;whiteSpace=wrap;html=1;fillColor=none;" parent="1" vertex="1">
          <mxGeometry x="610" y="360" width="140" height="140" as="geometry" />
        </mxCell>
        <mxCell id="dulSs8EgE7Bo_tsadKai-57" value="" style="shape=image;verticalLabelPosition=bottom;labelBackgroundColor=default;verticalAlign=top;aspect=fixed;imageAspect=0;image=https://cdn.icon-icons.com/icons2/2699/PNG/512/golang_logo_icon_171073.png;" parent="1" vertex="1">
          <mxGeometry x="624" y="380" width="100" height="100" as="geometry" />
        </mxCell>
        <mxCell id="dulSs8EgE7Bo_tsadKai-58" value="checkmail-service" style="text;html=1;strokeColor=#006EAF;fillColor=#1ba1e2;align=center;verticalAlign=middle;whiteSpace=wrap;rounded=0;fontSize=15;fontColor=#ffffff;" parent="1" vertex="1">
          <mxGeometry x="618.75" y="460" width="122.5" height="20" as="geometry" />
        </mxCell>
        <mxCell id="dulSs8EgE7Bo_tsadKai-59" value="" style="image;sketch=0;aspect=fixed;html=1;points=[];align=center;fontSize=12;image=img/lib/mscae/Docker.svg;" parent="1" vertex="1">
          <mxGeometry x="618.75" y="370" width="36.59" height="30" as="geometry" />
        </mxCell>
        <mxCell id="A7bG10cvLb7iZubDScCu-58" style="edgeStyle=orthogonalEdgeStyle;rounded=0;orthogonalLoop=1;jettySize=auto;html=1;exitX=1;exitY=0.5;exitDx=0;exitDy=0;entryX=0;entryY=0.5;entryDx=0;entryDy=0;startArrow=classic;startFill=1;" parent="1" source="dulSs8EgE7Bo_tsadKai-60" target="dulSs8EgE7Bo_tsadKai-33" edge="1">
          <mxGeometry relative="1" as="geometry" />
        </mxCell>
        <mxCell id="56xTLO5u7pboGUcpIp62-5" value="RPC" style="edgeLabel;html=1;align=center;verticalAlign=middle;resizable=0;points=[];" parent="A7bG10cvLb7iZubDScCu-58" vertex="1" connectable="0">
          <mxGeometry x="-0.1817" y="-3" relative="1" as="geometry">
            <mxPoint as="offset" />
          </mxGeometry>
        </mxCell>
        <mxCell id="A7bG10cvLb7iZubDScCu-60" style="edgeStyle=orthogonalEdgeStyle;rounded=0;orthogonalLoop=1;jettySize=auto;html=1;exitX=0.75;exitY=1;exitDx=0;exitDy=0;startArrow=classic;startFill=1;" parent="1" source="dulSs8EgE7Bo_tsadKai-60" target="dulSs8EgE7Bo_tsadKai-43" edge="1">
          <mxGeometry relative="1" as="geometry">
            <mxPoint x="370" y="504" as="sourcePoint" />
            <mxPoint x="412.05375000000004" y="780" as="targetPoint" />
            <Array as="points">
              <mxPoint x="345" y="544" />
              <mxPoint x="400" y="544" />
              <mxPoint x="400" y="776" />
            </Array>
          </mxGeometry>
        </mxCell>
        <mxCell id="A7bG10cvLb7iZubDScCu-80" style="edgeStyle=orthogonalEdgeStyle;rounded=0;orthogonalLoop=1;jettySize=auto;html=1;exitX=0.285;exitY=0.001;exitDx=0;exitDy=0;exitPerimeter=0;" parent="1" source="dulSs8EgE7Bo_tsadKai-60" edge="1">
          <mxGeometry relative="1" as="geometry">
            <mxPoint x="275" y="370.25" as="sourcePoint" />
            <mxPoint x="1439.99" y="660.25" as="targetPoint" />
            <Array as="points">
              <mxPoint x="280" y="-120" />
              <mxPoint x="1590" y="-120" />
              <mxPoint x="1590" y="660" />
            </Array>
          </mxGeometry>
        </mxCell>
        <mxCell id="jl3Iqb0W_ymRgdetUfVn-12" value="UDP" style="edgeLabel;html=1;align=center;verticalAlign=middle;resizable=0;points=[];" parent="A7bG10cvLb7iZubDScCu-80" vertex="1" connectable="0">
          <mxGeometry x="0.9269" relative="1" as="geometry">
            <mxPoint as="offset" />
          </mxGeometry>
        </mxCell>
        <mxCell id="dulSs8EgE7Bo_tsadKai-60" value="" style="rounded=1;whiteSpace=wrap;html=1;fillColor=none;" parent="1" vertex="1">
          <mxGeometry x="240" y="360" width="140" height="140" as="geometry" />
        </mxCell>
        <mxCell id="dulSs8EgE7Bo_tsadKai-61" value="" style="shape=image;verticalLabelPosition=bottom;labelBackgroundColor=default;verticalAlign=top;aspect=fixed;imageAspect=0;image=https://cdn.icon-icons.com/icons2/2699/PNG/512/golang_logo_icon_171073.png;" parent="1" vertex="1">
          <mxGeometry x="254" y="380" width="100" height="100" as="geometry" />
        </mxCell>
        <mxCell id="dulSs8EgE7Bo_tsadKai-62" value="auth-service" style="text;html=1;strokeColor=#006EAF;fillColor=#1ba1e2;align=center;verticalAlign=middle;whiteSpace=wrap;rounded=0;fontSize=15;fontColor=#ffffff;" parent="1" vertex="1">
          <mxGeometry x="248.75" y="460" width="122.5" height="20" as="geometry" />
        </mxCell>
        <mxCell id="dulSs8EgE7Bo_tsadKai-63" value="" style="image;sketch=0;aspect=fixed;html=1;points=[];align=center;fontSize=12;image=img/lib/mscae/Docker.svg;" parent="1" vertex="1">
          <mxGeometry x="248.75" y="370" width="36.59" height="30" as="geometry" />
        </mxCell>
        <mxCell id="dulSs8EgE7Bo_tsadKai-64" value="" style="endArrow=classic;startArrow=classic;html=1;rounded=0;entryX=0.25;entryY=1;entryDx=0;entryDy=0;exitX=0.5;exitY=0;exitDx=0;exitDy=0;edgeStyle=orthogonalEdgeStyle;" parent="1" source="dulSs8EgE7Bo_tsadKai-60" target="dulSs8EgE7Bo_tsadKai-55" edge="1">
          <mxGeometry width="50" height="50" relative="1" as="geometry">
            <mxPoint x="178" y="320" as="sourcePoint" />
            <mxPoint x="228" y="270" as="targetPoint" />
            <Array as="points">
              <mxPoint x="310" y="340" />
              <mxPoint x="421" y="340" />
            </Array>
          </mxGeometry>
        </mxCell>
        <mxCell id="56xTLO5u7pboGUcpIp62-6" value="HTTP" style="edgeLabel;html=1;align=center;verticalAlign=middle;resizable=0;points=[];" parent="dulSs8EgE7Bo_tsadKai-64" vertex="1" connectable="0">
          <mxGeometry x="0.0073" y="4" relative="1" as="geometry">
            <mxPoint x="-27" as="offset" />
          </mxGeometry>
        </mxCell>
        <mxCell id="dulSs8EgE7Bo_tsadKai-66" value="" style="endArrow=classic;startArrow=classic;html=1;rounded=0;exitX=0.5;exitY=0;exitDx=0;exitDy=0;edgeStyle=orthogonalEdgeStyle;" parent="1" target="dulSs8EgE7Bo_tsadKai-55" edge="1">
          <mxGeometry width="50" height="50" relative="1" as="geometry">
            <mxPoint x="670.1800000000001" y="359.99999999999994" as="sourcePoint" />
            <mxPoint x="495.75999999999993" y="280" as="targetPoint" />
            <Array as="points">
              <mxPoint x="670" y="330" />
              <mxPoint x="496" y="330" />
            </Array>
          </mxGeometry>
        </mxCell>
        <mxCell id="56xTLO5u7pboGUcpIp62-8" value="HTTP" style="edgeLabel;html=1;align=center;verticalAlign=middle;resizable=0;points=[];" parent="dulSs8EgE7Bo_tsadKai-66" vertex="1" connectable="0">
          <mxGeometry x="0.0157" y="2" relative="1" as="geometry">
            <mxPoint x="47" as="offset" />
          </mxGeometry>
        </mxCell>
        <mxCell id="dulSs8EgE7Bo_tsadKai-77" value="" style="shape=image;verticalLabelPosition=bottom;labelBackgroundColor=default;verticalAlign=top;aspect=fixed;imageAspect=0;image=data:image/svg+xml,PHN2ZyB4bWxucz0iaHR0cDovL3d3dy53My5vcmcvMjAwMC9zdmciIHZpZXdCb3g9IjAgMCAzMiAzMiI+PHBhdGggZmlsbD0iIzAxOTYzOSIgZD0ibTE1Ljk0OCAyaC4wNjVhMTAuNDE4IDEwLjQxOCAwIDAgMSAuOTcyLjUyOHE1LjQyOSAzLjEyMiAxMC44NTggNi4yNDZhLjc5Mi43OTIgMCAwIDEgLjQxNC43ODhjLS4wMDggNC4zODkgMCA4Ljc3Ny0uMDA1IDEzLjE2NGEuODEzLjgxMyAwIDAgMSAtLjM1Ni41MDdxLTUuNzczIDMuMzI0LTExLjU0NyA2LjY0NGEuNTg3LjU4NyAwIDAgMSAtLjY1Ny4wMzdxLTUuNzgtMy4zMTQtMTEuNTQ5LTYuNjRhLjcuNyAwIDAgMSAtLjQtLjY2NnEwLTYuNTgyIDAtMTMuMTYzYS42OTMuNjkzIDAgMCAxIC4zODctLjY3cTUuNDIyLTMuMTE4IDEwLjg0NC02LjI0Yy4zMjItLjE4NC42MzgtLjM3OS45NzQtLjUzNSIvPjxwYXRoIGZpbGw9IiNmZmYiIGQ9Im04Ljc2NyAxMC41MzhxMCA1LjQyOSAwIDEwLjg1OWExLjUwOSAxLjUwOSAwIDAgMCAuNDI3IDEuMDg3IDEuNjQ3IDEuNjQ3IDAgMCAwIDIuMDYuMjA2IDEuNTY0IDEuNTY0IDAgMCAwIC42ODUtMS4yOTNjMC0yLjYyLS4wMDUtNS4yNCAwLTcuODZxMy41ODMgNC4yOSA3LjE4MSA4LjU2OGEyLjgzMyAyLjgzMyAwIDAgMCAyLjYuNzgyIDEuNTYxIDEuNTYxIDAgMCAwIDEuMjUxLTEuMzcxcS4wMDgtNS41NDEgMC0xMS4wODFhMS41ODIgMS41ODIgMCAwIDAgLTMuMTUyIDBjMCAyLjY2Mi0uMDE2IDUuMzIxIDAgNy45ODItMi4zNDYtMi43NjYtNC42NjMtNS41NTYtNy04LjMzMmEyLjgxNyAyLjgxNyAwIDAgMCAtMi42NDktMS4wNTIgMS41NzkgMS41NzkgMCAwIDAgLTEuNDAzIDEuNTA1eiIvPjwvc3ZnPg==;" parent="1" vertex="1">
          <mxGeometry x="663.6999999999999" y="50" width="100" height="100" as="geometry" />
        </mxCell>
        <mxCell id="dulSs8EgE7Bo_tsadKai-79" value="" style="image;sketch=0;aspect=fixed;html=1;points=[];align=center;fontSize=12;image=img/lib/mscae/Docker.svg;" parent="1" vertex="1">
          <mxGeometry x="633.6999999999999" y="50" width="36.59" height="30" as="geometry" />
        </mxCell>
        <mxCell id="dulSs8EgE7Bo_tsadKai-84" value="PUBLIC&lt;br&gt;API GATEWAY" style="text;html=1;strokeColor=#005700;fillColor=#008a00;align=center;verticalAlign=middle;whiteSpace=wrap;rounded=0;fontColor=#ffffff;fontSize=15;" parent="1" vertex="1">
          <mxGeometry x="648.6999999999999" y="150" width="130" height="50" as="geometry" />
        </mxCell>
        <mxCell id="A7bG10cvLb7iZubDScCu-4" style="edgeStyle=orthogonalEdgeStyle;rounded=0;orthogonalLoop=1;jettySize=auto;html=1;exitX=1;exitY=0.5;exitDx=0;exitDy=0;entryX=0;entryY=0.5;entryDx=0;entryDy=0;startArrow=classic;startFill=1;" parent="1" source="A7bG10cvLb7iZubDScCu-1" target="dulSs8EgE7Bo_tsadKai-60" edge="1">
          <mxGeometry relative="1" as="geometry" />
        </mxCell>
        <mxCell id="56xTLO5u7pboGUcpIp62-1" value="RPC" style="edgeLabel;html=1;align=center;verticalAlign=middle;resizable=0;points=[];" parent="A7bG10cvLb7iZubDScCu-4" vertex="1" connectable="0">
          <mxGeometry x="-0.08" y="-2" relative="1" as="geometry">
            <mxPoint as="offset" />
          </mxGeometry>
        </mxCell>
        <mxCell id="A7bG10cvLb7iZubDScCu-63" style="edgeStyle=orthogonalEdgeStyle;rounded=0;orthogonalLoop=1;jettySize=auto;html=1;exitX=0;exitY=0.75;exitDx=0;exitDy=0;startArrow=classic;startFill=1;entryX=0.25;entryY=1;entryDx=0;entryDy=0;" parent="1" source="A7bG10cvLb7iZubDScCu-1" target="A7bG10cvLb7iZubDScCu-42" edge="1">
          <mxGeometry relative="1" as="geometry">
            <Array as="points">
              <mxPoint x="30" y="465" />
              <mxPoint x="30" y="1110" />
              <mxPoint x="450" y="1110" />
              <mxPoint x="450" y="770" />
              <mxPoint x="505" y="770" />
            </Array>
          </mxGeometry>
        </mxCell>
        <mxCell id="56xTLO5u7pboGUcpIp62-22" value="SMTP" style="edgeLabel;html=1;align=center;verticalAlign=middle;resizable=0;points=[];" parent="A7bG10cvLb7iZubDScCu-63" vertex="1" connectable="0">
          <mxGeometry x="0.39" y="2" relative="1" as="geometry">
            <mxPoint as="offset" />
          </mxGeometry>
        </mxCell>
        <mxCell id="A7bG10cvLb7iZubDScCu-64" style="edgeStyle=orthogonalEdgeStyle;rounded=0;orthogonalLoop=1;jettySize=auto;html=1;entryX=0.5;entryY=1;entryDx=0;entryDy=0;startArrow=classic;startFill=1;" parent="1" source="A7bG10cvLb7iZubDScCu-1" target="A7bG10cvLb7iZubDScCu-52" edge="1">
          <mxGeometry relative="1" as="geometry">
            <Array as="points">
              <mxPoint x="20" y="430" />
              <mxPoint x="20" y="1120" />
              <mxPoint x="544" y="1120" />
            </Array>
          </mxGeometry>
        </mxCell>
        <mxCell id="56xTLO5u7pboGUcpIp62-20" value="SMTP" style="edgeLabel;html=1;align=center;verticalAlign=middle;resizable=0;points=[];" parent="A7bG10cvLb7iZubDScCu-64" vertex="1" connectable="0">
          <mxGeometry x="0.8259" y="1" relative="1" as="geometry">
            <mxPoint as="offset" />
          </mxGeometry>
        </mxCell>
        <mxCell id="A7bG10cvLb7iZubDScCu-66" style="edgeStyle=orthogonalEdgeStyle;rounded=0;orthogonalLoop=1;jettySize=auto;html=1;exitX=0;exitY=0.25;exitDx=0;exitDy=0;entryX=0.5;entryY=1;entryDx=0;entryDy=0;startArrow=classic;startFill=1;" parent="1" source="A7bG10cvLb7iZubDScCu-1" target="A7bG10cvLb7iZubDScCu-35" edge="1">
          <mxGeometry relative="1" as="geometry">
            <Array as="points">
              <mxPoint x="10" y="395" />
              <mxPoint x="10" y="1130" />
              <mxPoint x="775" y="1130" />
            </Array>
          </mxGeometry>
        </mxCell>
        <mxCell id="56xTLO5u7pboGUcpIp62-21" value="SMTP" style="edgeLabel;html=1;align=center;verticalAlign=middle;resizable=0;points=[];" parent="A7bG10cvLb7iZubDScCu-66" vertex="1" connectable="0">
          <mxGeometry x="0.8437" y="1" relative="1" as="geometry">
            <mxPoint as="offset" />
          </mxGeometry>
        </mxCell>
        <mxCell id="A7bG10cvLb7iZubDScCu-81" style="edgeStyle=orthogonalEdgeStyle;rounded=0;orthogonalLoop=1;jettySize=auto;html=1;exitX=0.25;exitY=0;exitDx=0;exitDy=0;entryX=0.999;entryY=0.849;entryDx=0;entryDy=0;entryPerimeter=0;" parent="1" source="A7bG10cvLb7iZubDScCu-1" target="A7bG10cvLb7iZubDScCu-14" edge="1">
          <mxGeometry relative="1" as="geometry">
            <Array as="points">
              <mxPoint x="85" y="340" />
              <mxPoint x="20" y="340" />
              <mxPoint x="20" y="-170" />
              <mxPoint x="1620" y="-170" />
              <mxPoint x="1620" y="699" />
            </Array>
          </mxGeometry>
        </mxCell>
        <mxCell id="jl3Iqb0W_ymRgdetUfVn-15" value="UDP" style="edgeLabel;html=1;align=center;verticalAlign=middle;resizable=0;points=[];" parent="A7bG10cvLb7iZubDScCu-81" vertex="1" connectable="0">
          <mxGeometry x="0.9198" relative="1" as="geometry">
            <mxPoint as="offset" />
          </mxGeometry>
        </mxCell>
        <mxCell id="A7bG10cvLb7iZubDScCu-1" value="" style="rounded=1;whiteSpace=wrap;html=1;fillColor=none;" parent="1" vertex="1">
          <mxGeometry x="50" y="360" width="140" height="140" as="geometry" />
        </mxCell>
        <mxCell id="A7bG10cvLb7iZubDScCu-2" value="" style="shape=image;verticalLabelPosition=bottom;labelBackgroundColor=default;verticalAlign=top;aspect=fixed;imageAspect=0;image=https://cdn.icon-icons.com/icons2/2699/PNG/512/golang_logo_icon_171073.png;" parent="1" vertex="1">
          <mxGeometry x="64" y="380" width="100" height="100" as="geometry" />
        </mxCell>
        <mxCell id="A7bG10cvLb7iZubDScCu-3" value="mail-service" style="text;html=1;strokeColor=#006EAF;fillColor=#1ba1e2;align=center;verticalAlign=middle;whiteSpace=wrap;rounded=0;fontSize=15;fontColor=#ffffff;" parent="1" vertex="1">
          <mxGeometry x="58.75" y="460" width="122.5" height="20" as="geometry" />
        </mxCell>
        <mxCell id="A7bG10cvLb7iZubDScCu-33" style="edgeStyle=orthogonalEdgeStyle;rounded=0;orthogonalLoop=1;jettySize=auto;html=1;exitX=0.5;exitY=0;exitDx=0;exitDy=0;entryX=0.834;entryY=1.001;entryDx=0;entryDy=0;entryPerimeter=0;startArrow=classic;startFill=1;" parent="1" source="A7bG10cvLb7iZubDScCu-9" target="dulSs8EgE7Bo_tsadKai-55" edge="1">
          <mxGeometry relative="1" as="geometry">
            <mxPoint x="870" y="369.99999999999994" as="sourcePoint" />
            <mxPoint x="523.26" y="290" as="targetPoint" />
            <Array as="points">
              <mxPoint x="870" y="320" />
              <mxPoint x="520" y="320" />
              <mxPoint x="520" y="290" />
              <mxPoint x="520" y="290" />
            </Array>
          </mxGeometry>
        </mxCell>
        <mxCell id="56xTLO5u7pboGUcpIp62-9" value="HTTP" style="edgeLabel;html=1;align=center;verticalAlign=middle;resizable=0;points=[];" parent="A7bG10cvLb7iZubDScCu-33" vertex="1" connectable="0">
          <mxGeometry x="0.0097" y="1" relative="1" as="geometry">
            <mxPoint x="141" as="offset" />
          </mxGeometry>
        </mxCell>
        <mxCell id="A7bG10cvLb7iZubDScCu-67" style="edgeStyle=orthogonalEdgeStyle;rounded=0;orthogonalLoop=1;jettySize=auto;html=1;entryX=0.5;entryY=1;entryDx=0;entryDy=0;startArrow=classic;startFill=1;" parent="1" source="A7bG10cvLb7iZubDScCu-9" target="A7bG10cvLb7iZubDScCu-31" edge="1">
          <mxGeometry relative="1" as="geometry">
            <Array as="points">
              <mxPoint x="870" y="540" />
              <mxPoint x="1120" y="540" />
              <mxPoint x="1120" y="980" />
              <mxPoint x="1006" y="980" />
            </Array>
          </mxGeometry>
        </mxCell>
        <mxCell id="56xTLO5u7pboGUcpIp62-10" value="HTTP" style="edgeLabel;html=1;align=center;verticalAlign=middle;resizable=0;points=[];" parent="A7bG10cvLb7iZubDScCu-67" vertex="1" connectable="0">
          <mxGeometry x="-0.5513" y="-2" relative="1" as="geometry">
            <mxPoint x="45" as="offset" />
          </mxGeometry>
        </mxCell>
        <mxCell id="A7bG10cvLb7iZubDScCu-77" style="edgeStyle=orthogonalEdgeStyle;rounded=0;orthogonalLoop=1;jettySize=auto;html=1;exitX=0.75;exitY=0;exitDx=0;exitDy=0;entryX=1.003;entryY=0.369;entryDx=0;entryDy=0;entryPerimeter=0;" parent="1" source="A7bG10cvLb7iZubDScCu-9" target="A7bG10cvLb7iZubDScCu-14" edge="1">
          <mxGeometry relative="1" as="geometry">
            <mxPoint x="1442" y="624" as="targetPoint" />
            <Array as="points">
              <mxPoint x="905" y="340" />
              <mxPoint x="1570" y="340" />
              <mxPoint x="1570" y="618" />
            </Array>
          </mxGeometry>
        </mxCell>
        <mxCell id="jl3Iqb0W_ymRgdetUfVn-10" value="UDP" style="edgeLabel;html=1;align=center;verticalAlign=middle;resizable=0;points=[];" parent="A7bG10cvLb7iZubDScCu-77" vertex="1" connectable="0">
          <mxGeometry x="0.8691" y="-1" relative="1" as="geometry">
            <mxPoint as="offset" />
          </mxGeometry>
        </mxCell>
        <mxCell id="A7bG10cvLb7iZubDScCu-9" value="" style="rounded=1;whiteSpace=wrap;html=1;fillColor=none;" parent="1" vertex="1">
          <mxGeometry x="800" y="360" width="140" height="140" as="geometry" />
        </mxCell>
        <mxCell id="A7bG10cvLb7iZubDScCu-10" value="" style="shape=image;verticalLabelPosition=bottom;labelBackgroundColor=default;verticalAlign=top;aspect=fixed;imageAspect=0;image=https://cdn.icon-icons.com/icons2/2699/PNG/512/golang_logo_icon_171073.png;" parent="1" vertex="1">
          <mxGeometry x="814" y="380" width="100" height="100" as="geometry" />
        </mxCell>
        <mxCell id="A7bG10cvLb7iZubDScCu-11" value="lookup-service" style="text;html=1;strokeColor=#006EAF;fillColor=#1ba1e2;align=center;verticalAlign=middle;whiteSpace=wrap;rounded=0;fontSize=15;fontColor=#ffffff;" parent="1" vertex="1">
          <mxGeometry x="808.75" y="460" width="122.5" height="20" as="geometry" />
        </mxCell>
        <mxCell id="A7bG10cvLb7iZubDScCu-12" value="" style="image;sketch=0;aspect=fixed;html=1;points=[];align=center;fontSize=12;image=img/lib/mscae/Docker.svg;" parent="1" vertex="1">
          <mxGeometry x="808.75" y="370" width="36.59" height="30" as="geometry" />
        </mxCell>
        <mxCell id="A7bG10cvLb7iZubDScCu-13" value="" style="shape=image;verticalLabelPosition=bottom;labelBackgroundColor=default;verticalAlign=top;aspect=fixed;imageAspect=0;image=https://burnhamforensics.files.wordpress.com/2019/03/elk-2.png?w=1200;" parent="1" vertex="1">
          <mxGeometry x="1284.46" y="605" width="141.06" height="50" as="geometry" />
        </mxCell>
        <mxCell id="A7bG10cvLb7iZubDScCu-14" value="" style="rounded=1;whiteSpace=wrap;html=1;fillColor=none;" parent="1" vertex="1">
          <mxGeometry x="1269.99" y="555" width="170" height="170" as="geometry" />
        </mxCell>
        <mxCell id="A7bG10cvLb7iZubDScCu-15" value="" style="image;sketch=0;aspect=fixed;html=1;points=[];align=center;fontSize=12;image=img/lib/mscae/Docker.svg;" parent="1" vertex="1">
          <mxGeometry x="1274.99" y="565" width="36.59" height="30" as="geometry" />
        </mxCell>
        <mxCell id="A7bG10cvLb7iZubDScCu-16" value="Log&lt;br&gt;Storage" style="text;html=1;strokeColor=#A50040;fillColor=#d80073;align=center;verticalAlign=middle;whiteSpace=wrap;rounded=0;fontColor=#ffffff;fontSize=15;" parent="1" vertex="1">
          <mxGeometry x="1289.99" y="665" width="130" height="50" as="geometry" />
        </mxCell>
        <mxCell id="A7bG10cvLb7iZubDScCu-17" value="" style="shape=image;verticalLabelPosition=bottom;labelBackgroundColor=default;verticalAlign=top;aspect=fixed;imageAspect=0;image=https://assets.zabbix.com/img/logo/zabbix_logo_500x131.png;" parent="1" vertex="1">
          <mxGeometry x="1278.66" y="850" width="152.67" height="40" as="geometry" />
        </mxCell>
        <mxCell id="A7bG10cvLb7iZubDScCu-19" value="" style="image;sketch=0;aspect=fixed;html=1;points=[];align=center;fontSize=12;image=img/lib/mscae/Docker.svg;" parent="1" vertex="1">
          <mxGeometry x="1275" y="800" width="36.59" height="30" as="geometry" />
        </mxCell>
        <mxCell id="A7bG10cvLb7iZubDScCu-20" value="Monitoring&lt;br&gt;HW &amp;amp; Processes" style="text;html=1;strokeColor=#B20000;fillColor=#e51400;align=center;verticalAlign=middle;whiteSpace=wrap;rounded=0;fontColor=#ffffff;fontSize=15;" parent="1" vertex="1">
          <mxGeometry x="1290" y="900" width="130" height="50" as="geometry" />
        </mxCell>
        <mxCell id="A7bG10cvLb7iZubDScCu-25" value="" style="image;aspect=fixed;html=1;points=[];align=center;fontSize=12;image=img/lib/azure2/app_services/CDN_Profiles.svg;" parent="1" vertex="1">
          <mxGeometry x="929.05" y="790" width="51" height="30" as="geometry" />
        </mxCell>
        <mxCell id="A7bG10cvLb7iZubDScCu-28" value="" style="shape=image;verticalLabelPosition=bottom;labelBackgroundColor=default;verticalAlign=top;aspect=fixed;imageAspect=0;image=https://logos-world.net/wp-content/uploads/2021/03/Telegram-Logo.png;" parent="1" vertex="1">
          <mxGeometry x="950.3" y="820" width="115.56" height="65" as="geometry" />
        </mxCell>
        <mxCell id="A7bG10cvLb7iZubDScCu-30" value="Telegram&lt;br&gt;API" style="text;html=1;strokeColor=#3700CC;fillColor=#6a00ff;align=center;verticalAlign=middle;whiteSpace=wrap;rounded=0;fontColor=#ffffff;fontSize=15;" parent="1" vertex="1">
          <mxGeometry x="941.3" y="890" width="130" height="50" as="geometry" />
        </mxCell>
        <mxCell id="A7bG10cvLb7iZubDScCu-32" value="" style="image;sketch=0;aspect=fixed;html=1;points=[];align=center;fontSize=12;image=img/lib/mscae/Docker.svg;" parent="1" vertex="1">
          <mxGeometry x="64" y="370" width="36.59" height="30" as="geometry" />
        </mxCell>
        <mxCell id="A7bG10cvLb7iZubDScCu-35" value="" style="rounded=1;whiteSpace=wrap;html=1;fillColor=none;" parent="1" vertex="1">
          <mxGeometry x="690" y="780" width="170" height="170" as="geometry" />
        </mxCell>
        <mxCell id="A7bG10cvLb7iZubDScCu-36" value="" style="image;aspect=fixed;html=1;points=[];align=center;fontSize=12;image=img/lib/azure2/app_services/CDN_Profiles.svg;" parent="1" vertex="1">
          <mxGeometry x="697.75" y="790" width="51" height="30" as="geometry" />
        </mxCell>
        <mxCell id="A7bG10cvLb7iZubDScCu-37" value="Brevo&lt;br&gt;SMTP Server" style="text;html=1;strokeColor=#3700CC;fillColor=#6a00ff;align=center;verticalAlign=middle;whiteSpace=wrap;rounded=0;fontColor=#ffffff;fontSize=15;" parent="1" vertex="1">
          <mxGeometry x="710" y="890" width="130" height="50" as="geometry" />
        </mxCell>
        <mxCell id="A7bG10cvLb7iZubDScCu-39" value="" style="shape=image;verticalLabelPosition=bottom;labelBackgroundColor=default;verticalAlign=top;aspect=fixed;imageAspect=0;image=https://upload.wikimedia.org/wikipedia/commons/e/ef/Brevo-Logo.png;" parent="1" vertex="1">
          <mxGeometry x="707.2" y="835" width="135.59" height="40" as="geometry" />
        </mxCell>
        <mxCell id="A7bG10cvLb7iZubDScCu-70" style="edgeStyle=orthogonalEdgeStyle;rounded=0;orthogonalLoop=1;jettySize=auto;html=1;entryX=0.399;entryY=1;entryDx=0;entryDy=0;entryPerimeter=0;" parent="1" source="A7bG10cvLb7iZubDScCu-42" target="A7bG10cvLb7iZubDScCu-18" edge="1">
          <mxGeometry relative="1" as="geometry">
            <Array as="points">
              <mxPoint x="650" y="640" />
              <mxPoint x="650" y="1160" />
              <mxPoint x="1338" y="1160" />
            </Array>
          </mxGeometry>
        </mxCell>
        <mxCell id="56xTLO5u7pboGUcpIp62-13" value="TCP" style="edgeLabel;html=1;align=center;verticalAlign=middle;resizable=0;points=[];" parent="A7bG10cvLb7iZubDScCu-70" vertex="1" connectable="0">
          <mxGeometry x="0.6334" y="-2" relative="1" as="geometry">
            <mxPoint as="offset" />
          </mxGeometry>
        </mxCell>
        <mxCell id="A7bG10cvLb7iZubDScCu-42" value="" style="rounded=1;whiteSpace=wrap;html=1;fillColor=none;" parent="1" vertex="1">
          <mxGeometry x="462.06" y="580" width="170" height="170" as="geometry" />
        </mxCell>
        <mxCell id="A7bG10cvLb7iZubDScCu-44" value="docker-mailserver&lt;br&gt;Postfix &amp;amp; Dovecot" style="text;html=1;strokeColor=#314354;fillColor=#647687;align=center;verticalAlign=middle;whiteSpace=wrap;rounded=0;fontColor=#ffffff;fontSize=15;" parent="1" vertex="1">
          <mxGeometry x="482.06" y="690" width="130" height="50" as="geometry" />
        </mxCell>
        <mxCell id="A7bG10cvLb7iZubDScCu-45" value="" style="image;sketch=0;aspect=fixed;html=1;points=[];align=center;fontSize=12;image=img/lib/mscae/Docker.svg;" parent="1" vertex="1">
          <mxGeometry x="467.06" y="590" width="36.59" height="30" as="geometry" />
        </mxCell>
        <mxCell id="A7bG10cvLb7iZubDScCu-46" value="" style="shape=image;verticalLabelPosition=bottom;labelBackgroundColor=default;verticalAlign=top;aspect=fixed;imageAspect=0;image=https://upload.wikimedia.org/wikipedia/commons/d/d9/Postfix-logo.png;" parent="1" vertex="1">
          <mxGeometry x="503.84999999999997" y="624.75" width="86.42" height="60.5" as="geometry" />
        </mxCell>
        <mxCell id="A7bG10cvLb7iZubDScCu-57" style="edgeStyle=orthogonalEdgeStyle;rounded=0;orthogonalLoop=1;jettySize=auto;html=1;entryX=0.5;entryY=1;entryDx=0;entryDy=0;startArrow=classic;startFill=1;" parent="1" source="A7bG10cvLb7iZubDScCu-48" target="dulSs8EgE7Bo_tsadKai-60" edge="1">
          <mxGeometry relative="1" as="geometry">
            <Array as="points">
              <mxPoint x="1060" y="530" />
              <mxPoint x="310" y="530" />
            </Array>
          </mxGeometry>
        </mxCell>
        <mxCell id="56xTLO5u7pboGUcpIp62-3" value="RPC" style="edgeLabel;html=1;align=center;verticalAlign=middle;resizable=0;points=[];" parent="A7bG10cvLb7iZubDScCu-57" vertex="1" connectable="0">
          <mxGeometry x="-0.1901" relative="1" as="geometry">
            <mxPoint as="offset" />
          </mxGeometry>
        </mxCell>
        <mxCell id="A7bG10cvLb7iZubDScCu-76" style="edgeStyle=orthogonalEdgeStyle;rounded=0;orthogonalLoop=1;jettySize=auto;html=1;entryX=1;entryY=0.25;entryDx=0;entryDy=0;" parent="1" source="A7bG10cvLb7iZubDScCu-48" target="A7bG10cvLb7iZubDScCu-14" edge="1">
          <mxGeometry relative="1" as="geometry">
            <Array as="points">
              <mxPoint x="1560" y="430" />
              <mxPoint x="1560" y="598" />
            </Array>
          </mxGeometry>
        </mxCell>
        <mxCell id="jl3Iqb0W_ymRgdetUfVn-9" value="UDP" style="edgeLabel;html=1;align=center;verticalAlign=middle;resizable=0;points=[];" parent="A7bG10cvLb7iZubDScCu-76" vertex="1" connectable="0">
          <mxGeometry x="0.816" y="3" relative="1" as="geometry">
            <mxPoint as="offset" />
          </mxGeometry>
        </mxCell>
        <mxCell id="S8oN9HsD-SmAMap5PSNZ-27" style="edgeStyle=orthogonalEdgeStyle;rounded=0;orthogonalLoop=1;jettySize=auto;html=1;exitX=0.25;exitY=1;exitDx=0;exitDy=0;entryX=1;entryY=0.5;entryDx=0;entryDy=0;startArrow=classic;startFill=1;" parent="1" source="A7bG10cvLb7iZubDScCu-48" target="S8oN9HsD-SmAMap5PSNZ-24" edge="1">
          <mxGeometry relative="1" as="geometry">
            <Array as="points">
              <mxPoint x="1025" y="570" />
              <mxPoint x="440" y="570" />
              <mxPoint x="440" y="1015" />
            </Array>
          </mxGeometry>
        </mxCell>
        <mxCell id="A7bG10cvLb7iZubDScCu-48" value="" style="rounded=1;whiteSpace=wrap;html=1;fillColor=none;" parent="1" vertex="1">
          <mxGeometry x="990" y="360" width="140" height="140" as="geometry" />
        </mxCell>
        <mxCell id="A7bG10cvLb7iZubDScCu-49" value="" style="shape=image;verticalLabelPosition=bottom;labelBackgroundColor=default;verticalAlign=top;aspect=fixed;imageAspect=0;image=https://cdn.icon-icons.com/icons2/2699/PNG/512/golang_logo_icon_171073.png;" parent="1" vertex="1">
          <mxGeometry x="1004" y="380" width="100" height="100" as="geometry" />
        </mxCell>
        <mxCell id="A7bG10cvLb7iZubDScCu-50" value="subs-service" style="text;html=1;strokeColor=#006EAF;fillColor=#1ba1e2;align=center;verticalAlign=middle;whiteSpace=wrap;rounded=0;fontSize=15;fontColor=#ffffff;" parent="1" vertex="1">
          <mxGeometry x="998.75" y="460" width="122.5" height="20" as="geometry" />
        </mxCell>
        <mxCell id="A7bG10cvLb7iZubDScCu-51" value="" style="image;sketch=0;aspect=fixed;html=1;points=[];align=center;fontSize=12;image=img/lib/mscae/Docker.svg;" parent="1" vertex="1">
          <mxGeometry x="998.75" y="370" width="36.59" height="30" as="geometry" />
        </mxCell>
        <mxCell id="A7bG10cvLb7iZubDScCu-52" value="" style="rounded=1;whiteSpace=wrap;html=1;fillColor=none;" parent="1" vertex="1">
          <mxGeometry x="463.7" y="780" width="170" height="170" as="geometry" />
        </mxCell>
        <mxCell id="A7bG10cvLb7iZubDScCu-53" value="Mailhog API&lt;br&gt;SMTP Testing" style="text;html=1;strokeColor=#6F0000;fillColor=#a20025;align=center;verticalAlign=middle;whiteSpace=wrap;rounded=0;fontColor=#ffffff;fontSize=15;" parent="1" vertex="1">
          <mxGeometry x="483.7" y="890" width="130" height="50" as="geometry" />
        </mxCell>
        <mxCell id="A7bG10cvLb7iZubDScCu-54" value="" style="image;sketch=0;aspect=fixed;html=1;points=[];align=center;fontSize=12;image=img/lib/mscae/Docker.svg;" parent="1" vertex="1">
          <mxGeometry x="468.7" y="790" width="36.59" height="30" as="geometry" />
        </mxCell>
        <mxCell id="A7bG10cvLb7iZubDScCu-56" value="" style="shape=image;verticalLabelPosition=bottom;labelBackgroundColor=default;verticalAlign=top;aspect=fixed;imageAspect=0;image=https://avatars.githubusercontent.com/u/10258541?s=200&amp;v=4;" parent="1" vertex="1">
          <mxGeometry x="518.7" y="825" width="60" height="60" as="geometry" />
        </mxCell>
        <mxCell id="xPIOmPR7IvFUon5ZPcdo-3" value="" style="shape=image;verticalLabelPosition=bottom;labelBackgroundColor=default;verticalAlign=top;aspect=fixed;imageAspect=0;image=data:image/png,iVBORw0KGgoAAAANSUhEUgAAAoUAAAMmCAYAAACD1vsgAAAnwklEQVR42u3dTWzV153w8ayeXbcz0rNA0QgpChpFyqRdRKwGkNqyAKFGFQkoREMqaCaVWpWGtonULiLEptGjorQNTN9cSjIOUF5nDMnVyKnAgQRrrhQnmIBlAzY2hosxtsEv8nlyLjWFBAgGv9x7f5+f9FnPTDrO/fac/znnoYeMMcYYY4zJc6jnagKYTu+fv5Y+uHAtFUvD6XjfSDp1ZTSdHhhN3UNjZaXhkTQ4NpZGx8fL/JvZGGNmKQr/8a12gIoxd8fp9NjuM2nRga60rHAurXyvJ73Q1JvWf3gxvfZRX9rc2p+2nrqSDnYOlaMzB6Z/mxtjjCgEKHty/9lyRE7E4872gfIKZV6N9G97Y4wRhQBpTn1HORrzquOrxUvlYMzb2barjTFGFALcWGG8ORbzd49i0RgjCgG4EYv5W8b8DWNeVfSLYYwRhQCU5W8WJ1YUHXAxxohCAMryKem89ZwPtuR/n/pVMcaIQgDK1+nkLee8kujUszFGFAJwY7s5ryLmC7z94hhjRCEA5a3miVVE3yMaY0QhAGX5W8R8sjk/++fXyBgjCgEQiMYYUQiAQDTGiEIA7iEQfYNojBGFAJTfbp44pOIJPmOMKASg/PxeflXlgwuuuTHGiEIA/nYPYt5edlG2MUYUAnDjJZWDnUPi0BgjCgFoT4sOdFk9NMaIQgD+/oJK/vawWBoWh8YYUQhAu61lY4woBODWgylbT11xrY0xRhQCcP1am9c+6vPdoTFGFAJw/btDcWiMEYUAiENjjCgEQBwaY0QhAOLQGCMKARCHxhhRCMCk4jC/kuJX0xhRCADlew5dgm2MKASAGy+kHO8bEYfGiEIAopu743T5e8PBMd8bGiMKAQhv0YGutLN9QBgaIwoBoD2tfK8nfXDhmjg0RhQCQHt6tXjJlrIxohAAbCkbIwoB4HOnlE9dGRWHxohCAFx87eJrY0QhANx0EOX98w6iGCMKAcBBFGNEIQDcfBDFc3nGiEIAuLFqODo+Lg6NEYUARLescM63hsaIQgC4Lr+j7FfZGFEIAOUTysXSsDg0RhQCEN3cHafda2iMKASA6/JrKKcHvIZijCgEILwn9591dY0xohAArrOdbIwoBICy9R9e9BKKMaIQAK7faeh0sjGiEADSY7vPpJ3tA8LQGFEIAC67NkYUAsBN19Z0D/nO0BhRCEB4iw50eTvZGFEIANdfQfGdoTGiEAB8Z2iMKASAW+8z9OtujCgEgLTyvR5haIwoBIDrB1D8yhsjCgGgfADFlTXGiEIAKPM0njGiEADK8u+dX31jRCEApIOdQ8LQGFEIAO0uuTZGFAKAMDRGFALATbaeuiIMjRGFANCeNrf2C0NjRCEACENjRCEA/M1rH/UJQ2NEIQAIQ2NEIQDYSjZGFAKAMDRGFAKA62qMEYUAIAyNEYUAcBdePjGiEAAoO9g5JAyNKAQAhKERhQDA3+TfS9VgRCEAkLqHxoShEYUAQHsaHR8XhkYUAkB0iw50iUIjCgGA9vRCU68wNKIQAGhPr33UJwyNKAQAvHpiRCEA8DdePTGiEABwh6ERhQDAdU/uP5uO940IQyMKASC6ZYVz7jA0ohAAaE/rP7woCo0oBADa0+bWfmFoRCEA0J4Odg4JQyMKAcDBk7Pp9MCoMDSiEACiW/lejyg0ohAAaE+vFi8JQyMKAQBP4RlRCAB8Zu6O0+mDC9eEoRGFABCdi62NKAQAfF9oRCEA4P5CIwoBgJssOtCVSsMjwtCIQgCIzvvIRhQCAGU72weEoRGFABCdZ/CMKAQAyl5o6hWFRhQCAO1pc2u/MDSiEACiy6+dHO9zGtmIQgAIb+V7PaLQiEIAwDayEYUAwGce230mnbriNLIRhQDgNLLTyEYUAgDZ1lNXhKERhQAQnUutjSgEAMq8jWxEIQBQ5m1kIwoBgPI2cmnYpdZGFAKAbWTbyEYUAgDZ++evCUMjCgEgOk/gGVEIADh0YkQhAHDdssI5UWhEIQDQnja39gtDIwoBwBU1Z1P30JgwNKIQAKJ7tXhJFBpRCADRzanvSMXSsDA0ohAAonuhqVcUGlEIALSng51DwtCIQgCIzoXWRhQCAFYLjSgEAKwWGlEIAFgtNKIQALBaaEQhAGC10IhCAMBqoRGFAIDVQiMKAQCrhUYUAgBWC40oBACsFhpRCADcg/x7rmqMKASA4NZ/eFEUGlEIANHNqe9Ip66MCkMjCgEguleLl0ShEYUAEN2T+8+mwbExYWhEIQBEt7m1XxQaUQgA0S060CUKjSgEAFxmbUQhAPCWy6yNKAQA/uaDC9eEoRGFABCdy6yNKAQA0mO7z7iexohCAKA9bT11RRQaUQgADpw4cGJEIQDwmeN9I8LQiEIAiO61j/pEoRGFABCdF06MKAQAyrxwYkQhAODOQiMKAYDrdxaWhh04MaIQANxZ6M5CIwoBAHcWGlEIAJSdujIqDI0oBIDoNrf2i0IjCgEgumWFc6LQiEIAwLN3RhQCALaQjSgEAGwhG1EIANxQLA0LQyMKASC61z7qE4VGFAKALWRbyEYUAgC2kI0oBABsIRtRCADYQjaiEAD4u9MD3kI2ohAAwtt66oooNKIQAKJ7oalXFBpRCADRPbb7jCg0ohAAaE8fXLgmDI0oBABX07iaxohCAHA1jatpjCgEALLS8IgwNKIQAKLb2T4gCo0oBIDo1n94URQaUQgA0T25/6woNKIQAPBdoRGFAMBnDnYOiUJRKAoBILpXi5dEoSgUhQAQnfsKjSgEANLcHadFoSgUhQBAezre57CJKPSHAADhbT11RRSKQn8IABCdS6xFoT8EACAtOtAlCkWhPwQAoD0Njo0JQ1EIAESXu0AdiUIAILjNrf2iUBQCANG90NQrCkUhAOCwicMmohAA4DOj4+PCUBQCANEVS8OiUBQCANF52UQUAgB42UQUAgA4bCIKAQA+M6e+QxSKQgCA9nS8b0QYikIAILqd7QOiUBQCANG9WrwkCkUhABCd5+5EIQBAWlY4JwpFIQAQ3ZP7z4pCUQgARDd3x2lRKAoBANpTadi1NKIQAAjPXYWiEAAg5UZQSqIQAAhu66krolAUAgDRvfZRnygUhQBAdOs/vCgKRSEAEN3K93pEoSgEAKJbdKBLFIpCACC6x3afEYWiEACIbk59hygUhQAA7WlwbEwYikIAILrTA6OiUBQCANF9cOGaKBSFAEB0BzuHRKEoBACi89SdKAQA8NSdKAQA8NSdKAQA+MwLTb2iUBQCANEtK5wThaIQABCFolAUAgDhLTrQJQpFIQAgCkWhKAQAwnty/1lRKAoBAFEoCkUhACAKRaEoBAB4bPcZUSgKAQBRKApFIQAQ3twdp0WhKAQARKEoFIUAQHhz6jtEoSgEAGgXhaIQALBSaKVQFAIAvin0TaEoBABwJY0oBAAQhaIQAMAzd6IQAOAziw50iUJRCACIQlEoCgGA8JYVzolCUQgAiEJRKAoBgPBWvtcjCkUhACAKRaEoBADCe6GpVxSKQgBAFIpCUQgAhLf+w4uiUBQCAKJQFIpCACC8V4uXRKEoBABEoSgUhQBAeJtb+0WhKAQAotvZPiAKRSEAEN0HF66JQlEIAETXPTQmCkUhABDZnPoOQSgKAYDontx/VhSKQgAgumWFc6JQFAIA0Xn3WBQCALi4WhQCALSnraeuiEJRCABEd7BzSBSKQgAguuN9I6JQFAIA0Q2OubhaFAIAoc3dcVoQikIAILpFB7pEoSgEAKJb+V6PKBSFAEB06z+8KApFIQAQ3ebWflEoCgGA6NxRKAoBAFL3kOtoRCEA4DoaIwoBgNiWFc6JQlEIADh57OSxKAQAnDx28lgUAgC8f/6aKBSFAEB0peERUSgKAYDIHtt9RhCKQgAgOm8ei0IAgPRq8ZIoFIUAQHQ72wdEoSgEAKIrloZFoSgEAKIbHR8XhaIQAIjsyf1nBaEo9IcAAE4eO3ksCv0hAEB4r33UJwpFoT8EAIjO83ai0B8CAAQ3p75DEIpCUQgAvif0PaEoFIUAEN7m1n5RKApFIQBEd7xvRBSKQlEIAJE9tvuMIDSiEACie6GpVxQaUQgA0W09dUUUGlEIANGdHhgVhUYUAkBkiw50CUIjCgEguvUfXhSFRhQCQHQHO4dEoRGFABBZftquNOx+QiMKASA0T9sZUQgApNc+6hOFRhQCQHTvn78mCo0oBIDIntx/VhAaUQgArqJxFY0RhQDgKhpX0RhRCAC2jhWQEYUAYOtYFBpRCAC2jm0dG1EIALaOjRGFAGDrWP0YUQgAto5FoRGFAGDr2BhRCAC2jo0RhQBg61j5mDvOsWPH0te+9rUpNX/+/Jq2YOGCsL65eHFVW7p0acX61lNPzapvL18+q1asWDGtnl21alatXr26oq1du/aBfOd7L6Yf/PgnZT/62c/T+o0b08u/+GXZT1//TfrZf2wr+/GbB254cW/zDc81fHrDssK58jbnnPoOIWfr2FR7FALAg8j/JS7Hao7MHJYTQZkDUjTaOjaiEABEo61jIwoB4P6icSIYcyzaOjZGFAIgFtN3X3qp/J1jDsX8DeNju8/YOjZGFAIQXT7olA/H5C3ovJq46EBXzUXh++eviUIjCgFgsjdo5BPVE9vOeTWxmredV77XIwiNKASAqdp2zt8nTmw7V9Nq4s72AVFoRCEATId8b2uOxImVxEo96ZxXOEfHx0WhEYUAMBPydvPEN4mVtNX82kd9gtCIQgCYrYMrE98j5jsTZzMKT10ZFYVGFAJAJWwzT5xsztvMc3ecnrEgfKGpVxAaUQgAlSi/EZ0Pq8zE1TeHeq6KQiMKAaAatpnXb9xY3mae6u8Q87a1wjGiEACqTH6SL68g5i3mqYjCraeuiEIjCgGg2r9BfJDVw/xs3+DYmCg0ohAAasGzq1bdWD2czD2IrxYvCUIjCgGg1uRn9yYuyr6XwynH+0ZEoRGFABDhDsQ7XW/jGhojCgEgmO++9NIXLsg+2DkkCo0oBICIli5dWl49zHcfqhojCgEguOffeD39+eRxYWhEIQBE9c3Fi9M/bN2cHtry/9Ijb9eV43B0fFwgGlEIAJE8veXX5SC8mTg0ohAAgn1TOLFKeDvi0IhCAAi6SigOjSgEgGCrhF/5w6/uKQonPPzW78WhEYUAEHGVUBwaUQgANepbTz11128JxaERhQAQwFN1v33gIBSHRhQCQBXLbyBP9lvCe5UPpLx37qwwFIUAQLRVwttZ/s6+dG5oUByKQgAg2irh5+X/OZta/teWsigEACKuEt5uS7mp55wwFIUAQCVYsWLFjK0S3mlL+fy1q+JQFAIA0VYJbSmLQgCggqxcu2ZWVwk/7/Fd22wpi0IAYKY9vX1bxQThzf790P/YUhaFAMBMWLtxQ0UG4YT8sootZVEIAEyjBQsXlE//VnIU3rylXLzYKwxFIQAw1Z5/4/WqCMLPbymXhkfEoSgEAKbCs6tWlbdmqy0KJ7aUPZcnCgGAKfD1+j9VZRDe7OX3/+pbQ1EIANTq4ZLJmL+33jvKohAAmKz58+dXzeGSyVx6vdt2sigEACZxJ+GWX9dUEH7+EMrg2Jg4FIUAwN18e/nyinq5ZDrkVdBPB/qFoSgEAGr5cMm9bif/+eRxYSgKAYDP++5LL4UIwpstf2ef7WRRCADc7OG3fh8uCrP8f7eXUEQhAFDjh0vuxf/57S/L7ycrM1EIAGGtXLum5g+X3Ktv7N+Rzl+7Kg5FIQDE89X6OkHoiTxRCAC2jYXg7dhOFoUAEOa0cf6WTgDe/bJrbyeLQgCoWd9cvDjsaeP7+c7QtTWiEABq0lN1vxV8k/D4rm3p3NCgMBSFAFA71m7cIPTu8wBK8XJJGIpCAKh+z65aVY4bkXf/z+M5mSwKAaDqRXnbeLovuvZusigEgKr1/Buvi7op9PL7fxWGohAAqu/6Ga+WTL3l7+xzMlkUAkD1XD/j1ZLpM39vfSoNjwhDUQgAlW319jfF2zTLdz5+3N8nDEUhAFSm9Rs3erXEyWRRCACRfed7L3q1xMlkUQgAkS1dutR3hLP4jWHdmTZhKAoBYPY9vX2bQJullcInGhvSw+/sTls6TgpDUQgAs+f7f/ydQJsl/3pwTzkIJwhDUQgAs+LlX/zSwZJZXCWcV9h3SxRmm9pahaEoBICZky+o9q5x5awSCkNRCAAz7tvLlztYMsvX0dxulVAYikIAmDHz589PX6//kzir0FXCm2040SIMRSEATA8vlsyuvGU/9917i0JhKAoBYFr89PXfOFhSJauEtpJFIQBMix/8+Cflb9mE2ey+eTzZIJxQ39khDEUhADyYZ1etcrCkEl4v+ZLDJXeTt5wLvd3CUBQCwP1ZsHCBgyUV4PFd2+47CG8Ow6ZSrzAUhQDgYEm1mnjO7kHlq2w+7u8ThqIQAO7dD+sFYbUeLrmbHJjtgwNJFPojB4AvtXFrnZPGFfyc3VSE4flrV5MoBADuGoROGtfmKuHNFh4upMGxsSQKAQBBWOFX0Ezmour78cyxQ2l0fDyJQgBAENbgFTSTEfLVE1EIALf3s//YVn5CTYxVSBDurZ+RIAx7ubUoBIAvWr9xoyAMcLjky+4wLF4uJVEIAEHl5+vyt2tiLMbhki87kdx1dSiJQgAI5jvfe1EQ1tD7xk4ki0IAmLRvL1+eHnnbe8ZRD5fczZri0do/kSwKAeBr6ZuLF6dHd3mtJPrhktAnkkUhAHwtPb5rmwirMPkqoHkVsEp4s73dZ5MoBIAatGDhgvJqlAhzuOReTyR/3N+XRCEA1NiWsSCsTPnbzkoLwptPJJeGR5IoBIAaOVQiCN1JeL+WHGmsvYMnohCAaFauXeOUsW3jKTmRLAoBwD2EBNs2vp1Nba1JFAJAlfnuSy95uq7Ct43/5cCuqorCrLmvRp7CE4UARLB244ZydIgv28bTcfCkJl48EYUA1Lrn33hdEFbBU3ZzDvylKqMwW9fSLAoBoJI9veXXosu28Yxo6OlKohAAKtBTdb8VXbaN3V8oCgGI7Ov1fxJcto1n3HPNTaIQACpBfrbuq/XuIKwWtbBt/Hl1Z9qSKAQAl1ITbNv48/JrLO2DA0kUAsAsWL9xo0upXVLtGTxRCEBk3//j79JX/vArsVUl8n9Wc9/dU9NRWJWvnYhCAKrVt556Kj29fZvQ8h1hRcrhW7xcRa+diEIAqtEPfvyTNH9vvciqMvk/swhBOGHh4UL1vHYiCgGoNj99/Te+H6zS62ciBeGEVz4pikIAmOrrZn5Y/6Yn67xaUnUaL/QkUQgAU2Dt2rVp2d7tAst3hF47EYUARL5u5vFdDpRUq0d3vRk6CCesKR4VhQBwvzZurUv/sHWzuHL9TE1o6OlKohAAJmH16tXpxd3bfT9o27jmtpEr9lJrUQhApXn5F79M39i/Q1RVuSf2vS0Eq+lSa1EIQCVdRv3z/XtsF3vGrqblt5HPX7uaRCEA3OEwyfJ39gmqGpCjXvzd3bqWZlEIADf75uLFDpPU2H2E8xp2Cr970NxXYU/giUIAZkt+qu7f/muXmHKwJKQlRxpFIQCxzZ8/v7w66Kk6B0uiq+/sSKIQgJDyyyR5ddBVMw6WcP2KmsGxsSQKAQjlp6//phwPIqr2Dpa4oPr+bTjRIgoBiGHFihUuonawhDvIQd11dSiJQgBq1oKFC6wOOlhCtbyLLAoBmA4/+tnP07K924WTgyXco6OXLiZRCEDNyG8Wr97+ZvrKH34lnGrYo7veFHJTbOHhwuy+iywKAZiqreLv//F3tooDyFcJibjpUXemTRQCUL3yE3Xf2L9DMDlpzBRcUVMaHkmiEICqu3MwbxU7VeykMTVwRY0oBGCy8nvFeavYiyROGjP15hX2zc5qoSgEYLJbxV+t992gIGQ6bWprFYUAVKbvvvRSenr7NlvFAf3z3nqhFuH5O1EIwJfFYP5uMB8wEEiunqGGVwtFIQBiEFfPWC0UhQDcNgZdPu3qmTkH/iLOZtmWjpOiEAAxyOwF4T/9t6tnKmW1cMZeORGFAGJQDDIh//+BIAz6yokoBIh9mlgM4nJqbyKLQgAxCIKwCtR3dohCAB7c/Pnz09qNG9LX6//knkFuSxBaLRSFADXs28uXp+ffeN0LJAjCGrC3+6woBOD+tojdMYjn62prtVAUAvClvrl4cXlVMG8Rix08X1ebCr3dSRQCcFvf+d6L5Stl8usTQgdBWNuWHGkUhQD83YKFCxwcQRAG1XihJ4lCgOCeXbUqff+Pv3NwBEEY2DPHDolCgIjWrl1bDsFle7e7W5AH8uiuN0VVjfi4vy+JQoAg3wkKQQQhd/LKJ0VRCFCrl0vna2RyCH5j/w4hiCDkruYV9qXBsbEkCgFqJAR/8OOfpB/Wv1kOQQdG8A0hs/r0nSgEmNlTwz/62c+FIIKQyrueRhQCTO9qYD4o8tPXf5Ne3L29HIJiBUFIRR44EYUAU2v16tW3RKDvAxGEVMWBE1EI8GBWrFiRXv7FL29EoPeGmU3zGnaKJQdORCHATPjWU0+l9Rs3liMwXxkjAqkE+ftUQRhT3Zk2UQgw3ZYuXVq+Kub5N15PT2/flubvrReBCEIqysLDBVEIMJWngvOF0fk94dXb3yyvAD6+a5vTwVS8/M2qIKR4uZREIcAkTwPnbwDztTD5ouiJ7wAffuv3AoOqk1et/+m/BSFTdOBEFAK1tuKXoy+v+uXv/jZurSv7+f496d/+a5eDIAhCatITjQ1pdHw8iUIgROzlAx75zr+8ypevfJmIvezl9/+a/v3Q/6Tl7+wrh1/e+s0/mnn71xYwtSavbM858BcxxC0aL/Q8eBTmf8kCTJe8apcPa+SYy6t3OeiyvH2b5dc98jZullfzshx3E4GX5QMe+YfQnX9E98jbdYKQ21rX0vxgUfjnk8f9kQGAIKQG7ix8oC1kUQgAXimhNjT0dIlCAHAHIdGtKR4VhQDgDkJsIT/As3eiEABcOUPt2H3urCgEAFfOEN1zzU2iEACq3dxd2wQhD2Tuu3tSaXgkiUIAcMKY4Oo7O0QhADhhjC3kJlEIAA6UYAt5z+QvshaFADA7vFBCRb2FLAoBwPeD1J5XPimKQgCoVC6kZqYsPFwQhQDg/kHYndoHB5IoBIAK8uiuNwUhM67uTJsoBADXzeBqmiZRCACum8HVNJO4mkYUAsDU81wdlaLQ2y0KAWA2tovn7v1PMUL1XU0jCgHAdjGuphGFAOB0MTWuNDySRCEAWB0kuIaeLlEIAFYHiW7DiRZRCABTLT9V5zAJ1WTJkUZRCABTyVN1VOt9hYNjY0kUAoCrZgiuqdQrCgHgQVcHHSah2m1qaxWFAPAgq4O2i6kFzxw7JAoBwOog0c0r7Lv7O8iiEACcLCaG4uWSKASAL/PI23W2iqlpWzpOikIAuBOvkhDFupZmUQgAtz1Ismub1UHCWHi4IAoBwOogLrHec+fDJqIQAAdJII6P+/tEIQAOktgqJrr6zg5RCICtYohuw4kWUQiArWLwsskhUQiAU8UQ3RONDaIQgNonBuHLnb92NYlCAGpSfqv4/+6zVQz3ovFCjygEoPYOkfhuEKbguTtRCEA1HyKxVQxT9NydKASg6mLQd4PwQJYcaRSFAIhBcAK5QRQC4HoZYHcaHBtLohAAMQjeQBaFAIhBiK6hp0sUAiAGwbU0J0UhAGIQonvlk6IoBMBpYojuueYmUQjA7Jl4gUQMwuxaeLggCgGYeY+8XedtYqgg8wr7RCEAM/u9oBiEylQaHkmiEADfC0JwzX0lUQjA9HwvmFcFxSBU4V2FohAAW8QQU31nhygEwKogRLeprVUUAmBVEKLbcKJFFAJw7x5+6/dWBaEGrWtpFoUAfPkJ4n/c4W5BCPOqiSgE4PPfCuYY9IMJtW/JkUZRCMCtEWhFEII/dScKAeKGoG8EwVN3ohBACAKk0fHxJAoBbA0D3j8WhQBWBIHoPh3oF4UAtXKhdI5AIQjcj6OXLopCAHcIAtEVertFIUA1rgYKQWAqNfR0iUKAajkkYlsYmC57u8+KQgARCES3+5woBJjV7WARCFSC+s4OUQgw3St/N/NNIFCJ6s60iUKAqdz2vTn6rPwBohCghuPv4bd+L/6AmrKl46QoBLjdd36PvF2XHt31Zpq79z/L4Sf+gFq2qa1VFAIxoy+v9s3dta1M9AGiUBQCNfCqx0TkTazuZf+8t/6WVT7RB3BnG060XI/CfAz58c/+2zLATHli39tp/mfhlv3rwT13NL+wr+xfDuxK8xp23og7gQcwDVGYb7H2DwQAIHgU5lus/QMBABCF/oEAAEQ/aCIKAQBEoSgEAAjsxuXVohAAIK4bz9yJQgCAuPL1hKIQAEAUikIAgOjyndWiEAAguIaeLlEIABBdobdbFAIARNdU6hWFAADRNfeVRCEAQHTtgwOiEAAgutLwiCgEAIjuoYkRhQAAMT3R2CAKAQCiW3i4IAoBAKJbcqRRFAIARLemeFQUAgBEt66lWRQCAES34USLKAQAiG5TW6soBACIru5MmygEAIiu0NstCgEAovu4v08UAgBENzg2JgoBACK75Yk7UQgAENMtr5mIQgCAmG55zUQUAgDEdMvF1aIQACCmLR0nRSEAQHQNPV2iEAAgulvuKBSFAAAxlYZHRCEAQGTzCvtuDUJRCAAQzxfuKBSFAADxrGtpFoUAANF94ToaUQgAEE9TqVcUAgA4eTwiCgEAInuiseGLQSgKAQBieebYIVEIABDdhhMtohAAILr6zg5RCAAQXfFySRQCAEQ3Oj5++yjc2y0KAQAiWHi4cPsgtFIIABDHbZ+3E4UAAA6ZiEIAgGA+HegXhQAAkc0r7LtzEIpCAIAYnmtuEoUAANFtamsVhQAA0TWVekUhAEBkc9/dkwbHxkQhAEBkS4403j0IRSEAQO175ZOiKAQAiC73nigEAAiuNDwiCgEAIlt4uPDlQSgKAQBq24YTLaIQACC6xgs9ohAAILJ8P+Ho+LgoBACI7EvfOxaFAAC1b0vHSVEIABDdpwP9ohAAILInGhvuPQhFIQBAbVrX0iwKAQCia+jpEoUAAJHlq2gGx8ZEIQBAZGuKRycXhKIQAKD25L4ThQAAto5FIQBAZJN6xUQUAgDUpvrODlEIAGDreEwUAgDYOr7PEYUAAMG3jkUhAICtY1EIAGDrWBQCANSK+7qwWhQCANSOeYV9aXR8XBQCAET2yifFBwtCUQgAUP2a+0qiEAAgsoWHCw8ehKIQAKC6bek4KQoBACLLdxOWhkdEIQBAZGuKR6cmCEUhAED1aujpEoUAAJE90djw4HcTikIAgOq24UTL1AVhnr3dohAAoNp8OtA/tVFopRAAoLo819w0tUEoCgEAqk/jhR5RCAAQ2ZS9YCIKAQCqV31nhygEAIhsyq+hEYUAANVnU1vr9AShKAQAqA5T+s6xKAQAqE6vfFKcviAUhQAA1WHKL6sWhQAA1WVaLqsWhQAA1aV4uSQKAQAie+bYoekPQlEIAGCVUBQCAFglFIUAAFYJRSEAgFVCUQgAYJVQFAIAWCUUhQAAVglFIQCAVUJRCABglVAUAgBUoDXFo7MThKIQAKAyzH13T2ofHBCFAACRbTjRMntBKAoBAGbfE40NaXBsTBQCAERWd6ZtdoNQFAIAzK6FhwtpdHxcFAIARNZ4oWf2g1AUAgDMnueamyojCEUhAMDsmPUraEQhAMDse+WTYuUEoSgEAJh5FXEFjSgEAJhdub8eqrQRhQAAM+eZY4cqLwhFIQBA4MMlohAAYOZtamutzCAUhQAAM6NiXi4RhQAAs+fj/r7KDUJRCAAw/SruTkJRCAAwsyryTkJRCAAws/Z2n638IMyT/xf1HxgAwNRbUzxaHUFopRAAYPq2jUvDI6IQACCyo5cuVk8QikIAgKm34URLdQWhKAQAmFpLjjRW9iXVohAAYHrNK+yr3LeNRSEAwMyo7+yoziAUhQAAU6Oqrp8RhQAAU69qXi0RhQAA02Puu3tS8XKpuoNQFAIAPJhNba3VH4SiEADg/lXt9TOiEABgauTrZ7quDtVGEIpCAID709DTVTtBKAoBACavKp+xE4UAAFPnmWOHauc7QlEIADB5Cw8Xqv8+QlEIAHD/8gXVNXWwRBQCAExOzVxQLQoBAO5f7qWHan1EIQBAsJPGohAA4N4919xUmyeNRSEAgJPGohAA4B5PGp+/djVOEIpCAIAvnjT+uL8vVhCKQgCAWxV6u+MFoSgEAPi7ujNtMYNQFAIABLt6RhQCANzeupbm2EEoCgGA6ELdRSgKAQC+aMmRxlh3EYpCAIBbhbucWhQCAHwxCEvDI4JQFAIAgtCIQgAgpPx8XdfVIUEoCgGAyEHYPjggCO80e7tFIQBQ+0H46UC/ILRSCAAIQiMKAQBbxkYUAgAxTxk7VCIKAYDgQXj+2lVBKAoBgMhB6B5CUQgABOYtY1EIAAT3zLFDglAUAgCRPdfclEbHxwWhKAQAolrX0iwIRSEAENmmtlYxKAoBgKjmFfalQm+3IBSFAEBU+ZWS4uWSIBSFAEBUXikRhQCAK2dcSi0KAYDI1hSPOmEsCgEAJ4yNKAQAnDA2ohAAiHmgpH1wQBCKQgAg8veD3jAWhQBAUHPf3ZPqzrSJQVEIAETlQmpRCAAEt+RIo/sHRSEAENmGEy3uHxSFAEDk7eKmUq8YFIUAQFTrWpqdLhaFAEDk1cHGCz1iUBQCAFHluwcdJhGFAEDg1cHcGopLFAIAQT1z7FA6f+2qIKyW2dstCgGAqTOvsM/LJFYKAYDo3w5aHRSFAEDgbwcLvd1iUBQCABHNfXdPeuWTonsHRSEAENXCw4VUvFwSg6IQAIh6kGRTW6s3i0UhABD5mpmuq0NiUBQCAFG3iht6usSgKAQAom4Vb+k4aatYFAIAkU8Ve69YFAIAQT3X3JTaBwfEoCgEAKJ+N9hU6hWDohAAiCi/RpLfKvbdoCj0BwEAQWMw3zfoNRIjCgFADBojCgFADBojCgFADBojCgGg9mMwXzwtBo0oBIDAp4nFoBGFABD0nsH8u+5qGSMKASCgZ44dSoXebiFoRCEARLSmeDQVL5fEoBGFABDN3Hf3pHUtzd4mNqIQAKJ+L5hPEpeGR8SgEYUAEMm8wr7yqmBzny1iIwoBIOTBkfrODlfKGFEIABHvFtxwosW3gkYUAkDEEHzlk2JqKvW6W9CIQgAQgsaIQgAQgsaIQgAQgsaIQgCoEflS6XxqeFNba/kKGSFoRCEABJEvlM6rgQ09Xa6PMaIQAKLIl0k/19yU6s60uTrGiEIAiLIdnFcC84si+SLpj/v7bAkbUQgAEbaC1xSPlt8XPnrpou1gE2/2dotCAGIGYD4U0nihJ5WGRwSgMVYKAajV7d98LUz+BjA/H5d/72wBGyMKAajxOwHzdTD5JHD+/i9fCWP71xhRCECNnfjN2705+vKhj7zlm8Mvb/t+OtAv/ozxTSEA1RB0eRUvR1225EhjOe7y93w58PK2bo68fMVLXqQo9HaXD3nk2Dt/7argM2YmJ39cm5/gAYD7VbxcKodcvrsv/66IOWOqa/4/tk3Uk1ReVDsAAAAASUVORK5CYII=;" parent="1" vertex="1">
          <mxGeometry x="160" y="371.72" width="21.25" height="26.55" as="geometry" />
        </mxCell>
        <mxCell id="xPIOmPR7IvFUon5ZPcdo-13" value="" style="shape=image;verticalLabelPosition=bottom;labelBackgroundColor=default;verticalAlign=top;aspect=fixed;imageAspect=0;image=data:image/png,iVBORw0KGgoAAAANSUhEUgAAAoUAAAMmCAYAAACD1vsgAAAnwklEQVR42u3dTWzV153w8ayeXbcz0rNA0QgpChpFyqRdRKwGkNqyAKFGFQkoREMqaCaVWpWGtonULiLEptGjorQNTN9cSjIOUF5nDMnVyKnAgQRrrhQnmIBlAzY2hosxtsEv8nlyLjWFBAgGv9x7f5+f9FnPTDrO/fac/znnoYeMMcYYY4zJc6jnagKYTu+fv5Y+uHAtFUvD6XjfSDp1ZTSdHhhN3UNjZaXhkTQ4NpZGx8fL/JvZGGNmKQr/8a12gIoxd8fp9NjuM2nRga60rHAurXyvJ73Q1JvWf3gxvfZRX9rc2p+2nrqSDnYOlaMzB6Z/mxtjjCgEKHty/9lyRE7E4872gfIKZV6N9G97Y4wRhQBpTn1HORrzquOrxUvlYMzb2barjTFGFALcWGG8ORbzd49i0RgjCgG4EYv5W8b8DWNeVfSLYYwRhQCU5W8WJ1YUHXAxxohCAMryKem89ZwPtuR/n/pVMcaIQgDK1+nkLee8kujUszFGFAJwY7s5ryLmC7z94hhjRCEA5a3miVVE3yMaY0QhAGX5W8R8sjk/++fXyBgjCgEQiMYYUQiAQDTGiEIA7iEQfYNojBGFAJTfbp44pOIJPmOMKASg/PxeflXlgwuuuTHGiEIA/nYPYt5edlG2MUYUAnDjJZWDnUPi0BgjCgFoT4sOdFk9NMaIQgD+/oJK/vawWBoWh8YYUQhAu61lY4woBODWgylbT11xrY0xRhQCcP1am9c+6vPdoTFGFAJw/btDcWiMEYUAiENjjCgEQBwaY0QhAOLQGCMKARCHxhhRCMCk4jC/kuJX0xhRCADlew5dgm2MKASAGy+kHO8bEYfGiEIAopu743T5e8PBMd8bGiMKAQhv0YGutLN9QBgaIwoBoD2tfK8nfXDhmjg0RhQCQHt6tXjJlrIxohAAbCkbIwoB4HOnlE9dGRWHxohCAFx87eJrY0QhANx0EOX98w6iGCMKAcBBFGNEIQDcfBDFc3nGiEIAuLFqODo+Lg6NEYUARLescM63hsaIQgC4Lr+j7FfZGFEIAOUTysXSsDg0RhQCEN3cHafda2iMKASA6/JrKKcHvIZijCgEILwn9591dY0xohAArrOdbIwoBICy9R9e9BKKMaIQAK7faeh0sjGiEADSY7vPpJ3tA8LQGFEIAC67NkYUAsBN19Z0D/nO0BhRCEB4iw50eTvZGFEIANdfQfGdoTGiEAB8Z2iMKASAW+8z9OtujCgEgLTyvR5haIwoBIDrB1D8yhsjCgGgfADFlTXGiEIAKPM0njGiEADK8u+dX31jRCEApIOdQ8LQGFEIAO0uuTZGFAKAMDRGFALATbaeuiIMjRGFANCeNrf2C0NjRCEACENjRCEA/M1rH/UJQ2NEIQAIQ2NEIQDYSjZGFAKAMDRGFAKA62qMEYUAIAyNEYUAcBdePjGiEAAoO9g5JAyNKAQAhKERhQDA3+TfS9VgRCEAkLqHxoShEYUAQHsaHR8XhkYUAkB0iw50iUIjCgGA9vRCU68wNKIQAGhPr33UJwyNKAQAvHpiRCEA8DdePTGiEABwh6ERhQDAdU/uP5uO940IQyMKASC6ZYVz7jA0ohAAaE/rP7woCo0oBADa0+bWfmFoRCEA0J4Odg4JQyMKAcDBk7Pp9MCoMDSiEACiW/lejyg0ohAAaE+vFi8JQyMKAQBP4RlRCAB8Zu6O0+mDC9eEoRGFABCdi62NKAQAfF9oRCEA4P5CIwoBgJssOtCVSsMjwtCIQgCIzvvIRhQCAGU72weEoRGFABCdZ/CMKAQAyl5o6hWFRhQCAO1pc2u/MDSiEACiy6+dHO9zGtmIQgAIb+V7PaLQiEIAwDayEYUAwGce230mnbriNLIRhQDgNLLTyEYUAgDZ1lNXhKERhQAQnUutjSgEAMq8jWxEIQBQ5m1kIwoBgPI2cmnYpdZGFAKAbWTbyEYUAgDZ++evCUMjCgEgOk/gGVEIADh0YkQhAHDdssI5UWhEIQDQnja39gtDIwoBwBU1Z1P30JgwNKIQAKJ7tXhJFBpRCADRzanvSMXSsDA0ohAAonuhqVcUGlEIALSng51DwtCIQgCIzoXWRhQCAFYLjSgEAKwWGlEIAFgtNKIQALBaaEQhAGC10IhCAMBqoRGFAIDVQiMKAQCrhUYUAgBWC40oBACsFhpRCADcg/x7rmqMKASA4NZ/eFEUGlEIANHNqe9Ip66MCkMjCgEguleLl0ShEYUAEN2T+8+mwbExYWhEIQBEt7m1XxQaUQgA0S060CUKjSgEAFxmbUQhAPCWy6yNKAQA/uaDC9eEoRGFABCdy6yNKAQA0mO7z7iexohCAKA9bT11RRQaUQgADpw4cGJEIQDwmeN9I8LQiEIAiO61j/pEoRGFABCdF06MKAQAyrxwYkQhAODOQiMKAYDrdxaWhh04MaIQANxZ6M5CIwoBAHcWGlEIAJSdujIqDI0oBIDoNrf2i0IjCgEgumWFc6LQiEIAwLN3RhQCALaQjSgEAGwhG1EIANxQLA0LQyMKASC61z7qE4VGFAKALWRbyEYUAgC2kI0oBABsIRtRCADYQjaiEAD4u9MD3kI2ohAAwtt66oooNKIQAKJ7oalXFBpRCADRPbb7jCg0ohAAaE8fXLgmDI0oBABX07iaxohCAHA1jatpjCgEALLS8IgwNKIQAKLb2T4gCo0oBIDo1n94URQaUQgA0T25/6woNKIQAPBdoRGFAMBnDnYOiUJRKAoBILpXi5dEoSgUhQAQnfsKjSgEANLcHadFoSgUhQBAezre57CJKPSHAADhbT11RRSKQn8IABCdS6xFoT8EACAtOtAlCkWhPwQAoD0Njo0JQ1EIAESXu0AdiUIAILjNrf2iUBQCANG90NQrCkUhAOCwicMmohAA4DOj4+PCUBQCANEVS8OiUBQCANF52UQUAgB42UQUAgA4bCIKAQA+M6e+QxSKQgCA9nS8b0QYikIAILqd7QOiUBQCANG9WrwkCkUhABCd5+5EIQBAWlY4JwpFIQAQ3ZP7z4pCUQgARDd3x2lRKAoBANpTadi1NKIQAAjPXYWiEAAg5UZQSqIQAAhu66krolAUAgDRvfZRnygUhQBAdOs/vCgKRSEAEN3K93pEoSgEAKJbdKBLFIpCACC6x3afEYWiEACIbk59hygUhQAA7WlwbEwYikIAILrTA6OiUBQCANF9cOGaKBSFAEB0BzuHRKEoBACi89SdKAQA8NSdKAQA8NSdKAQA+MwLTb2iUBQCANEtK5wThaIQABCFolAUAgDhLTrQJQpFIQAgCkWhKAQAwnty/1lRKAoBAFEoCkUhACAKRaEoBAB4bPcZUSgKAQBRKApFIQAQ3twdp0WhKAQARKEoFIUAQHhz6jtEoSgEAGgXhaIQALBSaKVQFAIAvin0TaEoBABwJY0oBAAQhaIQAMAzd6IQAOAziw50iUJRCACIQlEoCgGA8JYVzolCUQgAiEJRKAoBgPBWvtcjCkUhACAKRaEoBADCe6GpVxSKQgBAFIpCUQgAhLf+w4uiUBQCAKJQFIpCACC8V4uXRKEoBABEoSgUhQBAeJtb+0WhKAQAotvZPiAKRSEAEN0HF66JQlEIAETXPTQmCkUhABDZnPoOQSgKAYDontx/VhSKQgAgumWFc6JQFAIA0Xn3WBQCALi4WhQCALSnraeuiEJRCABEd7BzSBSKQgAguuN9I6JQFAIA0Q2OubhaFAIAoc3dcVoQikIAILpFB7pEoSgEAKJb+V6PKBSFAEB06z+8KApFIQAQ3ebWflEoCgGA6NxRKAoBAFL3kOtoRCEA4DoaIwoBgNiWFc6JQlEIADh57OSxKAQAnDx28lgUAgC8f/6aKBSFAEB0peERUSgKAYDIHtt9RhCKQgAgOm8ei0IAgPRq8ZIoFIUAQHQ72wdEoSgEAKIrloZFoSgEAKIbHR8XhaIQAIjsyf1nBaEo9IcAAE4eO3ksCv0hAEB4r33UJwpFoT8EAIjO83ai0B8CAAQ3p75DEIpCUQgAvif0PaEoFIUAEN7m1n5RKApFIQBEd7xvRBSKQlEIAJE9tvuMIDSiEACie6GpVxQaUQgA0W09dUUUGlEIANGdHhgVhUYUAkBkiw50CUIjCgEguvUfXhSFRhQCQHQHO4dEoRGFABBZftquNOx+QiMKASA0T9sZUQgApNc+6hOFRhQCQHTvn78mCo0oBIDIntx/VhAaUQgArqJxFY0RhQDgKhpX0RhRCAC2jhWQEYUAYOtYFBpRCAC2jm0dG1EIALaOjRGFAGDrWP0YUQgAto5FoRGFAGDr2BhRCAC2jo0RhQBg61j5mDvOsWPH0te+9rUpNX/+/Jq2YOGCsL65eHFVW7p0acX61lNPzapvL18+q1asWDGtnl21alatXr26oq1du/aBfOd7L6Yf/PgnZT/62c/T+o0b08u/+GXZT1//TfrZf2wr+/GbB254cW/zDc81fHrDssK58jbnnPoOIWfr2FR7FALAg8j/JS7Hao7MHJYTQZkDUjTaOjaiEABEo61jIwoB4P6icSIYcyzaOjZGFAIgFtN3X3qp/J1jDsX8DeNju8/YOjZGFAIQXT7olA/H5C3ovJq46EBXzUXh++eviUIjCgFgsjdo5BPVE9vOeTWxmredV77XIwiNKASAqdp2zt8nTmw7V9Nq4s72AVFoRCEATId8b2uOxImVxEo96ZxXOEfHx0WhEYUAMBPydvPEN4mVtNX82kd9gtCIQgCYrYMrE98j5jsTZzMKT10ZFYVGFAJAJWwzT5xsztvMc3ecnrEgfKGpVxAaUQgAlSi/EZ0Pq8zE1TeHeq6KQiMKAaAatpnXb9xY3mae6u8Q87a1wjGiEACqTH6SL68g5i3mqYjCraeuiEIjCgGg2r9BfJDVw/xs3+DYmCg0ohAAasGzq1bdWD2czD2IrxYvCUIjCgGg1uRn9yYuyr6XwynH+0ZEoRGFABDhDsQ7XW/jGhojCgEgmO++9NIXLsg+2DkkCo0oBICIli5dWl49zHcfqhojCgEguOffeD39+eRxYWhEIQBE9c3Fi9M/bN2cHtry/9Ijb9eV43B0fFwgGlEIAJE8veXX5SC8mTg0ohAAgn1TOLFKeDvi0IhCAAi6SigOjSgEgGCrhF/5w6/uKQonPPzW78WhEYUAEHGVUBwaUQgANepbTz11128JxaERhQAQwFN1v33gIBSHRhQCQBXLbyBP9lvCe5UPpLx37qwwFIUAQLRVwttZ/s6+dG5oUByKQgAg2irh5+X/OZta/teWsigEACKuEt5uS7mp55wwFIUAQCVYsWLFjK0S3mlL+fy1q+JQFAIA0VYJbSmLQgCggqxcu2ZWVwk/7/Fd22wpi0IAYKY9vX1bxQThzf790P/YUhaFAMBMWLtxQ0UG4YT8sootZVEIAEyjBQsXlE//VnIU3rylXLzYKwxFIQAw1Z5/4/WqCMLPbymXhkfEoSgEAKbCs6tWlbdmqy0KJ7aUPZcnCgGAKfD1+j9VZRDe7OX3/+pbQ1EIANTq4ZLJmL+33jvKohAAmKz58+dXzeGSyVx6vdt2sigEACZxJ+GWX9dUEH7+EMrg2Jg4FIUAwN18e/nyinq5ZDrkVdBPB/qFoSgEAGr5cMm9bif/+eRxYSgKAYDP++5LL4UIwpstf2ef7WRRCADc7OG3fh8uCrP8f7eXUEQhAFDjh0vuxf/57S/L7ycrM1EIAGGtXLum5g+X3Ktv7N+Rzl+7Kg5FIQDE89X6OkHoiTxRCAC2jYXg7dhOFoUAEOa0cf6WTgDe/bJrbyeLQgCoWd9cvDjsaeP7+c7QtTWiEABq0lN1vxV8k/D4rm3p3NCgMBSFAFA71m7cIPTu8wBK8XJJGIpCAKh+z65aVY4bkXf/z+M5mSwKAaDqRXnbeLovuvZusigEgKr1/Buvi7op9PL7fxWGohAAqu/6Ga+WTL3l7+xzMlkUAkD1XD/j1ZLpM39vfSoNjwhDUQgAlW319jfF2zTLdz5+3N8nDEUhAFSm9Rs3erXEyWRRCACRfed7L3q1xMlkUQgAkS1dutR3hLP4jWHdmTZhKAoBYPY9vX2bQJullcInGhvSw+/sTls6TgpDUQgAs+f7f/ydQJsl/3pwTzkIJwhDUQgAs+LlX/zSwZJZXCWcV9h3SxRmm9pahaEoBICZky+o9q5x5awSCkNRCAAz7tvLlztYMsvX0dxulVAYikIAmDHz589PX6//kzir0FXCm2040SIMRSEATA8vlsyuvGU/9917i0JhKAoBYFr89PXfOFhSJauEtpJFIQBMix/8+Cflb9mE2ey+eTzZIJxQ39khDEUhADyYZ1etcrCkEl4v+ZLDJXeTt5wLvd3CUBQCwP1ZsHCBgyUV4PFd2+47CG8Ow6ZSrzAUhQDgYEm1mnjO7kHlq2w+7u8ThqIQAO7dD+sFYbUeLrmbHJjtgwNJFPojB4AvtXFrnZPGFfyc3VSE4flrV5MoBADuGoROGtfmKuHNFh4upMGxsSQKAQBBWOFX0Ezmour78cyxQ2l0fDyJQgBAENbgFTSTEfLVE1EIALf3s//YVn5CTYxVSBDurZ+RIAx7ubUoBIAvWr9xoyAMcLjky+4wLF4uJVEIAEHl5+vyt2tiLMbhki87kdx1dSiJQgAI5jvfe1EQ1tD7xk4ki0IAmLRvL1+eHnnbe8ZRD5fczZri0do/kSwKAeBr6ZuLF6dHd3mtJPrhktAnkkUhAHwtPb5rmwirMPkqoHkVsEp4s73dZ5MoBIAatGDhgvJqlAhzuOReTyR/3N+XRCEA1NiWsSCsTPnbzkoLwptPJJeGR5IoBIAaOVQiCN1JeL+WHGmsvYMnohCAaFauXeOUsW3jKTmRLAoBwD2EBNs2vp1Nba1JFAJAlfnuSy95uq7Ct43/5cCuqorCrLmvRp7CE4UARLB244ZydIgv28bTcfCkJl48EYUA1Lrn33hdEFbBU3ZzDvylKqMwW9fSLAoBoJI9veXXosu28Yxo6OlKohAAKtBTdb8VXbaN3V8oCgGI7Ov1fxJcto1n3HPNTaIQACpBfrbuq/XuIKwWtbBt/Hl1Z9qSKAQAl1ITbNv48/JrLO2DA0kUAsAsWL9xo0upXVLtGTxRCEBk3//j79JX/vArsVUl8n9Wc9/dU9NRWJWvnYhCAKrVt556Kj29fZvQ8h1hRcrhW7xcRa+diEIAqtEPfvyTNH9vvciqMvk/swhBOGHh4UL1vHYiCgGoNj99/Te+H6zS62ciBeGEVz4pikIAmOrrZn5Y/6Yn67xaUnUaL/QkUQgAU2Dt2rVp2d7tAst3hF47EYUARL5u5vFdDpRUq0d3vRk6CCesKR4VhQBwvzZurUv/sHWzuHL9TE1o6OlKohAAJmH16tXpxd3bfT9o27jmtpEr9lJrUQhApXn5F79M39i/Q1RVuSf2vS0Eq+lSa1EIQCVdRv3z/XtsF3vGrqblt5HPX7uaRCEA3OEwyfJ39gmqGpCjXvzd3bqWZlEIADf75uLFDpPU2H2E8xp2Cr970NxXYU/giUIAZkt+qu7f/muXmHKwJKQlRxpFIQCxzZ8/v7w66Kk6B0uiq+/sSKIQgJDyyyR5ddBVMw6WcP2KmsGxsSQKAQjlp6//phwPIqr2Dpa4oPr+bTjRIgoBiGHFihUuonawhDvIQd11dSiJQgBq1oKFC6wOOlhCtbyLLAoBmA4/+tnP07K924WTgyXco6OXLiZRCEDNyG8Wr97+ZvrKH34lnGrYo7veFHJTbOHhwuy+iywKAZiqreLv//F3tooDyFcJibjpUXemTRQCUL3yE3Xf2L9DMDlpzBRcUVMaHkmiEICqu3MwbxU7VeykMTVwRY0oBGCy8nvFeavYiyROGjP15hX2zc5qoSgEYLJbxV+t992gIGQ6bWprFYUAVKbvvvRSenr7NlvFAf3z3nqhFuH5O1EIwJfFYP5uMB8wEEiunqGGVwtFIQBiEFfPWC0UhQDcNgZdPu3qmTkH/iLOZtmWjpOiEAAxyOwF4T/9t6tnKmW1cMZeORGFAGJQDDIh//+BIAz6yokoBIh9mlgM4nJqbyKLQgAxCIKwCtR3dohCAB7c/Pnz09qNG9LX6//knkFuSxBaLRSFADXs28uXp+ffeN0LJAjCGrC3+6woBOD+tojdMYjn62prtVAUAvClvrl4cXlVMG8Rix08X1ebCr3dSRQCcFvf+d6L5Stl8usTQgdBWNuWHGkUhQD83YKFCxwcQRAG1XihJ4lCgOCeXbUqff+Pv3NwBEEY2DPHDolCgIjWrl1bDsFle7e7W5AH8uiuN0VVjfi4vy+JQoAg3wkKQQQhd/LKJ0VRCFCrl0vna2RyCH5j/w4hiCDkruYV9qXBsbEkCgFqJAR/8OOfpB/Wv1kOQQdG8A0hs/r0nSgEmNlTwz/62c+FIIKQyrueRhQCTO9qYD4o8tPXf5Ne3L29HIJiBUFIRR44EYUAU2v16tW3RKDvAxGEVMWBE1EI8GBWrFiRXv7FL29EoPeGmU3zGnaKJQdORCHATPjWU0+l9Rs3liMwXxkjAqkE+ftUQRhT3Zk2UQgw3ZYuXVq+Kub5N15PT2/flubvrReBCEIqysLDBVEIMJWngvOF0fk94dXb3yyvAD6+a5vTwVS8/M2qIKR4uZREIcAkTwPnbwDztTD5ouiJ7wAffuv3AoOqk1et/+m/BSFTdOBEFAK1tuKXoy+v+uXv/jZurSv7+f496d/+a5eDIAhCatITjQ1pdHw8iUIgROzlAx75zr+8ypevfJmIvezl9/+a/v3Q/6Tl7+wrh1/e+s0/mnn71xYwtSavbM858BcxxC0aL/Q8eBTmf8kCTJe8apcPa+SYy6t3OeiyvH2b5dc98jZullfzshx3E4GX5QMe+YfQnX9E98jbdYKQ21rX0vxgUfjnk8f9kQGAIKQG7ix8oC1kUQgAXimhNjT0dIlCAHAHIdGtKR4VhQDgDkJsIT/As3eiEABcOUPt2H3urCgEAFfOEN1zzU2iEACq3dxd2wQhD2Tuu3tSaXgkiUIAcMKY4Oo7O0QhADhhjC3kJlEIAA6UYAt5z+QvshaFADA7vFBCRb2FLAoBwPeD1J5XPimKQgCoVC6kZqYsPFwQhQDg/kHYndoHB5IoBIAK8uiuNwUhM67uTJsoBADXzeBqmiZRCACum8HVNJO4mkYUAsDU81wdlaLQ2y0KAWA2tovn7v1PMUL1XU0jCgHAdjGuphGFAOB0MTWuNDySRCEAWB0kuIaeLlEIAFYHiW7DiRZRCABTLT9V5zAJ1WTJkUZRCABTyVN1VOt9hYNjY0kUAoCrZgiuqdQrCgHgQVcHHSah2m1qaxWFAPAgq4O2i6kFzxw7JAoBwOog0c0r7Lv7O8iiEACcLCaG4uWSKASAL/PI23W2iqlpWzpOikIAuBOvkhDFupZmUQgAtz1Ismub1UHCWHi4IAoBwOogLrHec+fDJqIQAAdJII6P+/tEIQAOktgqJrr6zg5RCICtYohuw4kWUQiArWLwsskhUQiAU8UQ3RONDaIQgNonBuHLnb92NYlCAGpSfqv4/+6zVQz3ovFCjygEoPYOkfhuEKbguTtRCEA1HyKxVQxT9NydKASg6mLQd4PwQJYcaRSFAIhBcAK5QRQC4HoZYHcaHBtLohAAMQjeQBaFAIhBiK6hp0sUAiAGwbU0J0UhAGIQonvlk6IoBMBpYojuueYmUQjA7Jl4gUQMwuxaeLggCgGYeY+8XedtYqgg8wr7RCEAM/u9oBiEylQaHkmiEADfC0JwzX0lUQjA9HwvmFcFxSBU4V2FohAAW8QQU31nhygEwKogRLeprVUUAmBVEKLbcKJFFAJw7x5+6/dWBaEGrWtpFoUAfPkJ4n/c4W5BCPOqiSgE4PPfCuYY9IMJtW/JkUZRCMCtEWhFEII/dScKAeKGoG8EwVN3ohBACAKk0fHxJAoBbA0D3j8WhQBWBIHoPh3oF4UAtXKhdI5AIQjcj6OXLopCAHcIAtEVertFIUA1rgYKQWAqNfR0iUKAajkkYlsYmC57u8+KQgARCES3+5woBJjV7WARCFSC+s4OUQgw3St/N/NNIFCJ6s60iUKAqdz2vTn6rPwBohCghuPv4bd+L/6AmrKl46QoBLjdd36PvF2XHt31Zpq79z/L4Sf+gFq2qa1VFAIxoy+v9s3dta1M9AGiUBQCNfCqx0TkTazuZf+8t/6WVT7RB3BnG060XI/CfAz58c/+2zLATHli39tp/mfhlv3rwT13NL+wr+xfDuxK8xp23og7gQcwDVGYb7H2DwQAIHgU5lus/QMBABCF/oEAAEQ/aCIKAQBEoSgEAAjsxuXVohAAIK4bz9yJQgCAuPL1hKIQAEAUikIAgOjyndWiEAAguIaeLlEIABBdobdbFAIARNdU6hWFAADRNfeVRCEAQHTtgwOiEAAgutLwiCgEAIjuoYkRhQAAMT3R2CAKAQCiW3i4IAoBAKJbcqRRFAIARLemeFQUAgBEt66lWRQCAES34USLKAQAiG5TW6soBACIru5MmygEAIiu0NstCgEAovu4v08UAgBENzg2JgoBACK75Yk7UQgAENMtr5mIQgCAmG55zUQUAgDEdMvF1aIQACCmLR0nRSEAQHQNPV2iEAAgulvuKBSFAAAxlYZHRCEAQGTzCvtuDUJRCAAQzxfuKBSFAADxrGtpFoUAANF94ToaUQgAEE9TqVcUAgA4eTwiCgEAInuiseGLQSgKAQBieebYIVEIABDdhhMtohAAILr6zg5RCAAQXfFySRQCAEQ3Oj5++yjc2y0KAQAiWHi4cPsgtFIIABDHbZ+3E4UAAA6ZiEIAgGA+HegXhQAAkc0r7LtzEIpCAIAYnmtuEoUAANFtamsVhQAA0TWVekUhAEBkc9/dkwbHxkQhAEBkS4403j0IRSEAQO175ZOiKAQAiC73nigEAAiuNDwiCgEAIlt4uPDlQSgKAQBq24YTLaIQACC6xgs9ohAAILJ8P+Ho+LgoBACI7EvfOxaFAAC1b0vHSVEIABDdpwP9ohAAILInGhvuPQhFIQBAbVrX0iwKAQCia+jpEoUAAJHlq2gGx8ZEIQBAZGuKRycXhKIQAKD25L4ThQAAto5FIQBAZJN6xUQUAgDUpvrODlEIAGDreEwUAgDYOr7PEYUAAMG3jkUhAICtY1EIAGDrWBQCANSK+7qwWhQCANSOeYV9aXR8XBQCAET2yifFBwtCUQgAUP2a+0qiEAAgsoWHCw8ehKIQAKC6bek4KQoBACLLdxOWhkdEIQBAZGuKR6cmCEUhAED1aujpEoUAAJE90djw4HcTikIAgOq24UTL1AVhnr3dohAAoNp8OtA/tVFopRAAoLo819w0tUEoCgEAqk/jhR5RCAAQ2ZS9YCIKAQCqV31nhygEAIhsyq+hEYUAANVnU1vr9AShKAQAqA5T+s6xKAQAqE6vfFKcviAUhQAA1WHKL6sWhQAA1WVaLqsWhQAA1aV4uSQKAQAie+bYoekPQlEIAGCVUBQCAFglFIUAAFYJRSEAgFVCUQgAYJVQFAIAWCUUhQAAVglFIQCAVUJRCABglVAUAgBUoDXFo7MThKIQAKAyzH13T2ofHBCFAACRbTjRMntBKAoBAGbfE40NaXBsTBQCAERWd6ZtdoNQFAIAzK6FhwtpdHxcFAIARNZ4oWf2g1AUAgDMnueamyojCEUhAMDsmPUraEQhAMDse+WTYuUEoSgEAJh5FXEFjSgEAJhdub8eqrQRhQAAM+eZY4cqLwhFIQBA4MMlohAAYOZtamutzCAUhQAAM6NiXi4RhQAAs+fj/r7KDUJRCAAw/SruTkJRCAAwsyryTkJRCAAws/Z2n638IMyT/xf1HxgAwNRbUzxaHUFopRAAYPq2jUvDI6IQACCyo5cuVk8QikIAgKm34URLdQWhKAQAmFpLjjRW9iXVohAAYHrNK+yr3LeNRSEAwMyo7+yoziAUhQAAU6Oqrp8RhQAAU69qXi0RhQAA02Puu3tS8XKpuoNQFAIAPJhNba3VH4SiEADg/lXt9TOiEABgauTrZ7quDtVGEIpCAID709DTVTtBKAoBACavKp+xE4UAAFPnmWOHauc7QlEIADB5Cw8Xqv8+QlEIAHD/8gXVNXWwRBQCAExOzVxQLQoBAO5f7qWHan1EIQBAsJPGohAA4N4919xUmyeNRSEAgJPGohAA4B5PGp+/djVOEIpCAIAvnjT+uL8vVhCKQgCAWxV6u+MFoSgEAPi7ujNtMYNQFAIABLt6RhQCANzeupbm2EEoCgGA6ELdRSgKAQC+aMmRxlh3EYpCAIBbhbucWhQCAHwxCEvDI4JQFAIAgtCIQgAgpPx8XdfVIUEoCgGAyEHYPjggCO80e7tFIQBQ+0H46UC/ILRSCAAIQiMKAQBbxkYUAgAxTxk7VCIKAYDgQXj+2lVBKAoBgMhB6B5CUQgABOYtY1EIAAT3zLFDglAUAgCRPdfclEbHxwWhKAQAolrX0iwIRSEAENmmtlYxKAoBgKjmFfalQm+3IBSFAEBU+ZWS4uWSIBSFAEBUXikRhQCAK2dcSi0KAYDI1hSPOmEsCgEAJ4yNKAQAnDA2ohAAiHmgpH1wQBCKQgAg8veD3jAWhQBAUHPf3ZPqzrSJQVEIAETlQmpRCAAEt+RIo/sHRSEAENmGEy3uHxSFAEDk7eKmUq8YFIUAQFTrWpqdLhaFAEDk1cHGCz1iUBQCAFHluwcdJhGFAEDg1cHcGopLFAIAQT1z7FA6f+2qIKyW2dstCgGAqTOvsM/LJFYKAYDo3w5aHRSFAEDgbwcLvd1iUBQCABHNfXdPeuWTonsHRSEAENXCw4VUvFwSg6IQAIh6kGRTW6s3i0UhABD5mpmuq0NiUBQCAFG3iht6usSgKAQAom4Vb+k4aatYFAIAkU8Ve69YFAIAQT3X3JTaBwfEoCgEAKJ+N9hU6hWDohAAiCi/RpLfKvbdoCj0BwEAQWMw3zfoNRIjCgFADBojCgFADBojCgFADBojCgGg9mMwXzwtBo0oBIDAp4nFoBGFABD0nsH8u+5qGSMKASCgZ44dSoXebiFoRCEARLSmeDQVL5fEoBGFABDN3Hf3pHUtzd4mNqIQAKJ+L5hPEpeGR8SgEYUAEMm8wr7yqmBzny1iIwoBIOTBkfrODlfKGFEIABHvFtxwosW3gkYUAkDEEHzlk2JqKvW6W9CIQgAQgsaIQgAQgsaIQgAQgsaIQgCoEflS6XxqeFNba/kKGSFoRCEABJEvlM6rgQ09Xa6PMaIQAKLIl0k/19yU6s60uTrGiEIAiLIdnFcC84si+SLpj/v7bAkbUQgAEbaC1xSPlt8XPnrpou1gE2/2dotCAGIGYD4U0nihJ5WGRwSgMVYKAajV7d98LUz+BjA/H5d/72wBGyMKAajxOwHzdTD5JHD+/i9fCWP71xhRCECNnfjN2705+vKhj7zlm8Mvb/t+OtAv/ozxTSEA1RB0eRUvR1225EhjOe7y93w58PK2bo68fMVLXqQo9HaXD3nk2Dt/7argM2YmJ39cm5/gAYD7VbxcKodcvrsv/66IOWOqa/4/tk3Uk1ReVDsAAAAASUVORK5CYII=;" parent="1" vertex="1">
          <mxGeometry x="350" y="370" width="21.25" height="26.55" as="geometry" />
        </mxCell>
        <mxCell id="xPIOmPR7IvFUon5ZPcdo-14" value="" style="shape=image;verticalLabelPosition=bottom;labelBackgroundColor=default;verticalAlign=top;aspect=fixed;imageAspect=0;image=data:image/png,iVBORw0KGgoAAAANSUhEUgAAAoUAAAMmCAYAAACD1vsgAAAnwklEQVR42u3dTWzV153w8ayeXbcz0rNA0QgpChpFyqRdRKwGkNqyAKFGFQkoREMqaCaVWpWGtonULiLEptGjorQNTN9cSjIOUF5nDMnVyKnAgQRrrhQnmIBlAzY2hosxtsEv8nlyLjWFBAgGv9x7f5+f9FnPTDrO/fac/znnoYeMMcYYY4zJc6jnagKYTu+fv5Y+uHAtFUvD6XjfSDp1ZTSdHhhN3UNjZaXhkTQ4NpZGx8fL/JvZGGNmKQr/8a12gIoxd8fp9NjuM2nRga60rHAurXyvJ73Q1JvWf3gxvfZRX9rc2p+2nrqSDnYOlaMzB6Z/mxtjjCgEKHty/9lyRE7E4872gfIKZV6N9G97Y4wRhQBpTn1HORrzquOrxUvlYMzb2barjTFGFALcWGG8ORbzd49i0RgjCgG4EYv5W8b8DWNeVfSLYYwRhQCU5W8WJ1YUHXAxxohCAMryKem89ZwPtuR/n/pVMcaIQgDK1+nkLee8kujUszFGFAJwY7s5ryLmC7z94hhjRCEA5a3miVVE3yMaY0QhAGX5W8R8sjk/++fXyBgjCgEQiMYYUQiAQDTGiEIA7iEQfYNojBGFAJTfbp44pOIJPmOMKASg/PxeflXlgwuuuTHGiEIA/nYPYt5edlG2MUYUAnDjJZWDnUPi0BgjCgFoT4sOdFk9NMaIQgD+/oJK/vawWBoWh8YYUQhAu61lY4woBODWgylbT11xrY0xRhQCcP1am9c+6vPdoTFGFAJw/btDcWiMEYUAiENjjCgEQBwaY0QhAOLQGCMKARCHxhhRCMCk4jC/kuJX0xhRCADlew5dgm2MKASAGy+kHO8bEYfGiEIAopu743T5e8PBMd8bGiMKAQhv0YGutLN9QBgaIwoBoD2tfK8nfXDhmjg0RhQCQHt6tXjJlrIxohAAbCkbIwoB4HOnlE9dGRWHxohCAFx87eJrY0QhANx0EOX98w6iGCMKAcBBFGNEIQDcfBDFc3nGiEIAuLFqODo+Lg6NEYUARLescM63hsaIQgC4Lr+j7FfZGFEIAOUTysXSsDg0RhQCEN3cHafda2iMKASA6/JrKKcHvIZijCgEILwn9591dY0xohAArrOdbIwoBICy9R9e9BKKMaIQAK7faeh0sjGiEADSY7vPpJ3tA8LQGFEIAC67NkYUAsBN19Z0D/nO0BhRCEB4iw50eTvZGFEIANdfQfGdoTGiEAB8Z2iMKASAW+8z9OtujCgEgLTyvR5haIwoBIDrB1D8yhsjCgGgfADFlTXGiEIAKPM0njGiEADK8u+dX31jRCEApIOdQ8LQGFEIAO0uuTZGFAKAMDRGFALATbaeuiIMjRGFANCeNrf2C0NjRCEACENjRCEA/M1rH/UJQ2NEIQAIQ2NEIQDYSjZGFAKAMDRGFAKA62qMEYUAIAyNEYUAcBdePjGiEAAoO9g5JAyNKAQAhKERhQDA3+TfS9VgRCEAkLqHxoShEYUAQHsaHR8XhkYUAkB0iw50iUIjCgGA9vRCU68wNKIQAGhPr33UJwyNKAQAvHpiRCEA8DdePTGiEABwh6ERhQDAdU/uP5uO940IQyMKASC6ZYVz7jA0ohAAaE/rP7woCo0oBADa0+bWfmFoRCEA0J4Odg4JQyMKAcDBk7Pp9MCoMDSiEACiW/lejyg0ohAAaE+vFi8JQyMKAQBP4RlRCAB8Zu6O0+mDC9eEoRGFABCdi62NKAQAfF9oRCEA4P5CIwoBgJssOtCVSsMjwtCIQgCIzvvIRhQCAGU72weEoRGFABCdZ/CMKAQAyl5o6hWFRhQCAO1pc2u/MDSiEACiy6+dHO9zGtmIQgAIb+V7PaLQiEIAwDayEYUAwGce230mnbriNLIRhQDgNLLTyEYUAgDZ1lNXhKERhQAQnUutjSgEAMq8jWxEIQBQ5m1kIwoBgPI2cmnYpdZGFAKAbWTbyEYUAgDZ++evCUMjCgEgOk/gGVEIADh0YkQhAHDdssI5UWhEIQDQnja39gtDIwoBwBU1Z1P30JgwNKIQAKJ7tXhJFBpRCADRzanvSMXSsDA0ohAAonuhqVcUGlEIALSng51DwtCIQgCIzoXWRhQCAFYLjSgEAKwWGlEIAFgtNKIQALBaaEQhAGC10IhCAMBqoRGFAIDVQiMKAQCrhUYUAgBWC40oBACsFhpRCADcg/x7rmqMKASA4NZ/eFEUGlEIANHNqe9Ip66MCkMjCgEguleLl0ShEYUAEN2T+8+mwbExYWhEIQBEt7m1XxQaUQgA0S060CUKjSgEAFxmbUQhAPCWy6yNKAQA/uaDC9eEoRGFABCdy6yNKAQA0mO7z7iexohCAKA9bT11RRQaUQgADpw4cGJEIQDwmeN9I8LQiEIAiO61j/pEoRGFABCdF06MKAQAyrxwYkQhAODOQiMKAYDrdxaWhh04MaIQANxZ6M5CIwoBAHcWGlEIAJSdujIqDI0oBIDoNrf2i0IjCgEgumWFc6LQiEIAwLN3RhQCALaQjSgEAGwhG1EIANxQLA0LQyMKASC61z7qE4VGFAKALWRbyEYUAgC2kI0oBABsIRtRCADYQjaiEAD4u9MD3kI2ohAAwtt66oooNKIQAKJ7oalXFBpRCADRPbb7jCg0ohAAaE8fXLgmDI0oBABX07iaxohCAHA1jatpjCgEALLS8IgwNKIQAKLb2T4gCo0oBIDo1n94URQaUQgA0T25/6woNKIQAPBdoRGFAMBnDnYOiUJRKAoBILpXi5dEoSgUhQAQnfsKjSgEANLcHadFoSgUhQBAezre57CJKPSHAADhbT11RRSKQn8IABCdS6xFoT8EACAtOtAlCkWhPwQAoD0Njo0JQ1EIAESXu0AdiUIAILjNrf2iUBQCANG90NQrCkUhAOCwicMmohAA4DOj4+PCUBQCANEVS8OiUBQCANF52UQUAgB42UQUAgA4bCIKAQA+M6e+QxSKQgCA9nS8b0QYikIAILqd7QOiUBQCANG9WrwkCkUhABCd5+5EIQBAWlY4JwpFIQAQ3ZP7z4pCUQgARDd3x2lRKAoBANpTadi1NKIQAAjPXYWiEAAg5UZQSqIQAAhu66krolAUAgDRvfZRnygUhQBAdOs/vCgKRSEAEN3K93pEoSgEAKJbdKBLFIpCACC6x3afEYWiEACIbk59hygUhQAA7WlwbEwYikIAILrTA6OiUBQCANF9cOGaKBSFAEB0BzuHRKEoBACi89SdKAQA8NSdKAQA8NSdKAQA+MwLTb2iUBQCANEtK5wThaIQABCFolAUAgDhLTrQJQpFIQAgCkWhKAQAwnty/1lRKAoBAFEoCkUhACAKRaEoBAB4bPcZUSgKAQBRKApFIQAQ3twdp0WhKAQARKEoFIUAQHhz6jtEoSgEAGgXhaIQALBSaKVQFAIAvin0TaEoBABwJY0oBAAQhaIQAMAzd6IQAOAziw50iUJRCACIQlEoCgGA8JYVzolCUQgAiEJRKAoBgPBWvtcjCkUhACAKRaEoBADCe6GpVxSKQgBAFIpCUQgAhLf+w4uiUBQCAKJQFIpCACC8V4uXRKEoBABEoSgUhQBAeJtb+0WhKAQAotvZPiAKRSEAEN0HF66JQlEIAETXPTQmCkUhABDZnPoOQSgKAYDontx/VhSKQgAgumWFc6JQFAIA0Xn3WBQCALi4WhQCALSnraeuiEJRCABEd7BzSBSKQgAguuN9I6JQFAIA0Q2OubhaFAIAoc3dcVoQikIAILpFB7pEoSgEAKJb+V6PKBSFAEB06z+8KApFIQAQ3ebWflEoCgGA6NxRKAoBAFL3kOtoRCEA4DoaIwoBgNiWFc6JQlEIADh57OSxKAQAnDx28lgUAgC8f/6aKBSFAEB0peERUSgKAYDIHtt9RhCKQgAgOm8ei0IAgPRq8ZIoFIUAQHQ72wdEoSgEAKIrloZFoSgEAKIbHR8XhaIQAIjsyf1nBaEo9IcAAE4eO3ksCv0hAEB4r33UJwpFoT8EAIjO83ai0B8CAAQ3p75DEIpCUQgAvif0PaEoFIUAEN7m1n5RKApFIQBEd7xvRBSKQlEIAJE9tvuMIDSiEACie6GpVxQaUQgA0W09dUUUGlEIANGdHhgVhUYUAkBkiw50CUIjCgEguvUfXhSFRhQCQHQHO4dEoRGFABBZftquNOx+QiMKASA0T9sZUQgApNc+6hOFRhQCQHTvn78mCo0oBIDIntx/VhAaUQgArqJxFY0RhQDgKhpX0RhRCAC2jhWQEYUAYOtYFBpRCAC2jm0dG1EIALaOjRGFAGDrWP0YUQgAto5FoRGFAGDr2BhRCAC2jo0RhQBg61j5mDvOsWPH0te+9rUpNX/+/Jq2YOGCsL65eHFVW7p0acX61lNPzapvL18+q1asWDGtnl21alatXr26oq1du/aBfOd7L6Yf/PgnZT/62c/T+o0b08u/+GXZT1//TfrZf2wr+/GbB254cW/zDc81fHrDssK58jbnnPoOIWfr2FR7FALAg8j/JS7Hao7MHJYTQZkDUjTaOjaiEABEo61jIwoB4P6icSIYcyzaOjZGFAIgFtN3X3qp/J1jDsX8DeNju8/YOjZGFAIQXT7olA/H5C3ovJq46EBXzUXh++eviUIjCgFgsjdo5BPVE9vOeTWxmredV77XIwiNKASAqdp2zt8nTmw7V9Nq4s72AVFoRCEATId8b2uOxImVxEo96ZxXOEfHx0WhEYUAMBPydvPEN4mVtNX82kd9gtCIQgCYrYMrE98j5jsTZzMKT10ZFYVGFAJAJWwzT5xsztvMc3ecnrEgfKGpVxAaUQgAlSi/EZ0Pq8zE1TeHeq6KQiMKAaAatpnXb9xY3mae6u8Q87a1wjGiEACqTH6SL68g5i3mqYjCraeuiEIjCgGg2r9BfJDVw/xs3+DYmCg0ohAAasGzq1bdWD2czD2IrxYvCUIjCgGg1uRn9yYuyr6XwynH+0ZEoRGFABDhDsQ7XW/jGhojCgEgmO++9NIXLsg+2DkkCo0oBICIli5dWl49zHcfqhojCgEguOffeD39+eRxYWhEIQBE9c3Fi9M/bN2cHtry/9Ijb9eV43B0fFwgGlEIAJE8veXX5SC8mTg0ohAAgn1TOLFKeDvi0IhCAAi6SigOjSgEgGCrhF/5w6/uKQonPPzW78WhEYUAEHGVUBwaUQgANepbTz11128JxaERhQAQwFN1v33gIBSHRhQCQBXLbyBP9lvCe5UPpLx37qwwFIUAQLRVwttZ/s6+dG5oUByKQgAg2irh5+X/OZta/teWsigEACKuEt5uS7mp55wwFIUAQCVYsWLFjK0S3mlL+fy1q+JQFAIA0VYJbSmLQgCggqxcu2ZWVwk/7/Fd22wpi0IAYKY9vX1bxQThzf790P/YUhaFAMBMWLtxQ0UG4YT8sootZVEIAEyjBQsXlE//VnIU3rylXLzYKwxFIQAw1Z5/4/WqCMLPbymXhkfEoSgEAKbCs6tWlbdmqy0KJ7aUPZcnCgGAKfD1+j9VZRDe7OX3/+pbQ1EIANTq4ZLJmL+33jvKohAAmKz58+dXzeGSyVx6vdt2sigEACZxJ+GWX9dUEH7+EMrg2Jg4FIUAwN18e/nyinq5ZDrkVdBPB/qFoSgEAGr5cMm9bif/+eRxYSgKAYDP++5LL4UIwpstf2ef7WRRCADc7OG3fh8uCrP8f7eXUEQhAFDjh0vuxf/57S/L7ycrM1EIAGGtXLum5g+X3Ktv7N+Rzl+7Kg5FIQDE89X6OkHoiTxRCAC2jYXg7dhOFoUAEOa0cf6WTgDe/bJrbyeLQgCoWd9cvDjsaeP7+c7QtTWiEABq0lN1vxV8k/D4rm3p3NCgMBSFAFA71m7cIPTu8wBK8XJJGIpCAKh+z65aVY4bkXf/z+M5mSwKAaDqRXnbeLovuvZusigEgKr1/Buvi7op9PL7fxWGohAAqu/6Ga+WTL3l7+xzMlkUAkD1XD/j1ZLpM39vfSoNjwhDUQgAlW319jfF2zTLdz5+3N8nDEUhAFSm9Rs3erXEyWRRCACRfed7L3q1xMlkUQgAkS1dutR3hLP4jWHdmTZhKAoBYPY9vX2bQJullcInGhvSw+/sTls6TgpDUQgAs+f7f/ydQJsl/3pwTzkIJwhDUQgAs+LlX/zSwZJZXCWcV9h3SxRmm9pahaEoBICZky+o9q5x5awSCkNRCAAz7tvLlztYMsvX0dxulVAYikIAmDHz589PX6//kzir0FXCm2040SIMRSEATA8vlsyuvGU/9917i0JhKAoBYFr89PXfOFhSJauEtpJFIQBMix/8+Cflb9mE2ey+eTzZIJxQ39khDEUhADyYZ1etcrCkEl4v+ZLDJXeTt5wLvd3CUBQCwP1ZsHCBgyUV4PFd2+47CG8Ow6ZSrzAUhQDgYEm1mnjO7kHlq2w+7u8ThqIQAO7dD+sFYbUeLrmbHJjtgwNJFPojB4AvtXFrnZPGFfyc3VSE4flrV5MoBADuGoROGtfmKuHNFh4upMGxsSQKAQBBWOFX0Ezmour78cyxQ2l0fDyJQgBAENbgFTSTEfLVE1EIALf3s//YVn5CTYxVSBDurZ+RIAx7ubUoBIAvWr9xoyAMcLjky+4wLF4uJVEIAEHl5+vyt2tiLMbhki87kdx1dSiJQgAI5jvfe1EQ1tD7xk4ki0IAmLRvL1+eHnnbe8ZRD5fczZri0do/kSwKAeBr6ZuLF6dHd3mtJPrhktAnkkUhAHwtPb5rmwirMPkqoHkVsEp4s73dZ5MoBIAatGDhgvJqlAhzuOReTyR/3N+XRCEA1NiWsSCsTPnbzkoLwptPJJeGR5IoBIAaOVQiCN1JeL+WHGmsvYMnohCAaFauXeOUsW3jKTmRLAoBwD2EBNs2vp1Nba1JFAJAlfnuSy95uq7Ct43/5cCuqorCrLmvRp7CE4UARLB244ZydIgv28bTcfCkJl48EYUA1Lrn33hdEFbBU3ZzDvylKqMwW9fSLAoBoJI9veXXosu28Yxo6OlKohAAKtBTdb8VXbaN3V8oCgGI7Ov1fxJcto1n3HPNTaIQACpBfrbuq/XuIKwWtbBt/Hl1Z9qSKAQAl1ITbNv48/JrLO2DA0kUAsAsWL9xo0upXVLtGTxRCEBk3//j79JX/vArsVUl8n9Wc9/dU9NRWJWvnYhCAKrVt556Kj29fZvQ8h1hRcrhW7xcRa+diEIAqtEPfvyTNH9vvciqMvk/swhBOGHh4UL1vHYiCgGoNj99/Te+H6zS62ciBeGEVz4pikIAmOrrZn5Y/6Yn67xaUnUaL/QkUQgAU2Dt2rVp2d7tAst3hF47EYUARL5u5vFdDpRUq0d3vRk6CCesKR4VhQBwvzZurUv/sHWzuHL9TE1o6OlKohAAJmH16tXpxd3bfT9o27jmtpEr9lJrUQhApXn5F79M39i/Q1RVuSf2vS0Eq+lSa1EIQCVdRv3z/XtsF3vGrqblt5HPX7uaRCEA3OEwyfJ39gmqGpCjXvzd3bqWZlEIADf75uLFDpPU2H2E8xp2Cr970NxXYU/giUIAZkt+qu7f/muXmHKwJKQlRxpFIQCxzZ8/v7w66Kk6B0uiq+/sSKIQgJDyyyR5ddBVMw6WcP2KmsGxsSQKAQjlp6//phwPIqr2Dpa4oPr+bTjRIgoBiGHFihUuonawhDvIQd11dSiJQgBq1oKFC6wOOlhCtbyLLAoBmA4/+tnP07K924WTgyXco6OXLiZRCEDNyG8Wr97+ZvrKH34lnGrYo7veFHJTbOHhwuy+iywKAZiqreLv//F3tooDyFcJibjpUXemTRQCUL3yE3Xf2L9DMDlpzBRcUVMaHkmiEICqu3MwbxU7VeykMTVwRY0oBGCy8nvFeavYiyROGjP15hX2zc5qoSgEYLJbxV+t992gIGQ6bWprFYUAVKbvvvRSenr7NlvFAf3z3nqhFuH5O1EIwJfFYP5uMB8wEEiunqGGVwtFIQBiEFfPWC0UhQDcNgZdPu3qmTkH/iLOZtmWjpOiEAAxyOwF4T/9t6tnKmW1cMZeORGFAGJQDDIh//+BIAz6yokoBIh9mlgM4nJqbyKLQgAxCIKwCtR3dohCAB7c/Pnz09qNG9LX6//knkFuSxBaLRSFADXs28uXp+ffeN0LJAjCGrC3+6woBOD+tojdMYjn62prtVAUAvClvrl4cXlVMG8Rix08X1ebCr3dSRQCcFvf+d6L5Stl8usTQgdBWNuWHGkUhQD83YKFCxwcQRAG1XihJ4lCgOCeXbUqff+Pv3NwBEEY2DPHDolCgIjWrl1bDsFle7e7W5AH8uiuN0VVjfi4vy+JQoAg3wkKQQQhd/LKJ0VRCFCrl0vna2RyCH5j/w4hiCDkruYV9qXBsbEkCgFqJAR/8OOfpB/Wv1kOQQdG8A0hs/r0nSgEmNlTwz/62c+FIIKQyrueRhQCTO9qYD4o8tPXf5Ne3L29HIJiBUFIRR44EYUAU2v16tW3RKDvAxGEVMWBE1EI8GBWrFiRXv7FL29EoPeGmU3zGnaKJQdORCHATPjWU0+l9Rs3liMwXxkjAqkE+ftUQRhT3Zk2UQgw3ZYuXVq+Kub5N15PT2/flubvrReBCEIqysLDBVEIMJWngvOF0fk94dXb3yyvAD6+a5vTwVS8/M2qIKR4uZREIcAkTwPnbwDztTD5ouiJ7wAffuv3AoOqk1et/+m/BSFTdOBEFAK1tuKXoy+v+uXv/jZurSv7+f496d/+a5eDIAhCatITjQ1pdHw8iUIgROzlAx75zr+8ypevfJmIvezl9/+a/v3Q/6Tl7+wrh1/e+s0/mnn71xYwtSavbM858BcxxC0aL/Q8eBTmf8kCTJe8apcPa+SYy6t3OeiyvH2b5dc98jZullfzshx3E4GX5QMe+YfQnX9E98jbdYKQ21rX0vxgUfjnk8f9kQGAIKQG7ix8oC1kUQgAXimhNjT0dIlCAHAHIdGtKR4VhQDgDkJsIT/As3eiEABcOUPt2H3urCgEAFfOEN1zzU2iEACq3dxd2wQhD2Tuu3tSaXgkiUIAcMKY4Oo7O0QhADhhjC3kJlEIAA6UYAt5z+QvshaFADA7vFBCRb2FLAoBwPeD1J5XPimKQgCoVC6kZqYsPFwQhQDg/kHYndoHB5IoBIAK8uiuNwUhM67uTJsoBADXzeBqmiZRCACum8HVNJO4mkYUAsDU81wdlaLQ2y0KAWA2tovn7v1PMUL1XU0jCgHAdjGuphGFAOB0MTWuNDySRCEAWB0kuIaeLlEIAFYHiW7DiRZRCABTLT9V5zAJ1WTJkUZRCABTyVN1VOt9hYNjY0kUAoCrZgiuqdQrCgHgQVcHHSah2m1qaxWFAPAgq4O2i6kFzxw7JAoBwOog0c0r7Lv7O8iiEACcLCaG4uWSKASAL/PI23W2iqlpWzpOikIAuBOvkhDFupZmUQgAtz1Ismub1UHCWHi4IAoBwOogLrHec+fDJqIQAAdJII6P+/tEIQAOktgqJrr6zg5RCICtYohuw4kWUQiArWLwsskhUQiAU8UQ3RONDaIQgNonBuHLnb92NYlCAGpSfqv4/+6zVQz3ovFCjygEoPYOkfhuEKbguTtRCEA1HyKxVQxT9NydKASg6mLQd4PwQJYcaRSFAIhBcAK5QRQC4HoZYHcaHBtLohAAMQjeQBaFAIhBiK6hp0sUAiAGwbU0J0UhAGIQonvlk6IoBMBpYojuueYmUQjA7Jl4gUQMwuxaeLggCgGYeY+8XedtYqgg8wr7RCEAM/u9oBiEylQaHkmiEADfC0JwzX0lUQjA9HwvmFcFxSBU4V2FohAAW8QQU31nhygEwKogRLeprVUUAmBVEKLbcKJFFAJw7x5+6/dWBaEGrWtpFoUAfPkJ4n/c4W5BCPOqiSgE4PPfCuYY9IMJtW/JkUZRCMCtEWhFEII/dScKAeKGoG8EwVN3ohBACAKk0fHxJAoBbA0D3j8WhQBWBIHoPh3oF4UAtXKhdI5AIQjcj6OXLopCAHcIAtEVertFIUA1rgYKQWAqNfR0iUKAajkkYlsYmC57u8+KQgARCES3+5woBJjV7WARCFSC+s4OUQgw3St/N/NNIFCJ6s60iUKAqdz2vTn6rPwBohCghuPv4bd+L/6AmrKl46QoBLjdd36PvF2XHt31Zpq79z/L4Sf+gFq2qa1VFAIxoy+v9s3dta1M9AGiUBQCNfCqx0TkTazuZf+8t/6WVT7RB3BnG060XI/CfAz58c/+2zLATHli39tp/mfhlv3rwT13NL+wr+xfDuxK8xp23og7gQcwDVGYb7H2DwQAIHgU5lus/QMBABCF/oEAAEQ/aCIKAQBEoSgEAAjsxuXVohAAIK4bz9yJQgCAuPL1hKIQAEAUikIAgOjyndWiEAAguIaeLlEIABBdobdbFAIARNdU6hWFAADRNfeVRCEAQHTtgwOiEAAgutLwiCgEAIjuoYkRhQAAMT3R2CAKAQCiW3i4IAoBAKJbcqRRFAIARLemeFQUAgBEt66lWRQCAES34USLKAQAiG5TW6soBACIru5MmygEAIiu0NstCgEAovu4v08UAgBENzg2JgoBACK75Yk7UQgAENMtr5mIQgCAmG55zUQUAgDEdMvF1aIQACCmLR0nRSEAQHQNPV2iEAAgulvuKBSFAAAxlYZHRCEAQGTzCvtuDUJRCAAQzxfuKBSFAADxrGtpFoUAANF94ToaUQgAEE9TqVcUAgA4eTwiCgEAInuiseGLQSgKAQBieebYIVEIABDdhhMtohAAILr6zg5RCAAQXfFySRQCAEQ3Oj5++yjc2y0KAQAiWHi4cPsgtFIIABDHbZ+3E4UAAA6ZiEIAgGA+HegXhQAAkc0r7LtzEIpCAIAYnmtuEoUAANFtamsVhQAA0TWVekUhAEBkc9/dkwbHxkQhAEBkS4403j0IRSEAQO175ZOiKAQAiC73nigEAAiuNDwiCgEAIlt4uPDlQSgKAQBq24YTLaIQACC6xgs9ohAAILJ8P+Ho+LgoBACI7EvfOxaFAAC1b0vHSVEIABDdpwP9ohAAILInGhvuPQhFIQBAbVrX0iwKAQCia+jpEoUAAJHlq2gGx8ZEIQBAZGuKRycXhKIQAKD25L4ThQAAto5FIQBAZJN6xUQUAgDUpvrODlEIAGDreEwUAgDYOr7PEYUAAMG3jkUhAICtY1EIAGDrWBQCANSK+7qwWhQCANSOeYV9aXR8XBQCAET2yifFBwtCUQgAUP2a+0qiEAAgsoWHCw8ehKIQAKC6bek4KQoBACLLdxOWhkdEIQBAZGuKR6cmCEUhAED1aujpEoUAAJE90djw4HcTikIAgOq24UTL1AVhnr3dohAAoNp8OtA/tVFopRAAoLo819w0tUEoCgEAqk/jhR5RCAAQ2ZS9YCIKAQCqV31nhygEAIhsyq+hEYUAANVnU1vr9AShKAQAqA5T+s6xKAQAqE6vfFKcviAUhQAA1WHKL6sWhQAA1WVaLqsWhQAA1aV4uSQKAQAie+bYoekPQlEIAGCVUBQCAFglFIUAAFYJRSEAgFVCUQgAYJVQFAIAWCUUhQAAVglFIQCAVUJRCABglVAUAgBUoDXFo7MThKIQAKAyzH13T2ofHBCFAACRbTjRMntBKAoBAGbfE40NaXBsTBQCAERWd6ZtdoNQFAIAzK6FhwtpdHxcFAIARNZ4oWf2g1AUAgDMnueamyojCEUhAMDsmPUraEQhAMDse+WTYuUEoSgEAJh5FXEFjSgEAJhdub8eqrQRhQAAM+eZY4cqLwhFIQBA4MMlohAAYOZtamutzCAUhQAAM6NiXi4RhQAAs+fj/r7KDUJRCAAw/SruTkJRCAAwsyryTkJRCAAws/Z2n638IMyT/xf1HxgAwNRbUzxaHUFopRAAYPq2jUvDI6IQACCyo5cuVk8QikIAgKm34URLdQWhKAQAmFpLjjRW9iXVohAAYHrNK+yr3LeNRSEAwMyo7+yoziAUhQAAU6Oqrp8RhQAAU69qXi0RhQAA02Puu3tS8XKpuoNQFAIAPJhNba3VH4SiEADg/lXt9TOiEABgauTrZ7quDtVGEIpCAID709DTVTtBKAoBACavKp+xE4UAAFPnmWOHauc7QlEIADB5Cw8Xqv8+QlEIAHD/8gXVNXWwRBQCAExOzVxQLQoBAO5f7qWHan1EIQBAsJPGohAA4N4919xUmyeNRSEAgJPGohAA4B5PGp+/djVOEIpCAIAvnjT+uL8vVhCKQgCAWxV6u+MFoSgEAPi7ujNtMYNQFAIABLt6RhQCANzeupbm2EEoCgGA6ELdRSgKAQC+aMmRxlh3EYpCAIBbhbucWhQCAHwxCEvDI4JQFAIAgtCIQgAgpPx8XdfVIUEoCgGAyEHYPjggCO80e7tFIQBQ+0H46UC/ILRSCAAIQiMKAQBbxkYUAgAxTxk7VCIKAYDgQXj+2lVBKAoBgMhB6B5CUQgABOYtY1EIAAT3zLFDglAUAgCRPdfclEbHxwWhKAQAolrX0iwIRSEAENmmtlYxKAoBgKjmFfalQm+3IBSFAEBU+ZWS4uWSIBSFAEBUXikRhQCAK2dcSi0KAYDI1hSPOmEsCgEAJ4yNKAQAnDA2ohAAiHmgpH1wQBCKQgAg8veD3jAWhQBAUHPf3ZPqzrSJQVEIAETlQmpRCAAEt+RIo/sHRSEAENmGEy3uHxSFAEDk7eKmUq8YFIUAQFTrWpqdLhaFAEDk1cHGCz1iUBQCAFHluwcdJhGFAEDg1cHcGopLFAIAQT1z7FA6f+2qIKyW2dstCgGAqTOvsM/LJFYKAYDo3w5aHRSFAEDgbwcLvd1iUBQCABHNfXdPeuWTonsHRSEAENXCw4VUvFwSg6IQAIh6kGRTW6s3i0UhABD5mpmuq0NiUBQCAFG3iht6usSgKAQAom4Vb+k4aatYFAIAkU8Ve69YFAIAQT3X3JTaBwfEoCgEAKJ+N9hU6hWDohAAiCi/RpLfKvbdoCj0BwEAQWMw3zfoNRIjCgFADBojCgFADBojCgFADBojCgGg9mMwXzwtBo0oBIDAp4nFoBGFABD0nsH8u+5qGSMKASCgZ44dSoXebiFoRCEARLSmeDQVL5fEoBGFABDN3Hf3pHUtzd4mNqIQAKJ+L5hPEpeGR8SgEYUAEMm8wr7yqmBzny1iIwoBIOTBkfrODlfKGFEIABHvFtxwosW3gkYUAkDEEHzlk2JqKvW6W9CIQgAQgsaIQgAQgsaIQgAQgsaIQgCoEflS6XxqeFNba/kKGSFoRCEABJEvlM6rgQ09Xa6PMaIQAKLIl0k/19yU6s60uTrGiEIAiLIdnFcC84si+SLpj/v7bAkbUQgAEbaC1xSPlt8XPnrpou1gE2/2dotCAGIGYD4U0nihJ5WGRwSgMVYKAajV7d98LUz+BjA/H5d/72wBGyMKAajxOwHzdTD5JHD+/i9fCWP71xhRCECNnfjN2705+vKhj7zlm8Mvb/t+OtAv/ozxTSEA1RB0eRUvR1225EhjOe7y93w58PK2bo68fMVLXqQo9HaXD3nk2Dt/7argM2YmJ39cm5/gAYD7VbxcKodcvrsv/66IOWOqa/4/tk3Uk1ReVDsAAAAASUVORK5CYII=;" parent="1" vertex="1">
          <mxGeometry x="536.44" y="370" width="21.25" height="26.55" as="geometry" />
        </mxCell>
        <mxCell id="xPIOmPR7IvFUon5ZPcdo-15" value="" style="shape=image;verticalLabelPosition=bottom;labelBackgroundColor=default;verticalAlign=top;aspect=fixed;imageAspect=0;image=data:image/png,iVBORw0KGgoAAAANSUhEUgAAAoUAAAMmCAYAAACD1vsgAAAnwklEQVR42u3dTWzV153w8ayeXbcz0rNA0QgpChpFyqRdRKwGkNqyAKFGFQkoREMqaCaVWpWGtonULiLEptGjorQNTN9cSjIOUF5nDMnVyKnAgQRrrhQnmIBlAzY2hosxtsEv8nlyLjWFBAgGv9x7f5+f9FnPTDrO/fac/znnoYeMMcYYY4zJc6jnagKYTu+fv5Y+uHAtFUvD6XjfSDp1ZTSdHhhN3UNjZaXhkTQ4NpZGx8fL/JvZGGNmKQr/8a12gIoxd8fp9NjuM2nRga60rHAurXyvJ73Q1JvWf3gxvfZRX9rc2p+2nrqSDnYOlaMzB6Z/mxtjjCgEKHty/9lyRE7E4872gfIKZV6N9G97Y4wRhQBpTn1HORrzquOrxUvlYMzb2barjTFGFALcWGG8ORbzd49i0RgjCgG4EYv5W8b8DWNeVfSLYYwRhQCU5W8WJ1YUHXAxxohCAMryKem89ZwPtuR/n/pVMcaIQgDK1+nkLee8kujUszFGFAJwY7s5ryLmC7z94hhjRCEA5a3miVVE3yMaY0QhAGX5W8R8sjk/++fXyBgjCgEQiMYYUQiAQDTGiEIA7iEQfYNojBGFAJTfbp44pOIJPmOMKASg/PxeflXlgwuuuTHGiEIA/nYPYt5edlG2MUYUAnDjJZWDnUPi0BgjCgFoT4sOdFk9NMaIQgD+/oJK/vawWBoWh8YYUQhAu61lY4woBODWgylbT11xrY0xRhQCcP1am9c+6vPdoTFGFAJw/btDcWiMEYUAiENjjCgEQBwaY0QhAOLQGCMKARCHxhhRCMCk4jC/kuJX0xhRCADlew5dgm2MKASAGy+kHO8bEYfGiEIAopu743T5e8PBMd8bGiMKAQhv0YGutLN9QBgaIwoBoD2tfK8nfXDhmjg0RhQCQHt6tXjJlrIxohAAbCkbIwoB4HOnlE9dGRWHxohCAFx87eJrY0QhANx0EOX98w6iGCMKAcBBFGNEIQDcfBDFc3nGiEIAuLFqODo+Lg6NEYUARLescM63hsaIQgC4Lr+j7FfZGFEIAOUTysXSsDg0RhQCEN3cHafda2iMKASA6/JrKKcHvIZijCgEILwn9591dY0xohAArrOdbIwoBICy9R9e9BKKMaIQAK7faeh0sjGiEADSY7vPpJ3tA8LQGFEIAC67NkYUAsBN19Z0D/nO0BhRCEB4iw50eTvZGFEIANdfQfGdoTGiEAB8Z2iMKASAW+8z9OtujCgEgLTyvR5haIwoBIDrB1D8yhsjCgGgfADFlTXGiEIAKPM0njGiEADK8u+dX31jRCEApIOdQ8LQGFEIAO0uuTZGFAKAMDRGFALATbaeuiIMjRGFANCeNrf2C0NjRCEACENjRCEA/M1rH/UJQ2NEIQAIQ2NEIQDYSjZGFAKAMDRGFAKA62qMEYUAIAyNEYUAcBdePjGiEAAoO9g5JAyNKAQAhKERhQDA3+TfS9VgRCEAkLqHxoShEYUAQHsaHR8XhkYUAkB0iw50iUIjCgGA9vRCU68wNKIQAGhPr33UJwyNKAQAvHpiRCEA8DdePTGiEABwh6ERhQDAdU/uP5uO940IQyMKASC6ZYVz7jA0ohAAaE/rP7woCo0oBADa0+bWfmFoRCEA0J4Odg4JQyMKAcDBk7Pp9MCoMDSiEACiW/lejyg0ohAAaE+vFi8JQyMKAQBP4RlRCAB8Zu6O0+mDC9eEoRGFABCdi62NKAQAfF9oRCEA4P5CIwoBgJssOtCVSsMjwtCIQgCIzvvIRhQCAGU72weEoRGFABCdZ/CMKAQAyl5o6hWFRhQCAO1pc2u/MDSiEACiy6+dHO9zGtmIQgAIb+V7PaLQiEIAwDayEYUAwGce230mnbriNLIRhQDgNLLTyEYUAgDZ1lNXhKERhQAQnUutjSgEAMq8jWxEIQBQ5m1kIwoBgPI2cmnYpdZGFAKAbWTbyEYUAgDZ++evCUMjCgEgOk/gGVEIADh0YkQhAHDdssI5UWhEIQDQnja39gtDIwoBwBU1Z1P30JgwNKIQAKJ7tXhJFBpRCADRzanvSMXSsDA0ohAAonuhqVcUGlEIALSng51DwtCIQgCIzoXWRhQCAFYLjSgEAKwWGlEIAFgtNKIQALBaaEQhAGC10IhCAMBqoRGFAIDVQiMKAQCrhUYUAgBWC40oBACsFhpRCADcg/x7rmqMKASA4NZ/eFEUGlEIANHNqe9Ip66MCkMjCgEguleLl0ShEYUAEN2T+8+mwbExYWhEIQBEt7m1XxQaUQgA0S060CUKjSgEAFxmbUQhAPCWy6yNKAQA/uaDC9eEoRGFABCdy6yNKAQA0mO7z7iexohCAKA9bT11RRQaUQgADpw4cGJEIQDwmeN9I8LQiEIAiO61j/pEoRGFABCdF06MKAQAyrxwYkQhAODOQiMKAYDrdxaWhh04MaIQANxZ6M5CIwoBAHcWGlEIAJSdujIqDI0oBIDoNrf2i0IjCgEgumWFc6LQiEIAwLN3RhQCALaQjSgEAGwhG1EIANxQLA0LQyMKASC61z7qE4VGFAKALWRbyEYUAgC2kI0oBABsIRtRCADYQjaiEAD4u9MD3kI2ohAAwtt66oooNKIQAKJ7oalXFBpRCADRPbb7jCg0ohAAaE8fXLgmDI0oBABX07iaxohCAHA1jatpjCgEALLS8IgwNKIQAKLb2T4gCo0oBIDo1n94URQaUQgA0T25/6woNKIQAPBdoRGFAMBnDnYOiUJRKAoBILpXi5dEoSgUhQAQnfsKjSgEANLcHadFoSgUhQBAezre57CJKPSHAADhbT11RRSKQn8IABCdS6xFoT8EACAtOtAlCkWhPwQAoD0Njo0JQ1EIAESXu0AdiUIAILjNrf2iUBQCANG90NQrCkUhAOCwicMmohAA4DOj4+PCUBQCANEVS8OiUBQCANF52UQUAgB42UQUAgA4bCIKAQA+M6e+QxSKQgCA9nS8b0QYikIAILqd7QOiUBQCANG9WrwkCkUhABCd5+5EIQBAWlY4JwpFIQAQ3ZP7z4pCUQgARDd3x2lRKAoBANpTadi1NKIQAAjPXYWiEAAg5UZQSqIQAAhu66krolAUAgDRvfZRnygUhQBAdOs/vCgKRSEAEN3K93pEoSgEAKJbdKBLFIpCACC6x3afEYWiEACIbk59hygUhQAA7WlwbEwYikIAILrTA6OiUBQCANF9cOGaKBSFAEB0BzuHRKEoBACi89SdKAQA8NSdKAQA8NSdKAQA+MwLTb2iUBQCANEtK5wThaIQABCFolAUAgDhLTrQJQpFIQAgCkWhKAQAwnty/1lRKAoBAFEoCkUhACAKRaEoBAB4bPcZUSgKAQBRKApFIQAQ3twdp0WhKAQARKEoFIUAQHhz6jtEoSgEAGgXhaIQALBSaKVQFAIAvin0TaEoBABwJY0oBAAQhaIQAMAzd6IQAOAziw50iUJRCACIQlEoCgGA8JYVzolCUQgAiEJRKAoBgPBWvtcjCkUhACAKRaEoBADCe6GpVxSKQgBAFIpCUQgAhLf+w4uiUBQCAKJQFIpCACC8V4uXRKEoBABEoSgUhQBAeJtb+0WhKAQAotvZPiAKRSEAEN0HF66JQlEIAETXPTQmCkUhABDZnPoOQSgKAYDontx/VhSKQgAgumWFc6JQFAIA0Xn3WBQCALi4WhQCALSnraeuiEJRCABEd7BzSBSKQgAguuN9I6JQFAIA0Q2OubhaFAIAoc3dcVoQikIAILpFB7pEoSgEAKJb+V6PKBSFAEB06z+8KApFIQAQ3ebWflEoCgGA6NxRKAoBAFL3kOtoRCEA4DoaIwoBgNiWFc6JQlEIADh57OSxKAQAnDx28lgUAgC8f/6aKBSFAEB0peERUSgKAYDIHtt9RhCKQgAgOm8ei0IAgPRq8ZIoFIUAQHQ72wdEoSgEAKIrloZFoSgEAKIbHR8XhaIQAIjsyf1nBaEo9IcAAE4eO3ksCv0hAEB4r33UJwpFoT8EAIjO83ai0B8CAAQ3p75DEIpCUQgAvif0PaEoFIUAEN7m1n5RKApFIQBEd7xvRBSKQlEIAJE9tvuMIDSiEACie6GpVxQaUQgA0W09dUUUGlEIANGdHhgVhUYUAkBkiw50CUIjCgEguvUfXhSFRhQCQHQHO4dEoRGFABBZftquNOx+QiMKASA0T9sZUQgApNc+6hOFRhQCQHTvn78mCo0oBIDIntx/VhAaUQgArqJxFY0RhQDgKhpX0RhRCAC2jhWQEYUAYOtYFBpRCAC2jm0dG1EIALaOjRGFAGDrWP0YUQgAto5FoRGFAGDr2BhRCAC2jo0RhQBg61j5mDvOsWPH0te+9rUpNX/+/Jq2YOGCsL65eHFVW7p0acX61lNPzapvL18+q1asWDGtnl21alatXr26oq1du/aBfOd7L6Yf/PgnZT/62c/T+o0b08u/+GXZT1//TfrZf2wr+/GbB254cW/zDc81fHrDssK58jbnnPoOIWfr2FR7FALAg8j/JS7Hao7MHJYTQZkDUjTaOjaiEABEo61jIwoB4P6icSIYcyzaOjZGFAIgFtN3X3qp/J1jDsX8DeNju8/YOjZGFAIQXT7olA/H5C3ovJq46EBXzUXh++eviUIjCgFgsjdo5BPVE9vOeTWxmredV77XIwiNKASAqdp2zt8nTmw7V9Nq4s72AVFoRCEATId8b2uOxImVxEo96ZxXOEfHx0WhEYUAMBPydvPEN4mVtNX82kd9gtCIQgCYrYMrE98j5jsTZzMKT10ZFYVGFAJAJWwzT5xsztvMc3ecnrEgfKGpVxAaUQgAlSi/EZ0Pq8zE1TeHeq6KQiMKAaAatpnXb9xY3mae6u8Q87a1wjGiEACqTH6SL68g5i3mqYjCraeuiEIjCgGg2r9BfJDVw/xs3+DYmCg0ohAAasGzq1bdWD2czD2IrxYvCUIjCgGg1uRn9yYuyr6XwynH+0ZEoRGFABDhDsQ7XW/jGhojCgEgmO++9NIXLsg+2DkkCo0oBICIli5dWl49zHcfqhojCgEguOffeD39+eRxYWhEIQBE9c3Fi9M/bN2cHtry/9Ijb9eV43B0fFwgGlEIAJE8veXX5SC8mTg0ohAAgn1TOLFKeDvi0IhCAAi6SigOjSgEgGCrhF/5w6/uKQonPPzW78WhEYUAEHGVUBwaUQgANepbTz11128JxaERhQAQwFN1v33gIBSHRhQCQBXLbyBP9lvCe5UPpLx37qwwFIUAQLRVwttZ/s6+dG5oUByKQgAg2irh5+X/OZta/teWsigEACKuEt5uS7mp55wwFIUAQCVYsWLFjK0S3mlL+fy1q+JQFAIA0VYJbSmLQgCggqxcu2ZWVwk/7/Fd22wpi0IAYKY9vX1bxQThzf790P/YUhaFAMBMWLtxQ0UG4YT8sootZVEIAEyjBQsXlE//VnIU3rylXLzYKwxFIQAw1Z5/4/WqCMLPbymXhkfEoSgEAKbCs6tWlbdmqy0KJ7aUPZcnCgGAKfD1+j9VZRDe7OX3/+pbQ1EIANTq4ZLJmL+33jvKohAAmKz58+dXzeGSyVx6vdt2sigEACZxJ+GWX9dUEH7+EMrg2Jg4FIUAwN18e/nyinq5ZDrkVdBPB/qFoSgEAGr5cMm9bif/+eRxYSgKAYDP++5LL4UIwpstf2ef7WRRCADc7OG3fh8uCrP8f7eXUEQhAFDjh0vuxf/57S/L7ycrM1EIAGGtXLum5g+X3Ktv7N+Rzl+7Kg5FIQDE89X6OkHoiTxRCAC2jYXg7dhOFoUAEOa0cf6WTgDe/bJrbyeLQgCoWd9cvDjsaeP7+c7QtTWiEABq0lN1vxV8k/D4rm3p3NCgMBSFAFA71m7cIPTu8wBK8XJJGIpCAKh+z65aVY4bkXf/z+M5mSwKAaDqRXnbeLovuvZusigEgKr1/Buvi7op9PL7fxWGohAAqu/6Ga+WTL3l7+xzMlkUAkD1XD/j1ZLpM39vfSoNjwhDUQgAlW319jfF2zTLdz5+3N8nDEUhAFSm9Rs3erXEyWRRCACRfed7L3q1xMlkUQgAkS1dutR3hLP4jWHdmTZhKAoBYPY9vX2bQJullcInGhvSw+/sTls6TgpDUQgAs+f7f/ydQJsl/3pwTzkIJwhDUQgAs+LlX/zSwZJZXCWcV9h3SxRmm9pahaEoBICZky+o9q5x5awSCkNRCAAz7tvLlztYMsvX0dxulVAYikIAmDHz589PX6//kzir0FXCm2040SIMRSEATA8vlsyuvGU/9917i0JhKAoBYFr89PXfOFhSJauEtpJFIQBMix/8+Cflb9mE2ey+eTzZIJxQ39khDEUhADyYZ1etcrCkEl4v+ZLDJXeTt5wLvd3CUBQCwP1ZsHCBgyUV4PFd2+47CG8Ow6ZSrzAUhQDgYEm1mnjO7kHlq2w+7u8ThqIQAO7dD+sFYbUeLrmbHJjtgwNJFPojB4AvtXFrnZPGFfyc3VSE4flrV5MoBADuGoROGtfmKuHNFh4upMGxsSQKAQBBWOFX0Ezmour78cyxQ2l0fDyJQgBAENbgFTSTEfLVE1EIALf3s//YVn5CTYxVSBDurZ+RIAx7ubUoBIAvWr9xoyAMcLjky+4wLF4uJVEIAEHl5+vyt2tiLMbhki87kdx1dSiJQgAI5jvfe1EQ1tD7xk4ki0IAmLRvL1+eHnnbe8ZRD5fczZri0do/kSwKAeBr6ZuLF6dHd3mtJPrhktAnkkUhAHwtPb5rmwirMPkqoHkVsEp4s73dZ5MoBIAatGDhgvJqlAhzuOReTyR/3N+XRCEA1NiWsSCsTPnbzkoLwptPJJeGR5IoBIAaOVQiCN1JeL+WHGmsvYMnohCAaFauXeOUsW3jKTmRLAoBwD2EBNs2vp1Nba1JFAJAlfnuSy95uq7Ct43/5cCuqorCrLmvRp7CE4UARLB244ZydIgv28bTcfCkJl48EYUA1Lrn33hdEFbBU3ZzDvylKqMwW9fSLAoBoJI9veXXosu28Yxo6OlKohAAKtBTdb8VXbaN3V8oCgGI7Ov1fxJcto1n3HPNTaIQACpBfrbuq/XuIKwWtbBt/Hl1Z9qSKAQAl1ITbNv48/JrLO2DA0kUAsAsWL9xo0upXVLtGTxRCEBk3//j79JX/vArsVUl8n9Wc9/dU9NRWJWvnYhCAKrVt556Kj29fZvQ8h1hRcrhW7xcRa+diEIAqtEPfvyTNH9vvciqMvk/swhBOGHh4UL1vHYiCgGoNj99/Te+H6zS62ciBeGEVz4pikIAmOrrZn5Y/6Yn67xaUnUaL/QkUQgAU2Dt2rVp2d7tAst3hF47EYUARL5u5vFdDpRUq0d3vRk6CCesKR4VhQBwvzZurUv/sHWzuHL9TE1o6OlKohAAJmH16tXpxd3bfT9o27jmtpEr9lJrUQhApXn5F79M39i/Q1RVuSf2vS0Eq+lSa1EIQCVdRv3z/XtsF3vGrqblt5HPX7uaRCEA3OEwyfJ39gmqGpCjXvzd3bqWZlEIADf75uLFDpPU2H2E8xp2Cr970NxXYU/giUIAZkt+qu7f/muXmHKwJKQlRxpFIQCxzZ8/v7w66Kk6B0uiq+/sSKIQgJDyyyR5ddBVMw6WcP2KmsGxsSQKAQjlp6//phwPIqr2Dpa4oPr+bTjRIgoBiGHFihUuonawhDvIQd11dSiJQgBq1oKFC6wOOlhCtbyLLAoBmA4/+tnP07K924WTgyXco6OXLiZRCEDNyG8Wr97+ZvrKH34lnGrYo7veFHJTbOHhwuy+iywKAZiqreLv//F3tooDyFcJibjpUXemTRQCUL3yE3Xf2L9DMDlpzBRcUVMaHkmiEICqu3MwbxU7VeykMTVwRY0oBGCy8nvFeavYiyROGjP15hX2zc5qoSgEYLJbxV+t992gIGQ6bWprFYUAVKbvvvRSenr7NlvFAf3z3nqhFuH5O1EIwJfFYP5uMB8wEEiunqGGVwtFIQBiEFfPWC0UhQDcNgZdPu3qmTkH/iLOZtmWjpOiEAAxyOwF4T/9t6tnKmW1cMZeORGFAGJQDDIh//+BIAz6yokoBIh9mlgM4nJqbyKLQgAxCIKwCtR3dohCAB7c/Pnz09qNG9LX6//knkFuSxBaLRSFADXs28uXp+ffeN0LJAjCGrC3+6woBOD+tojdMYjn62prtVAUAvClvrl4cXlVMG8Rix08X1ebCr3dSRQCcFvf+d6L5Stl8usTQgdBWNuWHGkUhQD83YKFCxwcQRAG1XihJ4lCgOCeXbUqff+Pv3NwBEEY2DPHDolCgIjWrl1bDsFle7e7W5AH8uiuN0VVjfi4vy+JQoAg3wkKQQQhd/LKJ0VRCFCrl0vna2RyCH5j/w4hiCDkruYV9qXBsbEkCgFqJAR/8OOfpB/Wv1kOQQdG8A0hs/r0nSgEmNlTwz/62c+FIIKQyrueRhQCTO9qYD4o8tPXf5Ne3L29HIJiBUFIRR44EYUAU2v16tW3RKDvAxGEVMWBE1EI8GBWrFiRXv7FL29EoPeGmU3zGnaKJQdORCHATPjWU0+l9Rs3liMwXxkjAqkE+ftUQRhT3Zk2UQgw3ZYuXVq+Kub5N15PT2/flubvrReBCEIqysLDBVEIMJWngvOF0fk94dXb3yyvAD6+a5vTwVS8/M2qIKR4uZREIcAkTwPnbwDztTD5ouiJ7wAffuv3AoOqk1et/+m/BSFTdOBEFAK1tuKXoy+v+uXv/jZurSv7+f496d/+a5eDIAhCatITjQ1pdHw8iUIgROzlAx75zr+8ypevfJmIvezl9/+a/v3Q/6Tl7+wrh1/e+s0/mnn71xYwtSavbM858BcxxC0aL/Q8eBTmf8kCTJe8apcPa+SYy6t3OeiyvH2b5dc98jZullfzshx3E4GX5QMe+YfQnX9E98jbdYKQ21rX0vxgUfjnk8f9kQGAIKQG7ix8oC1kUQgAXimhNjT0dIlCAHAHIdGtKR4VhQDgDkJsIT/As3eiEABcOUPt2H3urCgEAFfOEN1zzU2iEACq3dxd2wQhD2Tuu3tSaXgkiUIAcMKY4Oo7O0QhADhhjC3kJlEIAA6UYAt5z+QvshaFADA7vFBCRb2FLAoBwPeD1J5XPimKQgCoVC6kZqYsPFwQhQDg/kHYndoHB5IoBIAK8uiuNwUhM67uTJsoBADXzeBqmiZRCACum8HVNJO4mkYUAsDU81wdlaLQ2y0KAWA2tovn7v1PMUL1XU0jCgHAdjGuphGFAOB0MTWuNDySRCEAWB0kuIaeLlEIAFYHiW7DiRZRCABTLT9V5zAJ1WTJkUZRCABTyVN1VOt9hYNjY0kUAoCrZgiuqdQrCgHgQVcHHSah2m1qaxWFAPAgq4O2i6kFzxw7JAoBwOog0c0r7Lv7O8iiEACcLCaG4uWSKASAL/PI23W2iqlpWzpOikIAuBOvkhDFupZmUQgAtz1Ismub1UHCWHi4IAoBwOogLrHec+fDJqIQAAdJII6P+/tEIQAOktgqJrr6zg5RCICtYohuw4kWUQiArWLwsskhUQiAU8UQ3RONDaIQgNonBuHLnb92NYlCAGpSfqv4/+6zVQz3ovFCjygEoPYOkfhuEKbguTtRCEA1HyKxVQxT9NydKASg6mLQd4PwQJYcaRSFAIhBcAK5QRQC4HoZYHcaHBtLohAAMQjeQBaFAIhBiK6hp0sUAiAGwbU0J0UhAGIQonvlk6IoBMBpYojuueYmUQjA7Jl4gUQMwuxaeLggCgGYeY+8XedtYqgg8wr7RCEAM/u9oBiEylQaHkmiEADfC0JwzX0lUQjA9HwvmFcFxSBU4V2FohAAW8QQU31nhygEwKogRLeprVUUAmBVEKLbcKJFFAJw7x5+6/dWBaEGrWtpFoUAfPkJ4n/c4W5BCPOqiSgE4PPfCuYY9IMJtW/JkUZRCMCtEWhFEII/dScKAeKGoG8EwVN3ohBACAKk0fHxJAoBbA0D3j8WhQBWBIHoPh3oF4UAtXKhdI5AIQjcj6OXLopCAHcIAtEVertFIUA1rgYKQWAqNfR0iUKAajkkYlsYmC57u8+KQgARCES3+5woBJjV7WARCFSC+s4OUQgw3St/N/NNIFCJ6s60iUKAqdz2vTn6rPwBohCghuPv4bd+L/6AmrKl46QoBLjdd36PvF2XHt31Zpq79z/L4Sf+gFq2qa1VFAIxoy+v9s3dta1M9AGiUBQCNfCqx0TkTazuZf+8t/6WVT7RB3BnG060XI/CfAz58c/+2zLATHli39tp/mfhlv3rwT13NL+wr+xfDuxK8xp23og7gQcwDVGYb7H2DwQAIHgU5lus/QMBABCF/oEAAEQ/aCIKAQBEoSgEAAjsxuXVohAAIK4bz9yJQgCAuPL1hKIQAEAUikIAgOjyndWiEAAguIaeLlEIABBdobdbFAIARNdU6hWFAADRNfeVRCEAQHTtgwOiEAAgutLwiCgEAIjuoYkRhQAAMT3R2CAKAQCiW3i4IAoBAKJbcqRRFAIARLemeFQUAgBEt66lWRQCAES34USLKAQAiG5TW6soBACIru5MmygEAIiu0NstCgEAovu4v08UAgBENzg2JgoBACK75Yk7UQgAENMtr5mIQgCAmG55zUQUAgDEdMvF1aIQACCmLR0nRSEAQHQNPV2iEAAgulvuKBSFAAAxlYZHRCEAQGTzCvtuDUJRCAAQzxfuKBSFAADxrGtpFoUAANF94ToaUQgAEE9TqVcUAgA4eTwiCgEAInuiseGLQSgKAQBieebYIVEIABDdhhMtohAAILr6zg5RCAAQXfFySRQCAEQ3Oj5++yjc2y0KAQAiWHi4cPsgtFIIABDHbZ+3E4UAAA6ZiEIAgGA+HegXhQAAkc0r7LtzEIpCAIAYnmtuEoUAANFtamsVhQAA0TWVekUhAEBkc9/dkwbHxkQhAEBkS4403j0IRSEAQO175ZOiKAQAiC73nigEAAiuNDwiCgEAIlt4uPDlQSgKAQBq24YTLaIQACC6xgs9ohAAILJ8P+Ho+LgoBACI7EvfOxaFAAC1b0vHSVEIABDdpwP9ohAAILInGhvuPQhFIQBAbVrX0iwKAQCia+jpEoUAAJHlq2gGx8ZEIQBAZGuKRycXhKIQAKD25L4ThQAAto5FIQBAZJN6xUQUAgDUpvrODlEIAGDreEwUAgDYOr7PEYUAAMG3jkUhAICtY1EIAGDrWBQCANSK+7qwWhQCANSOeYV9aXR8XBQCAET2yifFBwtCUQgAUP2a+0qiEAAgsoWHCw8ehKIQAKC6bek4KQoBACLLdxOWhkdEIQBAZGuKR6cmCEUhAED1aujpEoUAAJE90djw4HcTikIAgOq24UTL1AVhnr3dohAAoNp8OtA/tVFopRAAoLo819w0tUEoCgEAqk/jhR5RCAAQ2ZS9YCIKAQCqV31nhygEAIhsyq+hEYUAANVnU1vr9AShKAQAqA5T+s6xKAQAqE6vfFKcviAUhQAA1WHKL6sWhQAA1WVaLqsWhQAA1aV4uSQKAQAie+bYoekPQlEIAGCVUBQCAFglFIUAAFYJRSEAgFVCUQgAYJVQFAIAWCUUhQAAVglFIQCAVUJRCABglVAUAgBUoDXFo7MThKIQAKAyzH13T2ofHBCFAACRbTjRMntBKAoBAGbfE40NaXBsTBQCAERWd6ZtdoNQFAIAzK6FhwtpdHxcFAIARNZ4oWf2g1AUAgDMnueamyojCEUhAMDsmPUraEQhAMDse+WTYuUEoSgEAJh5FXEFjSgEAJhdub8eqrQRhQAAM+eZY4cqLwhFIQBA4MMlohAAYOZtamutzCAUhQAAM6NiXi4RhQAAs+fj/r7KDUJRCAAw/SruTkJRCAAwsyryTkJRCAAws/Z2n638IMyT/xf1HxgAwNRbUzxaHUFopRAAYPq2jUvDI6IQACCyo5cuVk8QikIAgKm34URLdQWhKAQAmFpLjjRW9iXVohAAYHrNK+yr3LeNRSEAwMyo7+yoziAUhQAAU6Oqrp8RhQAAU69qXi0RhQAA02Puu3tS8XKpuoNQFAIAPJhNba3VH4SiEADg/lXt9TOiEABgauTrZ7quDtVGEIpCAID709DTVTtBKAoBACavKp+xE4UAAFPnmWOHauc7QlEIADB5Cw8Xqv8+QlEIAHD/8gXVNXWwRBQCAExOzVxQLQoBAO5f7qWHan1EIQBAsJPGohAA4N4919xUmyeNRSEAgJPGohAA4B5PGp+/djVOEIpCAIAvnjT+uL8vVhCKQgCAWxV6u+MFoSgEAPi7ujNtMYNQFAIABLt6RhQCANzeupbm2EEoCgGA6ELdRSgKAQC+aMmRxlh3EYpCAIBbhbucWhQCAHwxCEvDI4JQFAIAgtCIQgAgpPx8XdfVIUEoCgGAyEHYPjggCO80e7tFIQBQ+0H46UC/ILRSCAAIQiMKAQBbxkYUAgAxTxk7VCIKAYDgQXj+2lVBKAoBgMhB6B5CUQgABOYtY1EIAAT3zLFDglAUAgCRPdfclEbHxwWhKAQAolrX0iwIRSEAENmmtlYxKAoBgKjmFfalQm+3IBSFAEBU+ZWS4uWSIBSFAEBUXikRhQCAK2dcSi0KAYDI1hSPOmEsCgEAJ4yNKAQAnDA2ohAAiHmgpH1wQBCKQgAg8veD3jAWhQBAUHPf3ZPqzrSJQVEIAETlQmpRCAAEt+RIo/sHRSEAENmGEy3uHxSFAEDk7eKmUq8YFIUAQFTrWpqdLhaFAEDk1cHGCz1iUBQCAFHluwcdJhGFAEDg1cHcGopLFAIAQT1z7FA6f+2qIKyW2dstCgGAqTOvsM/LJFYKAYDo3w5aHRSFAEDgbwcLvd1iUBQCABHNfXdPeuWTonsHRSEAENXCw4VUvFwSg6IQAIh6kGRTW6s3i0UhABD5mpmuq0NiUBQCAFG3iht6usSgKAQAom4Vb+k4aatYFAIAkU8Ve69YFAIAQT3X3JTaBwfEoCgEAKJ+N9hU6hWDohAAiCi/RpLfKvbdoCj0BwEAQWMw3zfoNRIjCgFADBojCgFADBojCgFADBojCgGg9mMwXzwtBo0oBIDAp4nFoBGFABD0nsH8u+5qGSMKASCgZ44dSoXebiFoRCEARLSmeDQVL5fEoBGFABDN3Hf3pHUtzd4mNqIQAKJ+L5hPEpeGR8SgEYUAEMm8wr7yqmBzny1iIwoBIOTBkfrODlfKGFEIABHvFtxwosW3gkYUAkDEEHzlk2JqKvW6W9CIQgAQgsaIQgAQgsaIQgAQgsaIQgCoEflS6XxqeFNba/kKGSFoRCEABJEvlM6rgQ09Xa6PMaIQAKLIl0k/19yU6s60uTrGiEIAiLIdnFcC84si+SLpj/v7bAkbUQgAEbaC1xSPlt8XPnrpou1gE2/2dotCAGIGYD4U0nihJ5WGRwSgMVYKAajV7d98LUz+BjA/H5d/72wBGyMKAajxOwHzdTD5JHD+/i9fCWP71xhRCECNnfjN2705+vKhj7zlm8Mvb/t+OtAv/ozxTSEA1RB0eRUvR1225EhjOe7y93w58PK2bo68fMVLXqQo9HaXD3nk2Dt/7argM2YmJ39cm5/gAYD7VbxcKodcvrsv/66IOWOqa/4/tk3Uk1ReVDsAAAAASUVORK5CYII=;" parent="1" vertex="1">
          <mxGeometry x="720" y="370" width="21.25" height="26.55" as="geometry" />
        </mxCell>
        <mxCell id="xPIOmPR7IvFUon5ZPcdo-16" value="" style="shape=image;verticalLabelPosition=bottom;labelBackgroundColor=default;verticalAlign=top;aspect=fixed;imageAspect=0;image=data:image/png,iVBORw0KGgoAAAANSUhEUgAAAoUAAAMmCAYAAACD1vsgAAAnwklEQVR42u3dTWzV153w8ayeXbcz0rNA0QgpChpFyqRdRKwGkNqyAKFGFQkoREMqaCaVWpWGtonULiLEptGjorQNTN9cSjIOUF5nDMnVyKnAgQRrrhQnmIBlAzY2hosxtsEv8nlyLjWFBAgGv9x7f5+f9FnPTDrO/fac/znnoYeMMcYYY4zJc6jnagKYTu+fv5Y+uHAtFUvD6XjfSDp1ZTSdHhhN3UNjZaXhkTQ4NpZGx8fL/JvZGGNmKQr/8a12gIoxd8fp9NjuM2nRga60rHAurXyvJ73Q1JvWf3gxvfZRX9rc2p+2nrqSDnYOlaMzB6Z/mxtjjCgEKHty/9lyRE7E4872gfIKZV6N9G97Y4wRhQBpTn1HORrzquOrxUvlYMzb2barjTFGFALcWGG8ORbzd49i0RgjCgG4EYv5W8b8DWNeVfSLYYwRhQCU5W8WJ1YUHXAxxohCAMryKem89ZwPtuR/n/pVMcaIQgDK1+nkLee8kujUszFGFAJwY7s5ryLmC7z94hhjRCEA5a3miVVE3yMaY0QhAGX5W8R8sjk/++fXyBgjCgEQiMYYUQiAQDTGiEIA7iEQfYNojBGFAJTfbp44pOIJPmOMKASg/PxeflXlgwuuuTHGiEIA/nYPYt5edlG2MUYUAnDjJZWDnUPi0BgjCgFoT4sOdFk9NMaIQgD+/oJK/vawWBoWh8YYUQhAu61lY4woBODWgylbT11xrY0xRhQCcP1am9c+6vPdoTFGFAJw/btDcWiMEYUAiENjjCgEQBwaY0QhAOLQGCMKARCHxhhRCMCk4jC/kuJX0xhRCADlew5dgm2MKASAGy+kHO8bEYfGiEIAopu743T5e8PBMd8bGiMKAQhv0YGutLN9QBgaIwoBoD2tfK8nfXDhmjg0RhQCQHt6tXjJlrIxohAAbCkbIwoB4HOnlE9dGRWHxohCAFx87eJrY0QhANx0EOX98w6iGCMKAcBBFGNEIQDcfBDFc3nGiEIAuLFqODo+Lg6NEYUARLescM63hsaIQgC4Lr+j7FfZGFEIAOUTysXSsDg0RhQCEN3cHafda2iMKASA6/JrKKcHvIZijCgEILwn9591dY0xohAArrOdbIwoBICy9R9e9BKKMaIQAK7faeh0sjGiEADSY7vPpJ3tA8LQGFEIAC67NkYUAsBN19Z0D/nO0BhRCEB4iw50eTvZGFEIANdfQfGdoTGiEAB8Z2iMKASAW+8z9OtujCgEgLTyvR5haIwoBIDrB1D8yhsjCgGgfADFlTXGiEIAKPM0njGiEADK8u+dX31jRCEApIOdQ8LQGFEIAO0uuTZGFAKAMDRGFALATbaeuiIMjRGFANCeNrf2C0NjRCEACENjRCEA/M1rH/UJQ2NEIQAIQ2NEIQDYSjZGFAKAMDRGFAKA62qMEYUAIAyNEYUAcBdePjGiEAAoO9g5JAyNKAQAhKERhQDA3+TfS9VgRCEAkLqHxoShEYUAQHsaHR8XhkYUAkB0iw50iUIjCgGA9vRCU68wNKIQAGhPr33UJwyNKAQAvHpiRCEA8DdePTGiEABwh6ERhQDAdU/uP5uO940IQyMKASC6ZYVz7jA0ohAAaE/rP7woCo0oBADa0+bWfmFoRCEA0J4Odg4JQyMKAcDBk7Pp9MCoMDSiEACiW/lejyg0ohAAaE+vFi8JQyMKAQBP4RlRCAB8Zu6O0+mDC9eEoRGFABCdi62NKAQAfF9oRCEA4P5CIwoBgJssOtCVSsMjwtCIQgCIzvvIRhQCAGU72weEoRGFABCdZ/CMKAQAyl5o6hWFRhQCAO1pc2u/MDSiEACiy6+dHO9zGtmIQgAIb+V7PaLQiEIAwDayEYUAwGce230mnbriNLIRhQDgNLLTyEYUAgDZ1lNXhKERhQAQnUutjSgEAMq8jWxEIQBQ5m1kIwoBgPI2cmnYpdZGFAKAbWTbyEYUAgDZ++evCUMjCgEgOk/gGVEIADh0YkQhAHDdssI5UWhEIQDQnja39gtDIwoBwBU1Z1P30JgwNKIQAKJ7tXhJFBpRCADRzanvSMXSsDA0ohAAonuhqVcUGlEIALSng51DwtCIQgCIzoXWRhQCAFYLjSgEAKwWGlEIAFgtNKIQALBaaEQhAGC10IhCAMBqoRGFAIDVQiMKAQCrhUYUAgBWC40oBACsFhpRCADcg/x7rmqMKASA4NZ/eFEUGlEIANHNqe9Ip66MCkMjCgEguleLl0ShEYUAEN2T+8+mwbExYWhEIQBEt7m1XxQaUQgA0S060CUKjSgEAFxmbUQhAPCWy6yNKAQA/uaDC9eEoRGFABCdy6yNKAQA0mO7z7iexohCAKA9bT11RRQaUQgADpw4cGJEIQDwmeN9I8LQiEIAiO61j/pEoRGFABCdF06MKAQAyrxwYkQhAODOQiMKAYDrdxaWhh04MaIQANxZ6M5CIwoBAHcWGlEIAJSdujIqDI0oBIDoNrf2i0IjCgEgumWFc6LQiEIAwLN3RhQCALaQjSgEAGwhG1EIANxQLA0LQyMKASC61z7qE4VGFAKALWRbyEYUAgC2kI0oBABsIRtRCADYQjaiEAD4u9MD3kI2ohAAwtt66oooNKIQAKJ7oalXFBpRCADRPbb7jCg0ohAAaE8fXLgmDI0oBABX07iaxohCAHA1jatpjCgEALLS8IgwNKIQAKLb2T4gCo0oBIDo1n94URQaUQgA0T25/6woNKIQAPBdoRGFAMBnDnYOiUJRKAoBILpXi5dEoSgUhQAQnfsKjSgEANLcHadFoSgUhQBAezre57CJKPSHAADhbT11RRSKQn8IABCdS6xFoT8EACAtOtAlCkWhPwQAoD0Njo0JQ1EIAESXu0AdiUIAILjNrf2iUBQCANG90NQrCkUhAOCwicMmohAA4DOj4+PCUBQCANEVS8OiUBQCANF52UQUAgB42UQUAgA4bCIKAQA+M6e+QxSKQgCA9nS8b0QYikIAILqd7QOiUBQCANG9WrwkCkUhABCd5+5EIQBAWlY4JwpFIQAQ3ZP7z4pCUQgARDd3x2lRKAoBANpTadi1NKIQAAjPXYWiEAAg5UZQSqIQAAhu66krolAUAgDRvfZRnygUhQBAdOs/vCgKRSEAEN3K93pEoSgEAKJbdKBLFIpCACC6x3afEYWiEACIbk59hygUhQAA7WlwbEwYikIAILrTA6OiUBQCANF9cOGaKBSFAEB0BzuHRKEoBACi89SdKAQA8NSdKAQA8NSdKAQA+MwLTb2iUBQCANEtK5wThaIQABCFolAUAgDhLTrQJQpFIQAgCkWhKAQAwnty/1lRKAoBAFEoCkUhACAKRaEoBAB4bPcZUSgKAQBRKApFIQAQ3twdp0WhKAQARKEoFIUAQHhz6jtEoSgEAGgXhaIQALBSaKVQFAIAvin0TaEoBABwJY0oBAAQhaIQAMAzd6IQAOAziw50iUJRCACIQlEoCgGA8JYVzolCUQgAiEJRKAoBgPBWvtcjCkUhACAKRaEoBADCe6GpVxSKQgBAFIpCUQgAhLf+w4uiUBQCAKJQFIpCACC8V4uXRKEoBABEoSgUhQBAeJtb+0WhKAQAotvZPiAKRSEAEN0HF66JQlEIAETXPTQmCkUhABDZnPoOQSgKAYDontx/VhSKQgAgumWFc6JQFAIA0Xn3WBQCALi4WhQCALSnraeuiEJRCABEd7BzSBSKQgAguuN9I6JQFAIA0Q2OubhaFAIAoc3dcVoQikIAILpFB7pEoSgEAKJb+V6PKBSFAEB06z+8KApFIQAQ3ebWflEoCgGA6NxRKAoBAFL3kOtoRCEA4DoaIwoBgNiWFc6JQlEIADh57OSxKAQAnDx28lgUAgC8f/6aKBSFAEB0peERUSgKAYDIHtt9RhCKQgAgOm8ei0IAgPRq8ZIoFIUAQHQ72wdEoSgEAKIrloZFoSgEAKIbHR8XhaIQAIjsyf1nBaEo9IcAAE4eO3ksCv0hAEB4r33UJwpFoT8EAIjO83ai0B8CAAQ3p75DEIpCUQgAvif0PaEoFIUAEN7m1n5RKApFIQBEd7xvRBSKQlEIAJE9tvuMIDSiEACie6GpVxQaUQgA0W09dUUUGlEIANGdHhgVhUYUAkBkiw50CUIjCgEguvUfXhSFRhQCQHQHO4dEoRGFABBZftquNOx+QiMKASA0T9sZUQgApNc+6hOFRhQCQHTvn78mCo0oBIDIntx/VhAaUQgArqJxFY0RhQDgKhpX0RhRCAC2jhWQEYUAYOtYFBpRCAC2jm0dG1EIALaOjRGFAGDrWP0YUQgAto5FoRGFAGDr2BhRCAC2jo0RhQBg61j5mDvOsWPH0te+9rUpNX/+/Jq2YOGCsL65eHFVW7p0acX61lNPzapvL18+q1asWDGtnl21alatXr26oq1du/aBfOd7L6Yf/PgnZT/62c/T+o0b08u/+GXZT1//TfrZf2wr+/GbB254cW/zDc81fHrDssK58jbnnPoOIWfr2FR7FALAg8j/JS7Hao7MHJYTQZkDUjTaOjaiEABEo61jIwoB4P6icSIYcyzaOjZGFAIgFtN3X3qp/J1jDsX8DeNju8/YOjZGFAIQXT7olA/H5C3ovJq46EBXzUXh++eviUIjCgFgsjdo5BPVE9vOeTWxmredV77XIwiNKASAqdp2zt8nTmw7V9Nq4s72AVFoRCEATId8b2uOxImVxEo96ZxXOEfHx0WhEYUAMBPydvPEN4mVtNX82kd9gtCIQgCYrYMrE98j5jsTZzMKT10ZFYVGFAJAJWwzT5xsztvMc3ecnrEgfKGpVxAaUQgAlSi/EZ0Pq8zE1TeHeq6KQiMKAaAatpnXb9xY3mae6u8Q87a1wjGiEACqTH6SL68g5i3mqYjCraeuiEIjCgGg2r9BfJDVw/xs3+DYmCg0ohAAasGzq1bdWD2czD2IrxYvCUIjCgGg1uRn9yYuyr6XwynH+0ZEoRGFABDhDsQ7XW/jGhojCgEgmO++9NIXLsg+2DkkCo0oBICIli5dWl49zHcfqhojCgEguOffeD39+eRxYWhEIQBE9c3Fi9M/bN2cHtry/9Ijb9eV43B0fFwgGlEIAJE8veXX5SC8mTg0ohAAgn1TOLFKeDvi0IhCAAi6SigOjSgEgGCrhF/5w6/uKQonPPzW78WhEYUAEHGVUBwaUQgANepbTz11128JxaERhQAQwFN1v33gIBSHRhQCQBXLbyBP9lvCe5UPpLx37qwwFIUAQLRVwttZ/s6+dG5oUByKQgAg2irh5+X/OZta/teWsigEACKuEt5uS7mp55wwFIUAQCVYsWLFjK0S3mlL+fy1q+JQFAIA0VYJbSmLQgCggqxcu2ZWVwk/7/Fd22wpi0IAYKY9vX1bxQThzf790P/YUhaFAMBMWLtxQ0UG4YT8sootZVEIAEyjBQsXlE//VnIU3rylXLzYKwxFIQAw1Z5/4/WqCMLPbymXhkfEoSgEAKbCs6tWlbdmqy0KJ7aUPZcnCgGAKfD1+j9VZRDe7OX3/+pbQ1EIANTq4ZLJmL+33jvKohAAmKz58+dXzeGSyVx6vdt2sigEACZxJ+GWX9dUEH7+EMrg2Jg4FIUAwN18e/nyinq5ZDrkVdBPB/qFoSgEAGr5cMm9bif/+eRxYSgKAYDP++5LL4UIwpstf2ef7WRRCADc7OG3fh8uCrP8f7eXUEQhAFDjh0vuxf/57S/L7ycrM1EIAGGtXLum5g+X3Ktv7N+Rzl+7Kg5FIQDE89X6OkHoiTxRCAC2jYXg7dhOFoUAEOa0cf6WTgDe/bJrbyeLQgCoWd9cvDjsaeP7+c7QtTWiEABq0lN1vxV8k/D4rm3p3NCgMBSFAFA71m7cIPTu8wBK8XJJGIpCAKh+z65aVY4bkXf/z+M5mSwKAaDqRXnbeLovuvZusigEgKr1/Buvi7op9PL7fxWGohAAqu/6Ga+WTL3l7+xzMlkUAkD1XD/j1ZLpM39vfSoNjwhDUQgAlW319jfF2zTLdz5+3N8nDEUhAFSm9Rs3erXEyWRRCACRfed7L3q1xMlkUQgAkS1dutR3hLP4jWHdmTZhKAoBYPY9vX2bQJullcInGhvSw+/sTls6TgpDUQgAs+f7f/ydQJsl/3pwTzkIJwhDUQgAs+LlX/zSwZJZXCWcV9h3SxRmm9pahaEoBICZky+o9q5x5awSCkNRCAAz7tvLlztYMsvX0dxulVAYikIAmDHz589PX6//kzir0FXCm2040SIMRSEATA8vlsyuvGU/9917i0JhKAoBYFr89PXfOFhSJauEtpJFIQBMix/8+Cflb9mE2ey+eTzZIJxQ39khDEUhADyYZ1etcrCkEl4v+ZLDJXeTt5wLvd3CUBQCwP1ZsHCBgyUV4PFd2+47CG8Ow6ZSrzAUhQDgYEm1mnjO7kHlq2w+7u8ThqIQAO7dD+sFYbUeLrmbHJjtgwNJFPojB4AvtXFrnZPGFfyc3VSE4flrV5MoBADuGoROGtfmKuHNFh4upMGxsSQKAQBBWOFX0Ezmour78cyxQ2l0fDyJQgBAENbgFTSTEfLVE1EIALf3s//YVn5CTYxVSBDurZ+RIAx7ubUoBIAvWr9xoyAMcLjky+4wLF4uJVEIAEHl5+vyt2tiLMbhki87kdx1dSiJQgAI5jvfe1EQ1tD7xk4ki0IAmLRvL1+eHnnbe8ZRD5fczZri0do/kSwKAeBr6ZuLF6dHd3mtJPrhktAnkkUhAHwtPb5rmwirMPkqoHkVsEp4s73dZ5MoBIAatGDhgvJqlAhzuOReTyR/3N+XRCEA1NiWsSCsTPnbzkoLwptPJJeGR5IoBIAaOVQiCN1JeL+WHGmsvYMnohCAaFauXeOUsW3jKTmRLAoBwD2EBNs2vp1Nba1JFAJAlfnuSy95uq7Ct43/5cCuqorCrLmvRp7CE4UARLB244ZydIgv28bTcfCkJl48EYUA1Lrn33hdEFbBU3ZzDvylKqMwW9fSLAoBoJI9veXXosu28Yxo6OlKohAAKtBTdb8VXbaN3V8oCgGI7Ov1fxJcto1n3HPNTaIQACpBfrbuq/XuIKwWtbBt/Hl1Z9qSKAQAl1ITbNv48/JrLO2DA0kUAsAsWL9xo0upXVLtGTxRCEBk3//j79JX/vArsVUl8n9Wc9/dU9NRWJWvnYhCAKrVt556Kj29fZvQ8h1hRcrhW7xcRa+diEIAqtEPfvyTNH9vvciqMvk/swhBOGHh4UL1vHYiCgGoNj99/Te+H6zS62ciBeGEVz4pikIAmOrrZn5Y/6Yn67xaUnUaL/QkUQgAU2Dt2rVp2d7tAst3hF47EYUARL5u5vFdDpRUq0d3vRk6CCesKR4VhQBwvzZurUv/sHWzuHL9TE1o6OlKohAAJmH16tXpxd3bfT9o27jmtpEr9lJrUQhApXn5F79M39i/Q1RVuSf2vS0Eq+lSa1EIQCVdRv3z/XtsF3vGrqblt5HPX7uaRCEA3OEwyfJ39gmqGpCjXvzd3bqWZlEIADf75uLFDpPU2H2E8xp2Cr970NxXYU/giUIAZkt+qu7f/muXmHKwJKQlRxpFIQCxzZ8/v7w66Kk6B0uiq+/sSKIQgJDyyyR5ddBVMw6WcP2KmsGxsSQKAQjlp6//phwPIqr2Dpa4oPr+bTjRIgoBiGHFihUuonawhDvIQd11dSiJQgBq1oKFC6wOOlhCtbyLLAoBmA4/+tnP07K924WTgyXco6OXLiZRCEDNyG8Wr97+ZvrKH34lnGrYo7veFHJTbOHhwuy+iywKAZiqreLv//F3tooDyFcJibjpUXemTRQCUL3yE3Xf2L9DMDlpzBRcUVMaHkmiEICqu3MwbxU7VeykMTVwRY0oBGCy8nvFeavYiyROGjP15hX2zc5qoSgEYLJbxV+t992gIGQ6bWprFYUAVKbvvvRSenr7NlvFAf3z3nqhFuH5O1EIwJfFYP5uMB8wEEiunqGGVwtFIQBiEFfPWC0UhQDcNgZdPu3qmTkH/iLOZtmWjpOiEAAxyOwF4T/9t6tnKmW1cMZeORGFAGJQDDIh//+BIAz6yokoBIh9mlgM4nJqbyKLQgAxCIKwCtR3dohCAB7c/Pnz09qNG9LX6//knkFuSxBaLRSFADXs28uXp+ffeN0LJAjCGrC3+6woBOD+tojdMYjn62prtVAUAvClvrl4cXlVMG8Rix08X1ebCr3dSRQCcFvf+d6L5Stl8usTQgdBWNuWHGkUhQD83YKFCxwcQRAG1XihJ4lCgOCeXbUqff+Pv3NwBEEY2DPHDolCgIjWrl1bDsFle7e7W5AH8uiuN0VVjfi4vy+JQoAg3wkKQQQhd/LKJ0VRCFCrl0vna2RyCH5j/w4hiCDkruYV9qXBsbEkCgFqJAR/8OOfpB/Wv1kOQQdG8A0hs/r0nSgEmNlTwz/62c+FIIKQyrueRhQCTO9qYD4o8tPXf5Ne3L29HIJiBUFIRR44EYUAU2v16tW3RKDvAxGEVMWBE1EI8GBWrFiRXv7FL29EoPeGmU3zGnaKJQdORCHATPjWU0+l9Rs3liMwXxkjAqkE+ftUQRhT3Zk2UQgw3ZYuXVq+Kub5N15PT2/flubvrReBCEIqysLDBVEIMJWngvOF0fk94dXb3yyvAD6+a5vTwVS8/M2qIKR4uZREIcAkTwPnbwDztTD5ouiJ7wAffuv3AoOqk1et/+m/BSFTdOBEFAK1tuKXoy+v+uXv/jZurSv7+f496d/+a5eDIAhCatITjQ1pdHw8iUIgROzlAx75zr+8ypevfJmIvezl9/+a/v3Q/6Tl7+wrh1/e+s0/mnn71xYwtSavbM858BcxxC0aL/Q8eBTmf8kCTJe8apcPa+SYy6t3OeiyvH2b5dc98jZullfzshx3E4GX5QMe+YfQnX9E98jbdYKQ21rX0vxgUfjnk8f9kQGAIKQG7ix8oC1kUQgAXimhNjT0dIlCAHAHIdGtKR4VhQDgDkJsIT/As3eiEABcOUPt2H3urCgEAFfOEN1zzU2iEACq3dxd2wQhD2Tuu3tSaXgkiUIAcMKY4Oo7O0QhADhhjC3kJlEIAA6UYAt5z+QvshaFADA7vFBCRb2FLAoBwPeD1J5XPimKQgCoVC6kZqYsPFwQhQDg/kHYndoHB5IoBIAK8uiuNwUhM67uTJsoBADXzeBqmiZRCACum8HVNJO4mkYUAsDU81wdlaLQ2y0KAWA2tovn7v1PMUL1XU0jCgHAdjGuphGFAOB0MTWuNDySRCEAWB0kuIaeLlEIAFYHiW7DiRZRCABTLT9V5zAJ1WTJkUZRCABTyVN1VOt9hYNjY0kUAoCrZgiuqdQrCgHgQVcHHSah2m1qaxWFAPAgq4O2i6kFzxw7JAoBwOog0c0r7Lv7O8iiEACcLCaG4uWSKASAL/PI23W2iqlpWzpOikIAuBOvkhDFupZmUQgAtz1Ismub1UHCWHi4IAoBwOogLrHec+fDJqIQAAdJII6P+/tEIQAOktgqJrr6zg5RCICtYohuw4kWUQiArWLwsskhUQiAU8UQ3RONDaIQgNonBuHLnb92NYlCAGpSfqv4/+6zVQz3ovFCjygEoPYOkfhuEKbguTtRCEA1HyKxVQxT9NydKASg6mLQd4PwQJYcaRSFAIhBcAK5QRQC4HoZYHcaHBtLohAAMQjeQBaFAIhBiK6hp0sUAiAGwbU0J0UhAGIQonvlk6IoBMBpYojuueYmUQjA7Jl4gUQMwuxaeLggCgGYeY+8XedtYqgg8wr7RCEAM/u9oBiEylQaHkmiEADfC0JwzX0lUQjA9HwvmFcFxSBU4V2FohAAW8QQU31nhygEwKogRLeprVUUAmBVEKLbcKJFFAJw7x5+6/dWBaEGrWtpFoUAfPkJ4n/c4W5BCPOqiSgE4PPfCuYY9IMJtW/JkUZRCMCtEWhFEII/dScKAeKGoG8EwVN3ohBACAKk0fHxJAoBbA0D3j8WhQBWBIHoPh3oF4UAtXKhdI5AIQjcj6OXLopCAHcIAtEVertFIUA1rgYKQWAqNfR0iUKAajkkYlsYmC57u8+KQgARCES3+5woBJjV7WARCFSC+s4OUQgw3St/N/NNIFCJ6s60iUKAqdz2vTn6rPwBohCghuPv4bd+L/6AmrKl46QoBLjdd36PvF2XHt31Zpq79z/L4Sf+gFq2qa1VFAIxoy+v9s3dta1M9AGiUBQCNfCqx0TkTazuZf+8t/6WVT7RB3BnG060XI/CfAz58c/+2zLATHli39tp/mfhlv3rwT13NL+wr+xfDuxK8xp23og7gQcwDVGYb7H2DwQAIHgU5lus/QMBABCF/oEAAEQ/aCIKAQBEoSgEAAjsxuXVohAAIK4bz9yJQgCAuPL1hKIQAEAUikIAgOjyndWiEAAguIaeLlEIABBdobdbFAIARNdU6hWFAADRNfeVRCEAQHTtgwOiEAAgutLwiCgEAIjuoYkRhQAAMT3R2CAKAQCiW3i4IAoBAKJbcqRRFAIARLemeFQUAgBEt66lWRQCAES34USLKAQAiG5TW6soBACIru5MmygEAIiu0NstCgEAovu4v08UAgBENzg2JgoBACK75Yk7UQgAENMtr5mIQgCAmG55zUQUAgDEdMvF1aIQACCmLR0nRSEAQHQNPV2iEAAgulvuKBSFAAAxlYZHRCEAQGTzCvtuDUJRCAAQzxfuKBSFAADxrGtpFoUAANF94ToaUQgAEE9TqVcUAgA4eTwiCgEAInuiseGLQSgKAQBieebYIVEIABDdhhMtohAAILr6zg5RCAAQXfFySRQCAEQ3Oj5++yjc2y0KAQAiWHi4cPsgtFIIABDHbZ+3E4UAAA6ZiEIAgGA+HegXhQAAkc0r7LtzEIpCAIAYnmtuEoUAANFtamsVhQAA0TWVekUhAEBkc9/dkwbHxkQhAEBkS4403j0IRSEAQO175ZOiKAQAiC73nigEAAiuNDwiCgEAIlt4uPDlQSgKAQBq24YTLaIQACC6xgs9ohAAILJ8P+Ho+LgoBACI7EvfOxaFAAC1b0vHSVEIABDdpwP9ohAAILInGhvuPQhFIQBAbVrX0iwKAQCia+jpEoUAAJHlq2gGx8ZEIQBAZGuKRycXhKIQAKD25L4ThQAAto5FIQBAZJN6xUQUAgDUpvrODlEIAGDreEwUAgDYOr7PEYUAAMG3jkUhAICtY1EIAGDrWBQCANSK+7qwWhQCANSOeYV9aXR8XBQCAET2yifFBwtCUQgAUP2a+0qiEAAgsoWHCw8ehKIQAKC6bek4KQoBACLLdxOWhkdEIQBAZGuKR6cmCEUhAED1aujpEoUAAJE90djw4HcTikIAgOq24UTL1AVhnr3dohAAoNp8OtA/tVFopRAAoLo819w0tUEoCgEAqk/jhR5RCAAQ2ZS9YCIKAQCqV31nhygEAIhsyq+hEYUAANVnU1vr9AShKAQAqA5T+s6xKAQAqE6vfFKcviAUhQAA1WHKL6sWhQAA1WVaLqsWhQAA1aV4uSQKAQAie+bYoekPQlEIAGCVUBQCAFglFIUAAFYJRSEAgFVCUQgAYJVQFAIAWCUUhQAAVglFIQCAVUJRCABglVAUAgBUoDXFo7MThKIQAKAyzH13T2ofHBCFAACRbTjRMntBKAoBAGbfE40NaXBsTBQCAERWd6ZtdoNQFAIAzK6FhwtpdHxcFAIARNZ4oWf2g1AUAgDMnueamyojCEUhAMDsmPUraEQhAMDse+WTYuUEoSgEAJh5FXEFjSgEAJhdub8eqrQRhQAAM+eZY4cqLwhFIQBA4MMlohAAYOZtamutzCAUhQAAM6NiXi4RhQAAs+fj/r7KDUJRCAAw/SruTkJRCAAwsyryTkJRCAAws/Z2n638IMyT/xf1HxgAwNRbUzxaHUFopRAAYPq2jUvDI6IQACCyo5cuVk8QikIAgKm34URLdQWhKAQAmFpLjjRW9iXVohAAYHrNK+yr3LeNRSEAwMyo7+yoziAUhQAAU6Oqrp8RhQAAU69qXi0RhQAA02Puu3tS8XKpuoNQFAIAPJhNba3VH4SiEADg/lXt9TOiEABgauTrZ7quDtVGEIpCAID709DTVTtBKAoBACavKp+xE4UAAFPnmWOHauc7QlEIADB5Cw8Xqv8+QlEIAHD/8gXVNXWwRBQCAExOzVxQLQoBAO5f7qWHan1EIQBAsJPGohAA4N4919xUmyeNRSEAgJPGohAA4B5PGp+/djVOEIpCAIAvnjT+uL8vVhCKQgCAWxV6u+MFoSgEAPi7ujNtMYNQFAIABLt6RhQCANzeupbm2EEoCgGA6ELdRSgKAQC+aMmRxlh3EYpCAIBbhbucWhQCAHwxCEvDI4JQFAIAgtCIQgAgpPx8XdfVIUEoCgGAyEHYPjggCO80e7tFIQBQ+0H46UC/ILRSCAAIQiMKAQBbxkYUAgAxTxk7VCIKAYDgQXj+2lVBKAoBgMhB6B5CUQgABOYtY1EIAAT3zLFDglAUAgCRPdfclEbHxwWhKAQAolrX0iwIRSEAENmmtlYxKAoBgKjmFfalQm+3IBSFAEBU+ZWS4uWSIBSFAEBUXikRhQCAK2dcSi0KAYDI1hSPOmEsCgEAJ4yNKAQAnDA2ohAAiHmgpH1wQBCKQgAg8veD3jAWhQBAUHPf3ZPqzrSJQVEIAETlQmpRCAAEt+RIo/sHRSEAENmGEy3uHxSFAEDk7eKmUq8YFIUAQFTrWpqdLhaFAEDk1cHGCz1iUBQCAFHluwcdJhGFAEDg1cHcGopLFAIAQT1z7FA6f+2qIKyW2dstCgGAqTOvsM/LJFYKAYDo3w5aHRSFAEDgbwcLvd1iUBQCABHNfXdPeuWTonsHRSEAENXCw4VUvFwSg6IQAIh6kGRTW6s3i0UhABD5mpmuq0NiUBQCAFG3iht6usSgKAQAom4Vb+k4aatYFAIAkU8Ve69YFAIAQT3X3JTaBwfEoCgEAKJ+N9hU6hWDohAAiCi/RpLfKvbdoCj0BwEAQWMw3zfoNRIjCgFADBojCgFADBojCgFADBojCgGg9mMwXzwtBo0oBIDAp4nFoBGFABD0nsH8u+5qGSMKASCgZ44dSoXebiFoRCEARLSmeDQVL5fEoBGFABDN3Hf3pHUtzd4mNqIQAKJ+L5hPEpeGR8SgEYUAEMm8wr7yqmBzny1iIwoBIOTBkfrODlfKGFEIABHvFtxwosW3gkYUAkDEEHzlk2JqKvW6W9CIQgAQgsaIQgAQgsaIQgAQgsaIQgCoEflS6XxqeFNba/kKGSFoRCEABJEvlM6rgQ09Xa6PMaIQAKLIl0k/19yU6s60uTrGiEIAiLIdnFcC84si+SLpj/v7bAkbUQgAEbaC1xSPlt8XPnrpou1gE2/2dotCAGIGYD4U0nihJ5WGRwSgMVYKAajV7d98LUz+BjA/H5d/72wBGyMKAajxOwHzdTD5JHD+/i9fCWP71xhRCECNnfjN2705+vKhj7zlm8Mvb/t+OtAv/ozxTSEA1RB0eRUvR1225EhjOe7y93w58PK2bo68fMVLXqQo9HaXD3nk2Dt/7argM2YmJ39cm5/gAYD7VbxcKodcvrsv/66IOWOqa/4/tk3Uk1ReVDsAAAAASUVORK5CYII=;" parent="1" vertex="1">
          <mxGeometry x="910" y="370" width="21.25" height="26.55" as="geometry" />
        </mxCell>
        <mxCell id="xPIOmPR7IvFUon5ZPcdo-17" value="" style="shape=image;verticalLabelPosition=bottom;labelBackgroundColor=default;verticalAlign=top;aspect=fixed;imageAspect=0;image=data:image/png,iVBORw0KGgoAAAANSUhEUgAAAoUAAAMmCAYAAACD1vsgAAAnwklEQVR42u3dTWzV153w8ayeXbcz0rNA0QgpChpFyqRdRKwGkNqyAKFGFQkoREMqaCaVWpWGtonULiLEptGjorQNTN9cSjIOUF5nDMnVyKnAgQRrrhQnmIBlAzY2hosxtsEv8nlyLjWFBAgGv9x7f5+f9FnPTDrO/fac/znnoYeMMcYYY4zJc6jnagKYTu+fv5Y+uHAtFUvD6XjfSDp1ZTSdHhhN3UNjZaXhkTQ4NpZGx8fL/JvZGGNmKQr/8a12gIoxd8fp9NjuM2nRga60rHAurXyvJ73Q1JvWf3gxvfZRX9rc2p+2nrqSDnYOlaMzB6Z/mxtjjCgEKHty/9lyRE7E4872gfIKZV6N9G97Y4wRhQBpTn1HORrzquOrxUvlYMzb2barjTFGFALcWGG8ORbzd49i0RgjCgG4EYv5W8b8DWNeVfSLYYwRhQCU5W8WJ1YUHXAxxohCAMryKem89ZwPtuR/n/pVMcaIQgDK1+nkLee8kujUszFGFAJwY7s5ryLmC7z94hhjRCEA5a3miVVE3yMaY0QhAGX5W8R8sjk/++fXyBgjCgEQiMYYUQiAQDTGiEIA7iEQfYNojBGFAJTfbp44pOIJPmOMKASg/PxeflXlgwuuuTHGiEIA/nYPYt5edlG2MUYUAnDjJZWDnUPi0BgjCgFoT4sOdFk9NMaIQgD+/oJK/vawWBoWh8YYUQhAu61lY4woBODWgylbT11xrY0xRhQCcP1am9c+6vPdoTFGFAJw/btDcWiMEYUAiENjjCgEQBwaY0QhAOLQGCMKARCHxhhRCMCk4jC/kuJX0xhRCADlew5dgm2MKASAGy+kHO8bEYfGiEIAopu743T5e8PBMd8bGiMKAQhv0YGutLN9QBgaIwoBoD2tfK8nfXDhmjg0RhQCQHt6tXjJlrIxohAAbCkbIwoB4HOnlE9dGRWHxohCAFx87eJrY0QhANx0EOX98w6iGCMKAcBBFGNEIQDcfBDFc3nGiEIAuLFqODo+Lg6NEYUARLescM63hsaIQgC4Lr+j7FfZGFEIAOUTysXSsDg0RhQCEN3cHafda2iMKASA6/JrKKcHvIZijCgEILwn9591dY0xohAArrOdbIwoBICy9R9e9BKKMaIQAK7faeh0sjGiEADSY7vPpJ3tA8LQGFEIAC67NkYUAsBN19Z0D/nO0BhRCEB4iw50eTvZGFEIANdfQfGdoTGiEAB8Z2iMKASAW+8z9OtujCgEgLTyvR5haIwoBIDrB1D8yhsjCgGgfADFlTXGiEIAKPM0njGiEADK8u+dX31jRCEApIOdQ8LQGFEIAO0uuTZGFAKAMDRGFALATbaeuiIMjRGFANCeNrf2C0NjRCEACENjRCEA/M1rH/UJQ2NEIQAIQ2NEIQDYSjZGFAKAMDRGFAKA62qMEYUAIAyNEYUAcBdePjGiEAAoO9g5JAyNKAQAhKERhQDA3+TfS9VgRCEAkLqHxoShEYUAQHsaHR8XhkYUAkB0iw50iUIjCgGA9vRCU68wNKIQAGhPr33UJwyNKAQAvHpiRCEA8DdePTGiEABwh6ERhQDAdU/uP5uO940IQyMKASC6ZYVz7jA0ohAAaE/rP7woCo0oBADa0+bWfmFoRCEA0J4Odg4JQyMKAcDBk7Pp9MCoMDSiEACiW/lejyg0ohAAaE+vFi8JQyMKAQBP4RlRCAB8Zu6O0+mDC9eEoRGFABCdi62NKAQAfF9oRCEA4P5CIwoBgJssOtCVSsMjwtCIQgCIzvvIRhQCAGU72weEoRGFABCdZ/CMKAQAyl5o6hWFRhQCAO1pc2u/MDSiEACiy6+dHO9zGtmIQgAIb+V7PaLQiEIAwDayEYUAwGce230mnbriNLIRhQDgNLLTyEYUAgDZ1lNXhKERhQAQnUutjSgEAMq8jWxEIQBQ5m1kIwoBgPI2cmnYpdZGFAKAbWTbyEYUAgDZ++evCUMjCgEgOk/gGVEIADh0YkQhAHDdssI5UWhEIQDQnja39gtDIwoBwBU1Z1P30JgwNKIQAKJ7tXhJFBpRCADRzanvSMXSsDA0ohAAonuhqVcUGlEIALSng51DwtCIQgCIzoXWRhQCAFYLjSgEAKwWGlEIAFgtNKIQALBaaEQhAGC10IhCAMBqoRGFAIDVQiMKAQCrhUYUAgBWC40oBACsFhpRCADcg/x7rmqMKASA4NZ/eFEUGlEIANHNqe9Ip66MCkMjCgEguleLl0ShEYUAEN2T+8+mwbExYWhEIQBEt7m1XxQaUQgA0S060CUKjSgEAFxmbUQhAPCWy6yNKAQA/uaDC9eEoRGFABCdy6yNKAQA0mO7z7iexohCAKA9bT11RRQaUQgADpw4cGJEIQDwmeN9I8LQiEIAiO61j/pEoRGFABCdF06MKAQAyrxwYkQhAODOQiMKAYDrdxaWhh04MaIQANxZ6M5CIwoBAHcWGlEIAJSdujIqDI0oBIDoNrf2i0IjCgEgumWFc6LQiEIAwLN3RhQCALaQjSgEAGwhG1EIANxQLA0LQyMKASC61z7qE4VGFAKALWRbyEYUAgC2kI0oBABsIRtRCADYQjaiEAD4u9MD3kI2ohAAwtt66oooNKIQAKJ7oalXFBpRCADRPbb7jCg0ohAAaE8fXLgmDI0oBABX07iaxohCAHA1jatpjCgEALLS8IgwNKIQAKLb2T4gCo0oBIDo1n94URQaUQgA0T25/6woNKIQAPBdoRGFAMBnDnYOiUJRKAoBILpXi5dEoSgUhQAQnfsKjSgEANLcHadFoSgUhQBAezre57CJKPSHAADhbT11RRSKQn8IABCdS6xFoT8EACAtOtAlCkWhPwQAoD0Njo0JQ1EIAESXu0AdiUIAILjNrf2iUBQCANG90NQrCkUhAOCwicMmohAA4DOj4+PCUBQCANEVS8OiUBQCANF52UQUAgB42UQUAgA4bCIKAQA+M6e+QxSKQgCA9nS8b0QYikIAILqd7QOiUBQCANG9WrwkCkUhABCd5+5EIQBAWlY4JwpFIQAQ3ZP7z4pCUQgARDd3x2lRKAoBANpTadi1NKIQAAjPXYWiEAAg5UZQSqIQAAhu66krolAUAgDRvfZRnygUhQBAdOs/vCgKRSEAEN3K93pEoSgEAKJbdKBLFIpCACC6x3afEYWiEACIbk59hygUhQAA7WlwbEwYikIAILrTA6OiUBQCANF9cOGaKBSFAEB0BzuHRKEoBACi89SdKAQA8NSdKAQA8NSdKAQA+MwLTb2iUBQCANEtK5wThaIQABCFolAUAgDhLTrQJQpFIQAgCkWhKAQAwnty/1lRKAoBAFEoCkUhACAKRaEoBAB4bPcZUSgKAQBRKApFIQAQ3twdp0WhKAQARKEoFIUAQHhz6jtEoSgEAGgXhaIQALBSaKVQFAIAvin0TaEoBABwJY0oBAAQhaIQAMAzd6IQAOAziw50iUJRCACIQlEoCgGA8JYVzolCUQgAiEJRKAoBgPBWvtcjCkUhACAKRaEoBADCe6GpVxSKQgBAFIpCUQgAhLf+w4uiUBQCAKJQFIpCACC8V4uXRKEoBABEoSgUhQBAeJtb+0WhKAQAotvZPiAKRSEAEN0HF66JQlEIAETXPTQmCkUhABDZnPoOQSgKAYDontx/VhSKQgAgumWFc6JQFAIA0Xn3WBQCALi4WhQCALSnraeuiEJRCABEd7BzSBSKQgAguuN9I6JQFAIA0Q2OubhaFAIAoc3dcVoQikIAILpFB7pEoSgEAKJb+V6PKBSFAEB06z+8KApFIQAQ3ebWflEoCgGA6NxRKAoBAFL3kOtoRCEA4DoaIwoBgNiWFc6JQlEIADh57OSxKAQAnDx28lgUAgC8f/6aKBSFAEB0peERUSgKAYDIHtt9RhCKQgAgOm8ei0IAgPRq8ZIoFIUAQHQ72wdEoSgEAKIrloZFoSgEAKIbHR8XhaIQAIjsyf1nBaEo9IcAAE4eO3ksCv0hAEB4r33UJwpFoT8EAIjO83ai0B8CAAQ3p75DEIpCUQgAvif0PaEoFIUAEN7m1n5RKApFIQBEd7xvRBSKQlEIAJE9tvuMIDSiEACie6GpVxQaUQgA0W09dUUUGlEIANGdHhgVhUYUAkBkiw50CUIjCgEguvUfXhSFRhQCQHQHO4dEoRGFABBZftquNOx+QiMKASA0T9sZUQgApNc+6hOFRhQCQHTvn78mCo0oBIDIntx/VhAaUQgArqJxFY0RhQDgKhpX0RhRCAC2jhWQEYUAYOtYFBpRCAC2jm0dG1EIALaOjRGFAGDrWP0YUQgAto5FoRGFAGDr2BhRCAC2jo0RhQBg61j5mDvOsWPH0te+9rUpNX/+/Jq2YOGCsL65eHFVW7p0acX61lNPzapvL18+q1asWDGtnl21alatXr26oq1du/aBfOd7L6Yf/PgnZT/62c/T+o0b08u/+GXZT1//TfrZf2wr+/GbB254cW/zDc81fHrDssK58jbnnPoOIWfr2FR7FALAg8j/JS7Hao7MHJYTQZkDUjTaOjaiEABEo61jIwoB4P6icSIYcyzaOjZGFAIgFtN3X3qp/J1jDsX8DeNju8/YOjZGFAIQXT7olA/H5C3ovJq46EBXzUXh++eviUIjCgFgsjdo5BPVE9vOeTWxmredV77XIwiNKASAqdp2zt8nTmw7V9Nq4s72AVFoRCEATId8b2uOxImVxEo96ZxXOEfHx0WhEYUAMBPydvPEN4mVtNX82kd9gtCIQgCYrYMrE98j5jsTZzMKT10ZFYVGFAJAJWwzT5xsztvMc3ecnrEgfKGpVxAaUQgAlSi/EZ0Pq8zE1TeHeq6KQiMKAaAatpnXb9xY3mae6u8Q87a1wjGiEACqTH6SL68g5i3mqYjCraeuiEIjCgGg2r9BfJDVw/xs3+DYmCg0ohAAasGzq1bdWD2czD2IrxYvCUIjCgGg1uRn9yYuyr6XwynH+0ZEoRGFABDhDsQ7XW/jGhojCgEgmO++9NIXLsg+2DkkCo0oBICIli5dWl49zHcfqhojCgEguOffeD39+eRxYWhEIQBE9c3Fi9M/bN2cHtry/9Ijb9eV43B0fFwgGlEIAJE8veXX5SC8mTg0ohAAgn1TOLFKeDvi0IhCAAi6SigOjSgEgGCrhF/5w6/uKQonPPzW78WhEYUAEHGVUBwaUQgANepbTz11128JxaERhQAQwFN1v33gIBSHRhQCQBXLbyBP9lvCe5UPpLx37qwwFIUAQLRVwttZ/s6+dG5oUByKQgAg2irh5+X/OZta/teWsigEACKuEt5uS7mp55wwFIUAQCVYsWLFjK0S3mlL+fy1q+JQFAIA0VYJbSmLQgCggqxcu2ZWVwk/7/Fd22wpi0IAYKY9vX1bxQThzf790P/YUhaFAMBMWLtxQ0UG4YT8sootZVEIAEyjBQsXlE//VnIU3rylXLzYKwxFIQAw1Z5/4/WqCMLPbymXhkfEoSgEAKbCs6tWlbdmqy0KJ7aUPZcnCgGAKfD1+j9VZRDe7OX3/+pbQ1EIANTq4ZLJmL+33jvKohAAmKz58+dXzeGSyVx6vdt2sigEACZxJ+GWX9dUEH7+EMrg2Jg4FIUAwN18e/nyinq5ZDrkVdBPB/qFoSgEAGr5cMm9bif/+eRxYSgKAYDP++5LL4UIwpstf2ef7WRRCADc7OG3fh8uCrP8f7eXUEQhAFDjh0vuxf/57S/L7ycrM1EIAGGtXLum5g+X3Ktv7N+Rzl+7Kg5FIQDE89X6OkHoiTxRCAC2jYXg7dhOFoUAEOa0cf6WTgDe/bJrbyeLQgCoWd9cvDjsaeP7+c7QtTWiEABq0lN1vxV8k/D4rm3p3NCgMBSFAFA71m7cIPTu8wBK8XJJGIpCAKh+z65aVY4bkXf/z+M5mSwKAaDqRXnbeLovuvZusigEgKr1/Buvi7op9PL7fxWGohAAqu/6Ga+WTL3l7+xzMlkUAkD1XD/j1ZLpM39vfSoNjwhDUQgAlW319jfF2zTLdz5+3N8nDEUhAFSm9Rs3erXEyWRRCACRfed7L3q1xMlkUQgAkS1dutR3hLP4jWHdmTZhKAoBYPY9vX2bQJullcInGhvSw+/sTls6TgpDUQgAs+f7f/ydQJsl/3pwTzkIJwhDUQgAs+LlX/zSwZJZXCWcV9h3SxRmm9pahaEoBICZky+o9q5x5awSCkNRCAAz7tvLlztYMsvX0dxulVAYikIAmDHz589PX6//kzir0FXCm2040SIMRSEATA8vlsyuvGU/9917i0JhKAoBYFr89PXfOFhSJauEtpJFIQBMix/8+Cflb9mE2ey+eTzZIJxQ39khDEUhADyYZ1etcrCkEl4v+ZLDJXeTt5wLvd3CUBQCwP1ZsHCBgyUV4PFd2+47CG8Ow6ZSrzAUhQDgYEm1mnjO7kHlq2w+7u8ThqIQAO7dD+sFYbUeLrmbHJjtgwNJFPojB4AvtXFrnZPGFfyc3VSE4flrV5MoBADuGoROGtfmKuHNFh4upMGxsSQKAQBBWOFX0Ezmour78cyxQ2l0fDyJQgBAENbgFTSTEfLVE1EIALf3s//YVn5CTYxVSBDurZ+RIAx7ubUoBIAvWr9xoyAMcLjky+4wLF4uJVEIAEHl5+vyt2tiLMbhki87kdx1dSiJQgAI5jvfe1EQ1tD7xk4ki0IAmLRvL1+eHnnbe8ZRD5fczZri0do/kSwKAeBr6ZuLF6dHd3mtJPrhktAnkkUhAHwtPb5rmwirMPkqoHkVsEp4s73dZ5MoBIAatGDhgvJqlAhzuOReTyR/3N+XRCEA1NiWsSCsTPnbzkoLwptPJJeGR5IoBIAaOVQiCN1JeL+WHGmsvYMnohCAaFauXeOUsW3jKTmRLAoBwD2EBNs2vp1Nba1JFAJAlfnuSy95uq7Ct43/5cCuqorCrLmvRp7CE4UARLB244ZydIgv28bTcfCkJl48EYUA1Lrn33hdEFbBU3ZzDvylKqMwW9fSLAoBoJI9veXXosu28Yxo6OlKohAAKtBTdb8VXbaN3V8oCgGI7Ov1fxJcto1n3HPNTaIQACpBfrbuq/XuIKwWtbBt/Hl1Z9qSKAQAl1ITbNv48/JrLO2DA0kUAsAsWL9xo0upXVLtGTxRCEBk3//j79JX/vArsVUl8n9Wc9/dU9NRWJWvnYhCAKrVt556Kj29fZvQ8h1hRcrhW7xcRa+diEIAqtEPfvyTNH9vvciqMvk/swhBOGHh4UL1vHYiCgGoNj99/Te+H6zS62ciBeGEVz4pikIAmOrrZn5Y/6Yn67xaUnUaL/QkUQgAU2Dt2rVp2d7tAst3hF47EYUARL5u5vFdDpRUq0d3vRk6CCesKR4VhQBwvzZurUv/sHWzuHL9TE1o6OlKohAAJmH16tXpxd3bfT9o27jmtpEr9lJrUQhApXn5F79M39i/Q1RVuSf2vS0Eq+lSa1EIQCVdRv3z/XtsF3vGrqblt5HPX7uaRCEA3OEwyfJ39gmqGpCjXvzd3bqWZlEIADf75uLFDpPU2H2E8xp2Cr970NxXYU/giUIAZkt+qu7f/muXmHKwJKQlRxpFIQCxzZ8/v7w66Kk6B0uiq+/sSKIQgJDyyyR5ddBVMw6WcP2KmsGxsSQKAQjlp6//phwPIqr2Dpa4oPr+bTjRIgoBiGHFihUuonawhDvIQd11dSiJQgBq1oKFC6wOOlhCtbyLLAoBmA4/+tnP07K924WTgyXco6OXLiZRCEDNyG8Wr97+ZvrKH34lnGrYo7veFHJTbOHhwuy+iywKAZiqreLv//F3tooDyFcJibjpUXemTRQCUL3yE3Xf2L9DMDlpzBRcUVMaHkmiEICqu3MwbxU7VeykMTVwRY0oBGCy8nvFeavYiyROGjP15hX2zc5qoSgEYLJbxV+t992gIGQ6bWprFYUAVKbvvvRSenr7NlvFAf3z3nqhFuH5O1EIwJfFYP5uMB8wEEiunqGGVwtFIQBiEFfPWC0UhQDcNgZdPu3qmTkH/iLOZtmWjpOiEAAxyOwF4T/9t6tnKmW1cMZeORGFAGJQDDIh//+BIAz6yokoBIh9mlgM4nJqbyKLQgAxCIKwCtR3dohCAB7c/Pnz09qNG9LX6//knkFuSxBaLRSFADXs28uXp+ffeN0LJAjCGrC3+6woBOD+tojdMYjn62prtVAUAvClvrl4cXlVMG8Rix08X1ebCr3dSRQCcFvf+d6L5Stl8usTQgdBWNuWHGkUhQD83YKFCxwcQRAG1XihJ4lCgOCeXbUqff+Pv3NwBEEY2DPHDolCgIjWrl1bDsFle7e7W5AH8uiuN0VVjfi4vy+JQoAg3wkKQQQhd/LKJ0VRCFCrl0vna2RyCH5j/w4hiCDkruYV9qXBsbEkCgFqJAR/8OOfpB/Wv1kOQQdG8A0hs/r0nSgEmNlTwz/62c+FIIKQyrueRhQCTO9qYD4o8tPXf5Ne3L29HIJiBUFIRR44EYUAU2v16tW3RKDvAxGEVMWBE1EI8GBWrFiRXv7FL29EoPeGmU3zGnaKJQdORCHATPjWU0+l9Rs3liMwXxkjAqkE+ftUQRhT3Zk2UQgw3ZYuXVq+Kub5N15PT2/flubvrReBCEIqysLDBVEIMJWngvOF0fk94dXb3yyvAD6+a5vTwVS8/M2qIKR4uZREIcAkTwPnbwDztTD5ouiJ7wAffuv3AoOqk1et/+m/BSFTdOBEFAK1tuKXoy+v+uXv/jZurSv7+f496d/+a5eDIAhCatITjQ1pdHw8iUIgROzlAx75zr+8ypevfJmIvezl9/+a/v3Q/6Tl7+wrh1/e+s0/mnn71xYwtSavbM858BcxxC0aL/Q8eBTmf8kCTJe8apcPa+SYy6t3OeiyvH2b5dc98jZullfzshx3E4GX5QMe+YfQnX9E98jbdYKQ21rX0vxgUfjnk8f9kQGAIKQG7ix8oC1kUQgAXimhNjT0dIlCAHAHIdGtKR4VhQDgDkJsIT/As3eiEABcOUPt2H3urCgEAFfOEN1zzU2iEACq3dxd2wQhD2Tuu3tSaXgkiUIAcMKY4Oo7O0QhADhhjC3kJlEIAA6UYAt5z+QvshaFADA7vFBCRb2FLAoBwPeD1J5XPimKQgCoVC6kZqYsPFwQhQDg/kHYndoHB5IoBIAK8uiuNwUhM67uTJsoBADXzeBqmiZRCACum8HVNJO4mkYUAsDU81wdlaLQ2y0KAWA2tovn7v1PMUL1XU0jCgHAdjGuphGFAOB0MTWuNDySRCEAWB0kuIaeLlEIAFYHiW7DiRZRCABTLT9V5zAJ1WTJkUZRCABTyVN1VOt9hYNjY0kUAoCrZgiuqdQrCgHgQVcHHSah2m1qaxWFAPAgq4O2i6kFzxw7JAoBwOog0c0r7Lv7O8iiEACcLCaG4uWSKASAL/PI23W2iqlpWzpOikIAuBOvkhDFupZmUQgAtz1Ismub1UHCWHi4IAoBwOogLrHec+fDJqIQAAdJII6P+/tEIQAOktgqJrr6zg5RCICtYohuw4kWUQiArWLwsskhUQiAU8UQ3RONDaIQgNonBuHLnb92NYlCAGpSfqv4/+6zVQz3ovFCjygEoPYOkfhuEKbguTtRCEA1HyKxVQxT9NydKASg6mLQd4PwQJYcaRSFAIhBcAK5QRQC4HoZYHcaHBtLohAAMQjeQBaFAIhBiK6hp0sUAiAGwbU0J0UhAGIQonvlk6IoBMBpYojuueYmUQjA7Jl4gUQMwuxaeLggCgGYeY+8XedtYqgg8wr7RCEAM/u9oBiEylQaHkmiEADfC0JwzX0lUQjA9HwvmFcFxSBU4V2FohAAW8QQU31nhygEwKogRLeprVUUAmBVEKLbcKJFFAJw7x5+6/dWBaEGrWtpFoUAfPkJ4n/c4W5BCPOqiSgE4PPfCuYY9IMJtW/JkUZRCMCtEWhFEII/dScKAeKGoG8EwVN3ohBACAKk0fHxJAoBbA0D3j8WhQBWBIHoPh3oF4UAtXKhdI5AIQjcj6OXLopCAHcIAtEVertFIUA1rgYKQWAqNfR0iUKAajkkYlsYmC57u8+KQgARCES3+5woBJjV7WARCFSC+s4OUQgw3St/N/NNIFCJ6s60iUKAqdz2vTn6rPwBohCghuPv4bd+L/6AmrKl46QoBLjdd36PvF2XHt31Zpq79z/L4Sf+gFq2qa1VFAIxoy+v9s3dta1M9AGiUBQCNfCqx0TkTazuZf+8t/6WVT7RB3BnG060XI/CfAz58c/+2zLATHli39tp/mfhlv3rwT13NL+wr+xfDuxK8xp23og7gQcwDVGYb7H2DwQAIHgU5lus/QMBABCF/oEAAEQ/aCIKAQBEoSgEAAjsxuXVohAAIK4bz9yJQgCAuPL1hKIQAEAUikIAgOjyndWiEAAguIaeLlEIABBdobdbFAIARNdU6hWFAADRNfeVRCEAQHTtgwOiEAAgutLwiCgEAIjuoYkRhQAAMT3R2CAKAQCiW3i4IAoBAKJbcqRRFAIARLemeFQUAgBEt66lWRQCAES34USLKAQAiG5TW6soBACIru5MmygEAIiu0NstCgEAovu4v08UAgBENzg2JgoBACK75Yk7UQgAENMtr5mIQgCAmG55zUQUAgDEdMvF1aIQACCmLR0nRSEAQHQNPV2iEAAgulvuKBSFAAAxlYZHRCEAQGTzCvtuDUJRCAAQzxfuKBSFAADxrGtpFoUAANF94ToaUQgAEE9TqVcUAgA4eTwiCgEAInuiseGLQSgKAQBieebYIVEIABDdhhMtohAAILr6zg5RCAAQXfFySRQCAEQ3Oj5++yjc2y0KAQAiWHi4cPsgtFIIABDHbZ+3E4UAAA6ZiEIAgGA+HegXhQAAkc0r7LtzEIpCAIAYnmtuEoUAANFtamsVhQAA0TWVekUhAEBkc9/dkwbHxkQhAEBkS4403j0IRSEAQO175ZOiKAQAiC73nigEAAiuNDwiCgEAIlt4uPDlQSgKAQBq24YTLaIQACC6xgs9ohAAILJ8P+Ho+LgoBACI7EvfOxaFAAC1b0vHSVEIABDdpwP9ohAAILInGhvuPQhFIQBAbVrX0iwKAQCia+jpEoUAAJHlq2gGx8ZEIQBAZGuKRycXhKIQAKD25L4ThQAAto5FIQBAZJN6xUQUAgDUpvrODlEIAGDreEwUAgDYOr7PEYUAAMG3jkUhAICtY1EIAGDrWBQCANSK+7qwWhQCANSOeYV9aXR8XBQCAET2yifFBwtCUQgAUP2a+0qiEAAgsoWHCw8ehKIQAKC6bek4KQoBACLLdxOWhkdEIQBAZGuKR6cmCEUhAED1aujpEoUAAJE90djw4HcTikIAgOq24UTL1AVhnr3dohAAoNp8OtA/tVFopRAAoLo819w0tUEoCgEAqk/jhR5RCAAQ2ZS9YCIKAQCqV31nhygEAIhsyq+hEYUAANVnU1vr9AShKAQAqA5T+s6xKAQAqE6vfFKcviAUhQAA1WHKL6sWhQAA1WVaLqsWhQAA1aV4uSQKAQAie+bYoekPQlEIAGCVUBQCAFglFIUAAFYJRSEAgFVCUQgAYJVQFAIAWCUUhQAAVglFIQCAVUJRCABglVAUAgBUoDXFo7MThKIQAKAyzH13T2ofHBCFAACRbTjRMntBKAoBAGbfE40NaXBsTBQCAERWd6ZtdoNQFAIAzK6FhwtpdHxcFAIARNZ4oWf2g1AUAgDMnueamyojCEUhAMDsmPUraEQhAMDse+WTYuUEoSgEAJh5FXEFjSgEAJhdub8eqrQRhQAAM+eZY4cqLwhFIQBA4MMlohAAYOZtamutzCAUhQAAM6NiXi4RhQAAs+fj/r7KDUJRCAAw/SruTkJRCAAwsyryTkJRCAAws/Z2n638IMyT/xf1HxgAwNRbUzxaHUFopRAAYPq2jUvDI6IQACCyo5cuVk8QikIAgKm34URLdQWhKAQAmFpLjjRW9iXVohAAYHrNK+yr3LeNRSEAwMyo7+yoziAUhQAAU6Oqrp8RhQAAU69qXi0RhQAA02Puu3tS8XKpuoNQFAIAPJhNba3VH4SiEADg/lXt9TOiEABgauTrZ7quDtVGEIpCAID709DTVTtBKAoBACavKp+xE4UAAFPnmWOHauc7QlEIADB5Cw8Xqv8+QlEIAHD/8gXVNXWwRBQCAExOzVxQLQoBAO5f7qWHan1EIQBAsJPGohAA4N4919xUmyeNRSEAgJPGohAA4B5PGp+/djVOEIpCAIAvnjT+uL8vVhCKQgCAWxV6u+MFoSgEAPi7ujNtMYNQFAIABLt6RhQCANzeupbm2EEoCgGA6ELdRSgKAQC+aMmRxlh3EYpCAIBbhbucWhQCAHwxCEvDI4JQFAIAgtCIQgAgpPx8XdfVIUEoCgGAyEHYPjggCO80e7tFIQBQ+0H46UC/ILRSCAAIQiMKAQBbxkYUAgAxTxk7VCIKAYDgQXj+2lVBKAoBgMhB6B5CUQgABOYtY1EIAAT3zLFDglAUAgCRPdfclEbHxwWhKAQAolrX0iwIRSEAENmmtlYxKAoBgKjmFfalQm+3IBSFAEBU+ZWS4uWSIBSFAEBUXikRhQCAK2dcSi0KAYDI1hSPOmEsCgEAJ4yNKAQAnDA2ohAAiHmgpH1wQBCKQgAg8veD3jAWhQBAUHPf3ZPqzrSJQVEIAETlQmpRCAAEt+RIo/sHRSEAENmGEy3uHxSFAEDk7eKmUq8YFIUAQFTrWpqdLhaFAEDk1cHGCz1iUBQCAFHluwcdJhGFAEDg1cHcGopLFAIAQT1z7FA6f+2qIKyW2dstCgGAqTOvsM/LJFYKAYDo3w5aHRSFAEDgbwcLvd1iUBQCABHNfXdPeuWTonsHRSEAENXCw4VUvFwSg6IQAIh6kGRTW6s3i0UhABD5mpmuq0NiUBQCAFG3iht6usSgKAQAom4Vb+k4aatYFAIAkU8Ve69YFAIAQT3X3JTaBwfEoCgEAKJ+N9hU6hWDohAAiCi/RpLfKvbdoCj0BwEAQWMw3zfoNRIjCgFADBojCgFADBojCgFADBojCgGg9mMwXzwtBo0oBIDAp4nFoBGFABD0nsH8u+5qGSMKASCgZ44dSoXebiFoRCEARLSmeDQVL5fEoBGFABDN3Hf3pHUtzd4mNqIQAKJ+L5hPEpeGR8SgEYUAEMm8wr7yqmBzny1iIwoBIOTBkfrODlfKGFEIABHvFtxwosW3gkYUAkDEEHzlk2JqKvW6W9CIQgAQgsaIQgAQgsaIQgAQgsaIQgCoEflS6XxqeFNba/kKGSFoRCEABJEvlM6rgQ09Xa6PMaIQAKLIl0k/19yU6s60uTrGiEIAiLIdnFcC84si+SLpj/v7bAkbUQgAEbaC1xSPlt8XPnrpou1gE2/2dotCAGIGYD4U0nihJ5WGRwSgMVYKAajV7d98LUz+BjA/H5d/72wBGyMKAajxOwHzdTD5JHD+/i9fCWP71xhRCECNnfjN2705+vKhj7zlm8Mvb/t+OtAv/ozxTSEA1RB0eRUvR1225EhjOe7y93w58PK2bo68fMVLXqQo9HaXD3nk2Dt/7argM2YmJ39cm5/gAYD7VbxcKodcvrsv/66IOWOqa/4/tk3Uk1ReVDsAAAAASUVORK5CYII=;" parent="1" vertex="1">
          <mxGeometry x="1100" y="370" width="21.25" height="26.55" as="geometry" />
        </mxCell>
        <mxCell id="S8oN9HsD-SmAMap5PSNZ-15" style="edgeStyle=orthogonalEdgeStyle;rounded=0;orthogonalLoop=1;jettySize=auto;html=1;exitX=1;exitY=0.5;exitDx=0;exitDy=0;entryX=0.376;entryY=1.008;entryDx=0;entryDy=0;entryPerimeter=0;" parent="1" source="S8oN9HsD-SmAMap5PSNZ-1" target="dulSs8EgE7Bo_tsadKai-80" edge="1">
          <mxGeometry relative="1" as="geometry">
            <Array as="points">
              <mxPoint x="200" y="245" />
              <mxPoint x="200" y="280" />
              <mxPoint x="693" y="280" />
            </Array>
          </mxGeometry>
        </mxCell>
        <mxCell id="S8oN9HsD-SmAMap5PSNZ-16" value="HTTP" style="edgeLabel;html=1;align=center;verticalAlign=middle;resizable=0;points=[];" parent="S8oN9HsD-SmAMap5PSNZ-15" vertex="1" connectable="0">
          <mxGeometry x="0.422" y="1" relative="1" as="geometry">
            <mxPoint x="-346" as="offset" />
          </mxGeometry>
        </mxCell>
        <mxCell id="S8oN9HsD-SmAMap5PSNZ-17" style="edgeStyle=orthogonalEdgeStyle;rounded=0;orthogonalLoop=1;jettySize=auto;html=1;exitX=0.25;exitY=0;exitDx=0;exitDy=0;entryX=0.996;entryY=0.791;entryDx=0;entryDy=0;entryPerimeter=0;" parent="1" source="S8oN9HsD-SmAMap5PSNZ-1" target="A7bG10cvLb7iZubDScCu-14" edge="1">
          <mxGeometry relative="1" as="geometry">
            <Array as="points">
              <mxPoint x="85" y="150" />
              <mxPoint x="30" y="150" />
              <mxPoint x="30" y="-160" />
              <mxPoint x="1610" y="-160" />
              <mxPoint x="1610" y="690" />
            </Array>
          </mxGeometry>
        </mxCell>
        <mxCell id="S8oN9HsD-SmAMap5PSNZ-18" value="UDP" style="edgeLabel;html=1;align=center;verticalAlign=middle;resizable=0;points=[];" parent="S8oN9HsD-SmAMap5PSNZ-17" vertex="1" connectable="0">
          <mxGeometry x="0.9402" relative="1" as="geometry">
            <mxPoint as="offset" />
          </mxGeometry>
        </mxCell>
        <mxCell id="S8oN9HsD-SmAMap5PSNZ-1" value="" style="rounded=1;whiteSpace=wrap;html=1;fillColor=none;" parent="1" vertex="1">
          <mxGeometry x="50" y="175" width="140" height="140" as="geometry" />
        </mxCell>
        <mxCell id="S8oN9HsD-SmAMap5PSNZ-2" value="" style="shape=image;verticalLabelPosition=bottom;labelBackgroundColor=default;verticalAlign=top;aspect=fixed;imageAspect=0;image=https://cdn.icon-icons.com/icons2/2699/PNG/512/golang_logo_icon_171073.png;" parent="1" vertex="1">
          <mxGeometry x="64" y="195" width="100" height="100" as="geometry" />
        </mxCell>
        <mxCell id="S8oN9HsD-SmAMap5PSNZ-3" value="recaptcha-service" style="text;html=1;strokeColor=#006EAF;fillColor=#1ba1e2;align=center;verticalAlign=middle;whiteSpace=wrap;rounded=0;fontSize=15;fontColor=#ffffff;" parent="1" vertex="1">
          <mxGeometry x="58.75" y="275" width="122.5" height="20" as="geometry" />
        </mxCell>
        <mxCell id="S8oN9HsD-SmAMap5PSNZ-4" value="" style="image;sketch=0;aspect=fixed;html=1;points=[];align=center;fontSize=12;image=img/lib/mscae/Docker.svg;" parent="1" vertex="1">
          <mxGeometry x="64" y="185" width="36.59" height="30" as="geometry" />
        </mxCell>
        <mxCell id="S8oN9HsD-SmAMap5PSNZ-5" value="" style="shape=image;verticalLabelPosition=bottom;labelBackgroundColor=default;verticalAlign=top;aspect=fixed;imageAspect=0;image=data:image/png,iVBORw0KGgoAAAANSUhEUgAAAoUAAAMmCAYAAACD1vsgAAAnwklEQVR42u3dTWzV153w8ayeXbcz0rNA0QgpChpFyqRdRKwGkNqyAKFGFQkoREMqaCaVWpWGtonULiLEptGjorQNTN9cSjIOUF5nDMnVyKnAgQRrrhQnmIBlAzY2hosxtsEv8nlyLjWFBAgGv9x7f5+f9FnPTDrO/fac/znnoYeMMcYYY4zJc6jnagKYTu+fv5Y+uHAtFUvD6XjfSDp1ZTSdHhhN3UNjZaXhkTQ4NpZGx8fL/JvZGGNmKQr/8a12gIoxd8fp9NjuM2nRga60rHAurXyvJ73Q1JvWf3gxvfZRX9rc2p+2nrqSDnYOlaMzB6Z/mxtjjCgEKHty/9lyRE7E4872gfIKZV6N9G97Y4wRhQBpTn1HORrzquOrxUvlYMzb2barjTFGFALcWGG8ORbzd49i0RgjCgG4EYv5W8b8DWNeVfSLYYwRhQCU5W8WJ1YUHXAxxohCAMryKem89ZwPtuR/n/pVMcaIQgDK1+nkLee8kujUszFGFAJwY7s5ryLmC7z94hhjRCEA5a3miVVE3yMaY0QhAGX5W8R8sjk/++fXyBgjCgEQiMYYUQiAQDTGiEIA7iEQfYNojBGFAJTfbp44pOIJPmOMKASg/PxeflXlgwuuuTHGiEIA/nYPYt5edlG2MUYUAnDjJZWDnUPi0BgjCgFoT4sOdFk9NMaIQgD+/oJK/vawWBoWh8YYUQhAu61lY4woBODWgylbT11xrY0xRhQCcP1am9c+6vPdoTFGFAJw/btDcWiMEYUAiENjjCgEQBwaY0QhAOLQGCMKARCHxhhRCMCk4jC/kuJX0xhRCADlew5dgm2MKASAGy+kHO8bEYfGiEIAopu743T5e8PBMd8bGiMKAQhv0YGutLN9QBgaIwoBoD2tfK8nfXDhmjg0RhQCQHt6tXjJlrIxohAAbCkbIwoB4HOnlE9dGRWHxohCAFx87eJrY0QhANx0EOX98w6iGCMKAcBBFGNEIQDcfBDFc3nGiEIAuLFqODo+Lg6NEYUARLescM63hsaIQgC4Lr+j7FfZGFEIAOUTysXSsDg0RhQCEN3cHafda2iMKASA6/JrKKcHvIZijCgEILwn9591dY0xohAArrOdbIwoBICy9R9e9BKKMaIQAK7faeh0sjGiEADSY7vPpJ3tA8LQGFEIAC67NkYUAsBN19Z0D/nO0BhRCEB4iw50eTvZGFEIANdfQfGdoTGiEAB8Z2iMKASAW+8z9OtujCgEgLTyvR5haIwoBIDrB1D8yhsjCgGgfADFlTXGiEIAKPM0njGiEADK8u+dX31jRCEApIOdQ8LQGFEIAO0uuTZGFAKAMDRGFALATbaeuiIMjRGFANCeNrf2C0NjRCEACENjRCEA/M1rH/UJQ2NEIQAIQ2NEIQDYSjZGFAKAMDRGFAKA62qMEYUAIAyNEYUAcBdePjGiEAAoO9g5JAyNKAQAhKERhQDA3+TfS9VgRCEAkLqHxoShEYUAQHsaHR8XhkYUAkB0iw50iUIjCgGA9vRCU68wNKIQAGhPr33UJwyNKAQAvHpiRCEA8DdePTGiEABwh6ERhQDAdU/uP5uO940IQyMKASC6ZYVz7jA0ohAAaE/rP7woCo0oBADa0+bWfmFoRCEA0J4Odg4JQyMKAcDBk7Pp9MCoMDSiEACiW/lejyg0ohAAaE+vFi8JQyMKAQBP4RlRCAB8Zu6O0+mDC9eEoRGFABCdi62NKAQAfF9oRCEA4P5CIwoBgJssOtCVSsMjwtCIQgCIzvvIRhQCAGU72weEoRGFABCdZ/CMKAQAyl5o6hWFRhQCAO1pc2u/MDSiEACiy6+dHO9zGtmIQgAIb+V7PaLQiEIAwDayEYUAwGce230mnbriNLIRhQDgNLLTyEYUAgDZ1lNXhKERhQAQnUutjSgEAMq8jWxEIQBQ5m1kIwoBgPI2cmnYpdZGFAKAbWTbyEYUAgDZ++evCUMjCgEgOk/gGVEIADh0YkQhAHDdssI5UWhEIQDQnja39gtDIwoBwBU1Z1P30JgwNKIQAKJ7tXhJFBpRCADRzanvSMXSsDA0ohAAonuhqVcUGlEIALSng51DwtCIQgCIzoXWRhQCAFYLjSgEAKwWGlEIAFgtNKIQALBaaEQhAGC10IhCAMBqoRGFAIDVQiMKAQCrhUYUAgBWC40oBACsFhpRCADcg/x7rmqMKASA4NZ/eFEUGlEIANHNqe9Ip66MCkMjCgEguleLl0ShEYUAEN2T+8+mwbExYWhEIQBEt7m1XxQaUQgA0S060CUKjSgEAFxmbUQhAPCWy6yNKAQA/uaDC9eEoRGFABCdy6yNKAQA0mO7z7iexohCAKA9bT11RRQaUQgADpw4cGJEIQDwmeN9I8LQiEIAiO61j/pEoRGFABCdF06MKAQAyrxwYkQhAODOQiMKAYDrdxaWhh04MaIQANxZ6M5CIwoBAHcWGlEIAJSdujIqDI0oBIDoNrf2i0IjCgEgumWFc6LQiEIAwLN3RhQCALaQjSgEAGwhG1EIANxQLA0LQyMKASC61z7qE4VGFAKALWRbyEYUAgC2kI0oBABsIRtRCADYQjaiEAD4u9MD3kI2ohAAwtt66oooNKIQAKJ7oalXFBpRCADRPbb7jCg0ohAAaE8fXLgmDI0oBABX07iaxohCAHA1jatpjCgEALLS8IgwNKIQAKLb2T4gCo0oBIDo1n94URQaUQgA0T25/6woNKIQAPBdoRGFAMBnDnYOiUJRKAoBILpXi5dEoSgUhQAQnfsKjSgEANLcHadFoSgUhQBAezre57CJKPSHAADhbT11RRSKQn8IABCdS6xFoT8EACAtOtAlCkWhPwQAoD0Njo0JQ1EIAESXu0AdiUIAILjNrf2iUBQCANG90NQrCkUhAOCwicMmohAA4DOj4+PCUBQCANEVS8OiUBQCANF52UQUAgB42UQUAgA4bCIKAQA+M6e+QxSKQgCA9nS8b0QYikIAILqd7QOiUBQCANG9WrwkCkUhABCd5+5EIQBAWlY4JwpFIQAQ3ZP7z4pCUQgARDd3x2lRKAoBANpTadi1NKIQAAjPXYWiEAAg5UZQSqIQAAhu66krolAUAgDRvfZRnygUhQBAdOs/vCgKRSEAEN3K93pEoSgEAKJbdKBLFIpCACC6x3afEYWiEACIbk59hygUhQAA7WlwbEwYikIAILrTA6OiUBQCANF9cOGaKBSFAEB0BzuHRKEoBACi89SdKAQA8NSdKAQA8NSdKAQA+MwLTb2iUBQCANEtK5wThaIQABCFolAUAgDhLTrQJQpFIQAgCkWhKAQAwnty/1lRKAoBAFEoCkUhACAKRaEoBAB4bPcZUSgKAQBRKApFIQAQ3twdp0WhKAQARKEoFIUAQHhz6jtEoSgEAGgXhaIQALBSaKVQFAIAvin0TaEoBABwJY0oBAAQhaIQAMAzd6IQAOAziw50iUJRCACIQlEoCgGA8JYVzolCUQgAiEJRKAoBgPBWvtcjCkUhACAKRaEoBADCe6GpVxSKQgBAFIpCUQgAhLf+w4uiUBQCAKJQFIpCACC8V4uXRKEoBABEoSgUhQBAeJtb+0WhKAQAotvZPiAKRSEAEN0HF66JQlEIAETXPTQmCkUhABDZnPoOQSgKAYDontx/VhSKQgAgumWFc6JQFAIA0Xn3WBQCALi4WhQCALSnraeuiEJRCABEd7BzSBSKQgAguuN9I6JQFAIA0Q2OubhaFAIAoc3dcVoQikIAILpFB7pEoSgEAKJb+V6PKBSFAEB06z+8KApFIQAQ3ebWflEoCgGA6NxRKAoBAFL3kOtoRCEA4DoaIwoBgNiWFc6JQlEIADh57OSxKAQAnDx28lgUAgC8f/6aKBSFAEB0peERUSgKAYDIHtt9RhCKQgAgOm8ei0IAgPRq8ZIoFIUAQHQ72wdEoSgEAKIrloZFoSgEAKIbHR8XhaIQAIjsyf1nBaEo9IcAAE4eO3ksCv0hAEB4r33UJwpFoT8EAIjO83ai0B8CAAQ3p75DEIpCUQgAvif0PaEoFIUAEN7m1n5RKApFIQBEd7xvRBSKQlEIAJE9tvuMIDSiEACie6GpVxQaUQgA0W09dUUUGlEIANGdHhgVhUYUAkBkiw50CUIjCgEguvUfXhSFRhQCQHQHO4dEoRGFABBZftquNOx+QiMKASA0T9sZUQgApNc+6hOFRhQCQHTvn78mCo0oBIDIntx/VhAaUQgArqJxFY0RhQDgKhpX0RhRCAC2jhWQEYUAYOtYFBpRCAC2jm0dG1EIALaOjRGFAGDrWP0YUQgAto5FoRGFAGDr2BhRCAC2jo0RhQBg61j5mDvOsWPH0te+9rUpNX/+/Jq2YOGCsL65eHFVW7p0acX61lNPzapvL18+q1asWDGtnl21alatXr26oq1du/aBfOd7L6Yf/PgnZT/62c/T+o0b08u/+GXZT1//TfrZf2wr+/GbB254cW/zDc81fHrDssK58jbnnPoOIWfr2FR7FALAg8j/JS7Hao7MHJYTQZkDUjTaOjaiEABEo61jIwoB4P6icSIYcyzaOjZGFAIgFtN3X3qp/J1jDsX8DeNju8/YOjZGFAIQXT7olA/H5C3ovJq46EBXzUXh++eviUIjCgFgsjdo5BPVE9vOeTWxmredV77XIwiNKASAqdp2zt8nTmw7V9Nq4s72AVFoRCEATId8b2uOxImVxEo96ZxXOEfHx0WhEYUAMBPydvPEN4mVtNX82kd9gtCIQgCYrYMrE98j5jsTZzMKT10ZFYVGFAJAJWwzT5xsztvMc3ecnrEgfKGpVxAaUQgAlSi/EZ0Pq8zE1TeHeq6KQiMKAaAatpnXb9xY3mae6u8Q87a1wjGiEACqTH6SL68g5i3mqYjCraeuiEIjCgGg2r9BfJDVw/xs3+DYmCg0ohAAasGzq1bdWD2czD2IrxYvCUIjCgGg1uRn9yYuyr6XwynH+0ZEoRGFABDhDsQ7XW/jGhojCgEgmO++9NIXLsg+2DkkCo0oBICIli5dWl49zHcfqhojCgEguOffeD39+eRxYWhEIQBE9c3Fi9M/bN2cHtry/9Ijb9eV43B0fFwgGlEIAJE8veXX5SC8mTg0ohAAgn1TOLFKeDvi0IhCAAi6SigOjSgEgGCrhF/5w6/uKQonPPzW78WhEYUAEHGVUBwaUQgANepbTz11128JxaERhQAQwFN1v33gIBSHRhQCQBXLbyBP9lvCe5UPpLx37qwwFIUAQLRVwttZ/s6+dG5oUByKQgAg2irh5+X/OZta/teWsigEACKuEt5uS7mp55wwFIUAQCVYsWLFjK0S3mlL+fy1q+JQFAIA0VYJbSmLQgCggqxcu2ZWVwk/7/Fd22wpi0IAYKY9vX1bxQThzf790P/YUhaFAMBMWLtxQ0UG4YT8sootZVEIAEyjBQsXlE//VnIU3rylXLzYKwxFIQAw1Z5/4/WqCMLPbymXhkfEoSgEAKbCs6tWlbdmqy0KJ7aUPZcnCgGAKfD1+j9VZRDe7OX3/+pbQ1EIANTq4ZLJmL+33jvKohAAmKz58+dXzeGSyVx6vdt2sigEACZxJ+GWX9dUEH7+EMrg2Jg4FIUAwN18e/nyinq5ZDrkVdBPB/qFoSgEAGr5cMm9bif/+eRxYSgKAYDP++5LL4UIwpstf2ef7WRRCADc7OG3fh8uCrP8f7eXUEQhAFDjh0vuxf/57S/L7ycrM1EIAGGtXLum5g+X3Ktv7N+Rzl+7Kg5FIQDE89X6OkHoiTxRCAC2jYXg7dhOFoUAEOa0cf6WTgDe/bJrbyeLQgCoWd9cvDjsaeP7+c7QtTWiEABq0lN1vxV8k/D4rm3p3NCgMBSFAFA71m7cIPTu8wBK8XJJGIpCAKh+z65aVY4bkXf/z+M5mSwKAaDqRXnbeLovuvZusigEgKr1/Buvi7op9PL7fxWGohAAqu/6Ga+WTL3l7+xzMlkUAkD1XD/j1ZLpM39vfSoNjwhDUQgAlW319jfF2zTLdz5+3N8nDEUhAFSm9Rs3erXEyWRRCACRfed7L3q1xMlkUQgAkS1dutR3hLP4jWHdmTZhKAoBYPY9vX2bQJullcInGhvSw+/sTls6TgpDUQgAs+f7f/ydQJsl/3pwTzkIJwhDUQgAs+LlX/zSwZJZXCWcV9h3SxRmm9pahaEoBICZky+o9q5x5awSCkNRCAAz7tvLlztYMsvX0dxulVAYikIAmDHz589PX6//kzir0FXCm2040SIMRSEATA8vlsyuvGU/9917i0JhKAoBYFr89PXfOFhSJauEtpJFIQBMix/8+Cflb9mE2ey+eTzZIJxQ39khDEUhADyYZ1etcrCkEl4v+ZLDJXeTt5wLvd3CUBQCwP1ZsHCBgyUV4PFd2+47CG8Ow6ZSrzAUhQDgYEm1mnjO7kHlq2w+7u8ThqIQAO7dD+sFYbUeLrmbHJjtgwNJFPojB4AvtXFrnZPGFfyc3VSE4flrV5MoBADuGoROGtfmKuHNFh4upMGxsSQKAQBBWOFX0Ezmour78cyxQ2l0fDyJQgBAENbgFTSTEfLVE1EIALf3s//YVn5CTYxVSBDurZ+RIAx7ubUoBIAvWr9xoyAMcLjky+4wLF4uJVEIAEHl5+vyt2tiLMbhki87kdx1dSiJQgAI5jvfe1EQ1tD7xk4ki0IAmLRvL1+eHnnbe8ZRD5fczZri0do/kSwKAeBr6ZuLF6dHd3mtJPrhktAnkkUhAHwtPb5rmwirMPkqoHkVsEp4s73dZ5MoBIAatGDhgvJqlAhzuOReTyR/3N+XRCEA1NiWsSCsTPnbzkoLwptPJJeGR5IoBIAaOVQiCN1JeL+WHGmsvYMnohCAaFauXeOUsW3jKTmRLAoBwD2EBNs2vp1Nba1JFAJAlfnuSy95uq7Ct43/5cCuqorCrLmvRp7CE4UARLB244ZydIgv28bTcfCkJl48EYUA1Lrn33hdEFbBU3ZzDvylKqMwW9fSLAoBoJI9veXXosu28Yxo6OlKohAAKtBTdb8VXbaN3V8oCgGI7Ov1fxJcto1n3HPNTaIQACpBfrbuq/XuIKwWtbBt/Hl1Z9qSKAQAl1ITbNv48/JrLO2DA0kUAsAsWL9xo0upXVLtGTxRCEBk3//j79JX/vArsVUl8n9Wc9/dU9NRWJWvnYhCAKrVt556Kj29fZvQ8h1hRcrhW7xcRa+diEIAqtEPfvyTNH9vvciqMvk/swhBOGHh4UL1vHYiCgGoNj99/Te+H6zS62ciBeGEVz4pikIAmOrrZn5Y/6Yn67xaUnUaL/QkUQgAU2Dt2rVp2d7tAst3hF47EYUARL5u5vFdDpRUq0d3vRk6CCesKR4VhQBwvzZurUv/sHWzuHL9TE1o6OlKohAAJmH16tXpxd3bfT9o27jmtpEr9lJrUQhApXn5F79M39i/Q1RVuSf2vS0Eq+lSa1EIQCVdRv3z/XtsF3vGrqblt5HPX7uaRCEA3OEwyfJ39gmqGpCjXvzd3bqWZlEIADf75uLFDpPU2H2E8xp2Cr970NxXYU/giUIAZkt+qu7f/muXmHKwJKQlRxpFIQCxzZ8/v7w66Kk6B0uiq+/sSKIQgJDyyyR5ddBVMw6WcP2KmsGxsSQKAQjlp6//phwPIqr2Dpa4oPr+bTjRIgoBiGHFihUuonawhDvIQd11dSiJQgBq1oKFC6wOOlhCtbyLLAoBmA4/+tnP07K924WTgyXco6OXLiZRCEDNyG8Wr97+ZvrKH34lnGrYo7veFHJTbOHhwuy+iywKAZiqreLv//F3tooDyFcJibjpUXemTRQCUL3yE3Xf2L9DMDlpzBRcUVMaHkmiEICqu3MwbxU7VeykMTVwRY0oBGCy8nvFeavYiyROGjP15hX2zc5qoSgEYLJbxV+t992gIGQ6bWprFYUAVKbvvvRSenr7NlvFAf3z3nqhFuH5O1EIwJfFYP5uMB8wEEiunqGGVwtFIQBiEFfPWC0UhQDcNgZdPu3qmTkH/iLOZtmWjpOiEAAxyOwF4T/9t6tnKmW1cMZeORGFAGJQDDIh//+BIAz6yokoBIh9mlgM4nJqbyKLQgAxCIKwCtR3dohCAB7c/Pnz09qNG9LX6//knkFuSxBaLRSFADXs28uXp+ffeN0LJAjCGrC3+6woBOD+tojdMYjn62prtVAUAvClvrl4cXlVMG8Rix08X1ebCr3dSRQCcFvf+d6L5Stl8usTQgdBWNuWHGkUhQD83YKFCxwcQRAG1XihJ4lCgOCeXbUqff+Pv3NwBEEY2DPHDolCgIjWrl1bDsFle7e7W5AH8uiuN0VVjfi4vy+JQoAg3wkKQQQhd/LKJ0VRCFCrl0vna2RyCH5j/w4hiCDkruYV9qXBsbEkCgFqJAR/8OOfpB/Wv1kOQQdG8A0hs/r0nSgEmNlTwz/62c+FIIKQyrueRhQCTO9qYD4o8tPXf5Ne3L29HIJiBUFIRR44EYUAU2v16tW3RKDvAxGEVMWBE1EI8GBWrFiRXv7FL29EoPeGmU3zGnaKJQdORCHATPjWU0+l9Rs3liMwXxkjAqkE+ftUQRhT3Zk2UQgw3ZYuXVq+Kub5N15PT2/flubvrReBCEIqysLDBVEIMJWngvOF0fk94dXb3yyvAD6+a5vTwVS8/M2qIKR4uZREIcAkTwPnbwDztTD5ouiJ7wAffuv3AoOqk1et/+m/BSFTdOBEFAK1tuKXoy+v+uXv/jZurSv7+f496d/+a5eDIAhCatITjQ1pdHw8iUIgROzlAx75zr+8ypevfJmIvezl9/+a/v3Q/6Tl7+wrh1/e+s0/mnn71xYwtSavbM858BcxxC0aL/Q8eBTmf8kCTJe8apcPa+SYy6t3OeiyvH2b5dc98jZullfzshx3E4GX5QMe+YfQnX9E98jbdYKQ21rX0vxgUfjnk8f9kQGAIKQG7ix8oC1kUQgAXimhNjT0dIlCAHAHIdGtKR4VhQDgDkJsIT/As3eiEABcOUPt2H3urCgEAFfOEN1zzU2iEACq3dxd2wQhD2Tuu3tSaXgkiUIAcMKY4Oo7O0QhADhhjC3kJlEIAA6UYAt5z+QvshaFADA7vFBCRb2FLAoBwPeD1J5XPimKQgCoVC6kZqYsPFwQhQDg/kHYndoHB5IoBIAK8uiuNwUhM67uTJsoBADXzeBqmiZRCACum8HVNJO4mkYUAsDU81wdlaLQ2y0KAWA2tovn7v1PMUL1XU0jCgHAdjGuphGFAOB0MTWuNDySRCEAWB0kuIaeLlEIAFYHiW7DiRZRCABTLT9V5zAJ1WTJkUZRCABTyVN1VOt9hYNjY0kUAoCrZgiuqdQrCgHgQVcHHSah2m1qaxWFAPAgq4O2i6kFzxw7JAoBwOog0c0r7Lv7O8iiEACcLCaG4uWSKASAL/PI23W2iqlpWzpOikIAuBOvkhDFupZmUQgAtz1Ismub1UHCWHi4IAoBwOogLrHec+fDJqIQAAdJII6P+/tEIQAOktgqJrr6zg5RCICtYohuw4kWUQiArWLwsskhUQiAU8UQ3RONDaIQgNonBuHLnb92NYlCAGpSfqv4/+6zVQz3ovFCjygEoPYOkfhuEKbguTtRCEA1HyKxVQxT9NydKASg6mLQd4PwQJYcaRSFAIhBcAK5QRQC4HoZYHcaHBtLohAAMQjeQBaFAIhBiK6hp0sUAiAGwbU0J0UhAGIQonvlk6IoBMBpYojuueYmUQjA7Jl4gUQMwuxaeLggCgGYeY+8XedtYqgg8wr7RCEAM/u9oBiEylQaHkmiEADfC0JwzX0lUQjA9HwvmFcFxSBU4V2FohAAW8QQU31nhygEwKogRLeprVUUAmBVEKLbcKJFFAJw7x5+6/dWBaEGrWtpFoUAfPkJ4n/c4W5BCPOqiSgE4PPfCuYY9IMJtW/JkUZRCMCtEWhFEII/dScKAeKGoG8EwVN3ohBACAKk0fHxJAoBbA0D3j8WhQBWBIHoPh3oF4UAtXKhdI5AIQjcj6OXLopCAHcIAtEVertFIUA1rgYKQWAqNfR0iUKAajkkYlsYmC57u8+KQgARCES3+5woBJjV7WARCFSC+s4OUQgw3St/N/NNIFCJ6s60iUKAqdz2vTn6rPwBohCghuPv4bd+L/6AmrKl46QoBLjdd36PvF2XHt31Zpq79z/L4Sf+gFq2qa1VFAIxoy+v9s3dta1M9AGiUBQCNfCqx0TkTazuZf+8t/6WVT7RB3BnG060XI/CfAz58c/+2zLATHli39tp/mfhlv3rwT13NL+wr+xfDuxK8xp23og7gQcwDVGYb7H2DwQAIHgU5lus/QMBABCF/oEAAEQ/aCIKAQBEoSgEAAjsxuXVohAAIK4bz9yJQgCAuPL1hKIQAEAUikIAgOjyndWiEAAguIaeLlEIABBdobdbFAIARNdU6hWFAADRNfeVRCEAQHTtgwOiEAAgutLwiCgEAIjuoYkRhQAAMT3R2CAKAQCiW3i4IAoBAKJbcqRRFAIARLemeFQUAgBEt66lWRQCAES34USLKAQAiG5TW6soBACIru5MmygEAIiu0NstCgEAovu4v08UAgBENzg2JgoBACK75Yk7UQgAENMtr5mIQgCAmG55zUQUAgDEdMvF1aIQACCmLR0nRSEAQHQNPV2iEAAgulvuKBSFAAAxlYZHRCEAQGTzCvtuDUJRCAAQzxfuKBSFAADxrGtpFoUAANF94ToaUQgAEE9TqVcUAgA4eTwiCgEAInuiseGLQSgKAQBieebYIVEIABDdhhMtohAAILr6zg5RCAAQXfFySRQCAEQ3Oj5++yjc2y0KAQAiWHi4cPsgtFIIABDHbZ+3E4UAAA6ZiEIAgGA+HegXhQAAkc0r7LtzEIpCAIAYnmtuEoUAANFtamsVhQAA0TWVekUhAEBkc9/dkwbHxkQhAEBkS4403j0IRSEAQO175ZOiKAQAiC73nigEAAiuNDwiCgEAIlt4uPDlQSgKAQBq24YTLaIQACC6xgs9ohAAILJ8P+Ho+LgoBACI7EvfOxaFAAC1b0vHSVEIABDdpwP9ohAAILInGhvuPQhFIQBAbVrX0iwKAQCia+jpEoUAAJHlq2gGx8ZEIQBAZGuKRycXhKIQAKD25L4ThQAAto5FIQBAZJN6xUQUAgDUpvrODlEIAGDreEwUAgDYOr7PEYUAAMG3jkUhAICtY1EIAGDrWBQCANSK+7qwWhQCANSOeYV9aXR8XBQCAET2yifFBwtCUQgAUP2a+0qiEAAgsoWHCw8ehKIQAKC6bek4KQoBACLLdxOWhkdEIQBAZGuKR6cmCEUhAED1aujpEoUAAJE90djw4HcTikIAgOq24UTL1AVhnr3dohAAoNp8OtA/tVFopRAAoLo819w0tUEoCgEAqk/jhR5RCAAQ2ZS9YCIKAQCqV31nhygEAIhsyq+hEYUAANVnU1vr9AShKAQAqA5T+s6xKAQAqE6vfFKcviAUhQAA1WHKL6sWhQAA1WVaLqsWhQAA1aV4uSQKAQAie+bYoekPQlEIAGCVUBQCAFglFIUAAFYJRSEAgFVCUQgAYJVQFAIAWCUUhQAAVglFIQCAVUJRCABglVAUAgBUoDXFo7MThKIQAKAyzH13T2ofHBCFAACRbTjRMntBKAoBAGbfE40NaXBsTBQCAERWd6ZtdoNQFAIAzK6FhwtpdHxcFAIARNZ4oWf2g1AUAgDMnueamyojCEUhAMDsmPUraEQhAMDse+WTYuUEoSgEAJh5FXEFjSgEAJhdub8eqrQRhQAAM+eZY4cqLwhFIQBA4MMlohAAYOZtamutzCAUhQAAM6NiXi4RhQAAs+fj/r7KDUJRCAAw/SruTkJRCAAwsyryTkJRCAAws/Z2n638IMyT/xf1HxgAwNRbUzxaHUFopRAAYPq2jUvDI6IQACCyo5cuVk8QikIAgKm34URLdQWhKAQAmFpLjjRW9iXVohAAYHrNK+yr3LeNRSEAwMyo7+yoziAUhQAAU6Oqrp8RhQAAU69qXi0RhQAA02Puu3tS8XKpuoNQFAIAPJhNba3VH4SiEADg/lXt9TOiEABgauTrZ7quDtVGEIpCAID709DTVTtBKAoBACavKp+xE4UAAFPnmWOHauc7QlEIADB5Cw8Xqv8+QlEIAHD/8gXVNXWwRBQCAExOzVxQLQoBAO5f7qWHan1EIQBAsJPGohAA4N4919xUmyeNRSEAgJPGohAA4B5PGp+/djVOEIpCAIAvnjT+uL8vVhCKQgCAWxV6u+MFoSgEAPi7ujNtMYNQFAIABLt6RhQCANzeupbm2EEoCgGA6ELdRSgKAQC+aMmRxlh3EYpCAIBbhbucWhQCAHwxCEvDI4JQFAIAgtCIQgAgpPx8XdfVIUEoCgGAyEHYPjggCO80e7tFIQBQ+0H46UC/ILRSCAAIQiMKAQBbxkYUAgAxTxk7VCIKAYDgQXj+2lVBKAoBgMhB6B5CUQgABOYtY1EIAAT3zLFDglAUAgCRPdfclEbHxwWhKAQAolrX0iwIRSEAENmmtlYxKAoBgKjmFfalQm+3IBSFAEBU+ZWS4uWSIBSFAEBUXikRhQCAK2dcSi0KAYDI1hSPOmEsCgEAJ4yNKAQAnDA2ohAAiHmgpH1wQBCKQgAg8veD3jAWhQBAUHPf3ZPqzrSJQVEIAETlQmpRCAAEt+RIo/sHRSEAENmGEy3uHxSFAEDk7eKmUq8YFIUAQFTrWpqdLhaFAEDk1cHGCz1iUBQCAFHluwcdJhGFAEDg1cHcGopLFAIAQT1z7FA6f+2qIKyW2dstCgGAqTOvsM/LJFYKAYDo3w5aHRSFAEDgbwcLvd1iUBQCABHNfXdPeuWTonsHRSEAENXCw4VUvFwSg6IQAIh6kGRTW6s3i0UhABD5mpmuq0NiUBQCAFG3iht6usSgKAQAom4Vb+k4aatYFAIAkU8Ve69YFAIAQT3X3JTaBwfEoCgEAKJ+N9hU6hWDohAAiCi/RpLfKvbdoCj0BwEAQWMw3zfoNRIjCgFADBojCgFADBojCgFADBojCgGg9mMwXzwtBo0oBIDAp4nFoBGFABD0nsH8u+5qGSMKASCgZ44dSoXebiFoRCEARLSmeDQVL5fEoBGFABDN3Hf3pHUtzd4mNqIQAKJ+L5hPEpeGR8SgEYUAEMm8wr7yqmBzny1iIwoBIOTBkfrODlfKGFEIABHvFtxwosW3gkYUAkDEEHzlk2JqKvW6W9CIQgAQgsaIQgAQgsaIQgAQgsaIQgCoEflS6XxqeFNba/kKGSFoRCEABJEvlM6rgQ09Xa6PMaIQAKLIl0k/19yU6s60uTrGiEIAiLIdnFcC84si+SLpj/v7bAkbUQgAEbaC1xSPlt8XPnrpou1gE2/2dotCAGIGYD4U0nihJ5WGRwSgMVYKAajV7d98LUz+BjA/H5d/72wBGyMKAajxOwHzdTD5JHD+/i9fCWP71xhRCECNnfjN2705+vKhj7zlm8Mvb/t+OtAv/ozxTSEA1RB0eRUvR1225EhjOe7y93w58PK2bo68fMVLXqQo9HaXD3nk2Dt/7argM2YmJ39cm5/gAYD7VbxcKodcvrsv/66IOWOqa/4/tk3Uk1ReVDsAAAAASUVORK5CYII=;" parent="1" vertex="1">
          <mxGeometry x="160" y="186.72000000000003" width="21.25" height="26.55" as="geometry" />
        </mxCell>
        <mxCell id="S8oN9HsD-SmAMap5PSNZ-21" value="" style="image;sketch=0;aspect=fixed;html=1;points=[];align=center;fontSize=12;image=img/lib/mscae/Azure_Database_for_PostgreSQL_servers.svg;" parent="1" vertex="1">
          <mxGeometry x="68.38999999999999" y="930" width="38" height="50" as="geometry" />
        </mxCell>
        <mxCell id="S8oN9HsD-SmAMap5PSNZ-26" style="edgeStyle=orthogonalEdgeStyle;rounded=0;orthogonalLoop=1;jettySize=auto;html=1;exitX=1;exitY=0.5;exitDx=0;exitDy=0;entryX=0.25;entryY=1;entryDx=0;entryDy=0;startArrow=classic;startFill=1;" parent="1" source="S8oN9HsD-SmAMap5PSNZ-22" target="A7bG10cvLb7iZubDScCu-9" edge="1">
          <mxGeometry relative="1" as="geometry">
            <Array as="points">
              <mxPoint x="430" y="955" />
              <mxPoint x="430" y="560" />
              <mxPoint x="835" y="560" />
            </Array>
          </mxGeometry>
        </mxCell>
        <mxCell id="S8oN9HsD-SmAMap5PSNZ-22" value="lookup-db: storage for MX Record entity" style="text;html=1;strokeColor=#001DBC;fillColor=#0050ef;align=left;verticalAlign=middle;whiteSpace=wrap;rounded=0;fontColor=#ffffff;" parent="1" vertex="1">
          <mxGeometry x="117.76999999999998" y="930" width="260" height="50" as="geometry" />
        </mxCell>
        <mxCell id="S8oN9HsD-SmAMap5PSNZ-23" value="" style="image;sketch=0;aspect=fixed;html=1;points=[];align=center;fontSize=12;image=img/lib/mscae/Azure_Database_for_PostgreSQL_servers.svg;" parent="1" vertex="1">
          <mxGeometry x="69.36999999999999" y="990" width="38" height="50" as="geometry" />
        </mxCell>
        <mxCell id="S8oN9HsD-SmAMap5PSNZ-24" value="subscription-db: storage for Supsctiption entity" style="text;html=1;strokeColor=#001DBC;fillColor=#0050ef;align=left;verticalAlign=middle;whiteSpace=wrap;rounded=0;fontColor=#ffffff;" parent="1" vertex="1">
          <mxGeometry x="118.74999999999999" y="990" width="260" height="50" as="geometry" />
        </mxCell>
        <mxCell id="B4E8FRYc-Bt45JikCs6b-8" style="edgeStyle=orthogonalEdgeStyle;rounded=0;orthogonalLoop=1;jettySize=auto;html=1;entryX=0.5;entryY=0;entryDx=0;entryDy=0;" parent="1" source="B4E8FRYc-Bt45JikCs6b-1" target="A7bG10cvLb7iZubDScCu-14" edge="1">
          <mxGeometry relative="1" as="geometry">
            <mxPoint x="1423.076923076923" y="520" as="targetPoint" />
            <Array as="points">
              <mxPoint x="120" y="-140" />
              <mxPoint x="1355" y="-140" />
            </Array>
          </mxGeometry>
        </mxCell>
        <mxCell id="B4E8FRYc-Bt45JikCs6b-12" value="HTTP" style="edgeLabel;html=1;align=center;verticalAlign=middle;resizable=0;points=[];" parent="B4E8FRYc-Bt45JikCs6b-8" vertex="1" connectable="0">
          <mxGeometry x="0.9336" y="2" relative="1" as="geometry">
            <mxPoint as="offset" />
          </mxGeometry>
        </mxCell>
        <mxCell id="B4E8FRYc-Bt45JikCs6b-10" style="edgeStyle=orthogonalEdgeStyle;rounded=0;orthogonalLoop=1;jettySize=auto;html=1;entryX=0.595;entryY=1;entryDx=0;entryDy=0;entryPerimeter=0;startArrow=classic;startFill=1;" parent="1" source="B4E8FRYc-Bt45JikCs6b-1" target="dulSs8EgE7Bo_tsadKai-80" edge="1">
          <mxGeometry relative="1" as="geometry">
            <Array as="points">
              <mxPoint x="220" y="60" />
              <mxPoint x="220" y="260" />
              <mxPoint x="730" y="260" />
            </Array>
          </mxGeometry>
        </mxCell>
        <mxCell id="B4E8FRYc-Bt45JikCs6b-11" value="HTTP" style="edgeLabel;html=1;align=center;verticalAlign=middle;resizable=0;points=[];" parent="B4E8FRYc-Bt45JikCs6b-10" vertex="1" connectable="0">
          <mxGeometry x="-0.1728" y="1" relative="1" as="geometry">
            <mxPoint as="offset" />
          </mxGeometry>
        </mxCell>
        <mxCell id="B4E8FRYc-Bt45JikCs6b-1" value="" style="rounded=1;whiteSpace=wrap;html=1;fillColor=none;" parent="1" vertex="1">
          <mxGeometry x="50" y="-10" width="140" height="140" as="geometry" />
        </mxCell>
        <mxCell id="B4E8FRYc-Bt45JikCs6b-2" value="" style="shape=image;verticalLabelPosition=bottom;labelBackgroundColor=default;verticalAlign=top;aspect=fixed;imageAspect=0;image=https://cdn.icon-icons.com/icons2/2699/PNG/512/golang_logo_icon_171073.png;" parent="1" vertex="1">
          <mxGeometry x="64" y="10" width="100" height="100" as="geometry" />
        </mxCell>
        <mxCell id="B4E8FRYc-Bt45JikCs6b-3" value="stat-service" style="text;html=1;strokeColor=#006EAF;fillColor=#1ba1e2;align=center;verticalAlign=middle;whiteSpace=wrap;rounded=0;fontSize=15;fontColor=#ffffff;" parent="1" vertex="1">
          <mxGeometry x="58.75" y="90" width="122.5" height="20" as="geometry" />
        </mxCell>
        <mxCell id="B4E8FRYc-Bt45JikCs6b-7" style="edgeStyle=orthogonalEdgeStyle;rounded=0;orthogonalLoop=1;jettySize=auto;html=1;entryX=0.995;entryY=0.933;entryDx=0;entryDy=0;entryPerimeter=0;exitX=0.25;exitY=0;exitDx=0;exitDy=0;" parent="1" source="B4E8FRYc-Bt45JikCs6b-1" target="A7bG10cvLb7iZubDScCu-14" edge="1">
          <mxGeometry relative="1" as="geometry">
            <mxPoint x="140" y="-60" as="sourcePoint" />
            <Array as="points">
              <mxPoint x="82" y="-10" />
              <mxPoint x="82" y="-150" />
              <mxPoint x="1630" y="-150" />
              <mxPoint x="1630" y="714" />
            </Array>
          </mxGeometry>
        </mxCell>
        <mxCell id="B4E8FRYc-Bt45JikCs6b-4" value="" style="image;sketch=0;aspect=fixed;html=1;points=[];align=center;fontSize=12;image=img/lib/mscae/Docker.svg;" parent="1" vertex="1">
          <mxGeometry x="64" width="36.59" height="30" as="geometry" />
        </mxCell>
        <mxCell id="B4E8FRYc-Bt45JikCs6b-5" value="" style="shape=image;verticalLabelPosition=bottom;labelBackgroundColor=default;verticalAlign=top;aspect=fixed;imageAspect=0;image=data:image/png,iVBORw0KGgoAAAANSUhEUgAAAoUAAAMmCAYAAACD1vsgAAAnwklEQVR42u3dTWzV153w8ayeXbcz0rNA0QgpChpFyqRdRKwGkNqyAKFGFQkoREMqaCaVWpWGtonULiLEptGjorQNTN9cSjIOUF5nDMnVyKnAgQRrrhQnmIBlAzY2hosxtsEv8nlyLjWFBAgGv9x7f5+f9FnPTDrO/fac/znnoYeMMcYYY4zJc6jnagKYTu+fv5Y+uHAtFUvD6XjfSDp1ZTSdHhhN3UNjZaXhkTQ4NpZGx8fL/JvZGGNmKQr/8a12gIoxd8fp9NjuM2nRga60rHAurXyvJ73Q1JvWf3gxvfZRX9rc2p+2nrqSDnYOlaMzB6Z/mxtjjCgEKHty/9lyRE7E4872gfIKZV6N9G97Y4wRhQBpTn1HORrzquOrxUvlYMzb2barjTFGFALcWGG8ORbzd49i0RgjCgG4EYv5W8b8DWNeVfSLYYwRhQCU5W8WJ1YUHXAxxohCAMryKem89ZwPtuR/n/pVMcaIQgDK1+nkLee8kujUszFGFAJwY7s5ryLmC7z94hhjRCEA5a3miVVE3yMaY0QhAGX5W8R8sjk/++fXyBgjCgEQiMYYUQiAQDTGiEIA7iEQfYNojBGFAJTfbp44pOIJPmOMKASg/PxeflXlgwuuuTHGiEIA/nYPYt5edlG2MUYUAnDjJZWDnUPi0BgjCgFoT4sOdFk9NMaIQgD+/oJK/vawWBoWh8YYUQhAu61lY4woBODWgylbT11xrY0xRhQCcP1am9c+6vPdoTFGFAJw/btDcWiMEYUAiENjjCgEQBwaY0QhAOLQGCMKARCHxhhRCMCk4jC/kuJX0xhRCADlew5dgm2MKASAGy+kHO8bEYfGiEIAopu743T5e8PBMd8bGiMKAQhv0YGutLN9QBgaIwoBoD2tfK8nfXDhmjg0RhQCQHt6tXjJlrIxohAAbCkbIwoB4HOnlE9dGRWHxohCAFx87eJrY0QhANx0EOX98w6iGCMKAcBBFGNEIQDcfBDFc3nGiEIAuLFqODo+Lg6NEYUARLescM63hsaIQgC4Lr+j7FfZGFEIAOUTysXSsDg0RhQCEN3cHafda2iMKASA6/JrKKcHvIZijCgEILwn9591dY0xohAArrOdbIwoBICy9R9e9BKKMaIQAK7faeh0sjGiEADSY7vPpJ3tA8LQGFEIAC67NkYUAsBN19Z0D/nO0BhRCEB4iw50eTvZGFEIANdfQfGdoTGiEAB8Z2iMKASAW+8z9OtujCgEgLTyvR5haIwoBIDrB1D8yhsjCgGgfADFlTXGiEIAKPM0njGiEADK8u+dX31jRCEApIOdQ8LQGFEIAO0uuTZGFAKAMDRGFALATbaeuiIMjRGFANCeNrf2C0NjRCEACENjRCEA/M1rH/UJQ2NEIQAIQ2NEIQDYSjZGFAKAMDRGFAKA62qMEYUAIAyNEYUAcBdePjGiEAAoO9g5JAyNKAQAhKERhQDA3+TfS9VgRCEAkLqHxoShEYUAQHsaHR8XhkYUAkB0iw50iUIjCgGA9vRCU68wNKIQAGhPr33UJwyNKAQAvHpiRCEA8DdePTGiEABwh6ERhQDAdU/uP5uO940IQyMKASC6ZYVz7jA0ohAAaE/rP7woCo0oBADa0+bWfmFoRCEA0J4Odg4JQyMKAcDBk7Pp9MCoMDSiEACiW/lejyg0ohAAaE+vFi8JQyMKAQBP4RlRCAB8Zu6O0+mDC9eEoRGFABCdi62NKAQAfF9oRCEA4P5CIwoBgJssOtCVSsMjwtCIQgCIzvvIRhQCAGU72weEoRGFABCdZ/CMKAQAyl5o6hWFRhQCAO1pc2u/MDSiEACiy6+dHO9zGtmIQgAIb+V7PaLQiEIAwDayEYUAwGce230mnbriNLIRhQDgNLLTyEYUAgDZ1lNXhKERhQAQnUutjSgEAMq8jWxEIQBQ5m1kIwoBgPI2cmnYpdZGFAKAbWTbyEYUAgDZ++evCUMjCgEgOk/gGVEIADh0YkQhAHDdssI5UWhEIQDQnja39gtDIwoBwBU1Z1P30JgwNKIQAKJ7tXhJFBpRCADRzanvSMXSsDA0ohAAonuhqVcUGlEIALSng51DwtCIQgCIzoXWRhQCAFYLjSgEAKwWGlEIAFgtNKIQALBaaEQhAGC10IhCAMBqoRGFAIDVQiMKAQCrhUYUAgBWC40oBACsFhpRCADcg/x7rmqMKASA4NZ/eFEUGlEIANHNqe9Ip66MCkMjCgEguleLl0ShEYUAEN2T+8+mwbExYWhEIQBEt7m1XxQaUQgA0S060CUKjSgEAFxmbUQhAPCWy6yNKAQA/uaDC9eEoRGFABCdy6yNKAQA0mO7z7iexohCAKA9bT11RRQaUQgADpw4cGJEIQDwmeN9I8LQiEIAiO61j/pEoRGFABCdF06MKAQAyrxwYkQhAODOQiMKAYDrdxaWhh04MaIQANxZ6M5CIwoBAHcWGlEIAJSdujIqDI0oBIDoNrf2i0IjCgEgumWFc6LQiEIAwLN3RhQCALaQjSgEAGwhG1EIANxQLA0LQyMKASC61z7qE4VGFAKALWRbyEYUAgC2kI0oBABsIRtRCADYQjaiEAD4u9MD3kI2ohAAwtt66oooNKIQAKJ7oalXFBpRCADRPbb7jCg0ohAAaE8fXLgmDI0oBABX07iaxohCAHA1jatpjCgEALLS8IgwNKIQAKLb2T4gCo0oBIDo1n94URQaUQgA0T25/6woNKIQAPBdoRGFAMBnDnYOiUJRKAoBILpXi5dEoSgUhQAQnfsKjSgEANLcHadFoSgUhQBAezre57CJKPSHAADhbT11RRSKQn8IABCdS6xFoT8EACAtOtAlCkWhPwQAoD0Njo0JQ1EIAESXu0AdiUIAILjNrf2iUBQCANG90NQrCkUhAOCwicMmohAA4DOj4+PCUBQCANEVS8OiUBQCANF52UQUAgB42UQUAgA4bCIKAQA+M6e+QxSKQgCA9nS8b0QYikIAILqd7QOiUBQCANG9WrwkCkUhABCd5+5EIQBAWlY4JwpFIQAQ3ZP7z4pCUQgARDd3x2lRKAoBANpTadi1NKIQAAjPXYWiEAAg5UZQSqIQAAhu66krolAUAgDRvfZRnygUhQBAdOs/vCgKRSEAEN3K93pEoSgEAKJbdKBLFIpCACC6x3afEYWiEACIbk59hygUhQAA7WlwbEwYikIAILrTA6OiUBQCANF9cOGaKBSFAEB0BzuHRKEoBACi89SdKAQA8NSdKAQA8NSdKAQA+MwLTb2iUBQCANEtK5wThaIQABCFolAUAgDhLTrQJQpFIQAgCkWhKAQAwnty/1lRKAoBAFEoCkUhACAKRaEoBAB4bPcZUSgKAQBRKApFIQAQ3twdp0WhKAQARKEoFIUAQHhz6jtEoSgEAGgXhaIQALBSaKVQFAIAvin0TaEoBABwJY0oBAAQhaIQAMAzd6IQAOAziw50iUJRCACIQlEoCgGA8JYVzolCUQgAiEJRKAoBgPBWvtcjCkUhACAKRaEoBADCe6GpVxSKQgBAFIpCUQgAhLf+w4uiUBQCAKJQFIpCACC8V4uXRKEoBABEoSgUhQBAeJtb+0WhKAQAotvZPiAKRSEAEN0HF66JQlEIAETXPTQmCkUhABDZnPoOQSgKAYDontx/VhSKQgAgumWFc6JQFAIA0Xn3WBQCALi4WhQCALSnraeuiEJRCABEd7BzSBSKQgAguuN9I6JQFAIA0Q2OubhaFAIAoc3dcVoQikIAILpFB7pEoSgEAKJb+V6PKBSFAEB06z+8KApFIQAQ3ebWflEoCgGA6NxRKAoBAFL3kOtoRCEA4DoaIwoBgNiWFc6JQlEIADh57OSxKAQAnDx28lgUAgC8f/6aKBSFAEB0peERUSgKAYDIHtt9RhCKQgAgOm8ei0IAgPRq8ZIoFIUAQHQ72wdEoSgEAKIrloZFoSgEAKIbHR8XhaIQAIjsyf1nBaEo9IcAAE4eO3ksCv0hAEB4r33UJwpFoT8EAIjO83ai0B8CAAQ3p75DEIpCUQgAvif0PaEoFIUAEN7m1n5RKApFIQBEd7xvRBSKQlEIAJE9tvuMIDSiEACie6GpVxQaUQgA0W09dUUUGlEIANGdHhgVhUYUAkBkiw50CUIjCgEguvUfXhSFRhQCQHQHO4dEoRGFABBZftquNOx+QiMKASA0T9sZUQgApNc+6hOFRhQCQHTvn78mCo0oBIDIntx/VhAaUQgArqJxFY0RhQDgKhpX0RhRCAC2jhWQEYUAYOtYFBpRCAC2jm0dG1EIALaOjRGFAGDrWP0YUQgAto5FoRGFAGDr2BhRCAC2jo0RhQBg61j5mDvOsWPH0te+9rUpNX/+/Jq2YOGCsL65eHFVW7p0acX61lNPzapvL18+q1asWDGtnl21alatXr26oq1du/aBfOd7L6Yf/PgnZT/62c/T+o0b08u/+GXZT1//TfrZf2wr+/GbB254cW/zDc81fHrDssK58jbnnPoOIWfr2FR7FALAg8j/JS7Hao7MHJYTQZkDUjTaOjaiEABEo61jIwoB4P6icSIYcyzaOjZGFAIgFtN3X3qp/J1jDsX8DeNju8/YOjZGFAIQXT7olA/H5C3ovJq46EBXzUXh++eviUIjCgFgsjdo5BPVE9vOeTWxmredV77XIwiNKASAqdp2zt8nTmw7V9Nq4s72AVFoRCEATId8b2uOxImVxEo96ZxXOEfHx0WhEYUAMBPydvPEN4mVtNX82kd9gtCIQgCYrYMrE98j5jsTZzMKT10ZFYVGFAJAJWwzT5xsztvMc3ecnrEgfKGpVxAaUQgAlSi/EZ0Pq8zE1TeHeq6KQiMKAaAatpnXb9xY3mae6u8Q87a1wjGiEACqTH6SL68g5i3mqYjCraeuiEIjCgGg2r9BfJDVw/xs3+DYmCg0ohAAasGzq1bdWD2czD2IrxYvCUIjCgGg1uRn9yYuyr6XwynH+0ZEoRGFABDhDsQ7XW/jGhojCgEgmO++9NIXLsg+2DkkCo0oBICIli5dWl49zHcfqhojCgEguOffeD39+eRxYWhEIQBE9c3Fi9M/bN2cHtry/9Ijb9eV43B0fFwgGlEIAJE8veXX5SC8mTg0ohAAgn1TOLFKeDvi0IhCAAi6SigOjSgEgGCrhF/5w6/uKQonPPzW78WhEYUAEHGVUBwaUQgANepbTz11128JxaERhQAQwFN1v33gIBSHRhQCQBXLbyBP9lvCe5UPpLx37qwwFIUAQLRVwttZ/s6+dG5oUByKQgAg2irh5+X/OZta/teWsigEACKuEt5uS7mp55wwFIUAQCVYsWLFjK0S3mlL+fy1q+JQFAIA0VYJbSmLQgCggqxcu2ZWVwk/7/Fd22wpi0IAYKY9vX1bxQThzf790P/YUhaFAMBMWLtxQ0UG4YT8sootZVEIAEyjBQsXlE//VnIU3rylXLzYKwxFIQAw1Z5/4/WqCMLPbymXhkfEoSgEAKbCs6tWlbdmqy0KJ7aUPZcnCgGAKfD1+j9VZRDe7OX3/+pbQ1EIANTq4ZLJmL+33jvKohAAmKz58+dXzeGSyVx6vdt2sigEACZxJ+GWX9dUEH7+EMrg2Jg4FIUAwN18e/nyinq5ZDrkVdBPB/qFoSgEAGr5cMm9bif/+eRxYSgKAYDP++5LL4UIwpstf2ef7WRRCADc7OG3fh8uCrP8f7eXUEQhAFDjh0vuxf/57S/L7ycrM1EIAGGtXLum5g+X3Ktv7N+Rzl+7Kg5FIQDE89X6OkHoiTxRCAC2jYXg7dhOFoUAEOa0cf6WTgDe/bJrbyeLQgCoWd9cvDjsaeP7+c7QtTWiEABq0lN1vxV8k/D4rm3p3NCgMBSFAFA71m7cIPTu8wBK8XJJGIpCAKh+z65aVY4bkXf/z+M5mSwKAaDqRXnbeLovuvZusigEgKr1/Buvi7op9PL7fxWGohAAqu/6Ga+WTL3l7+xzMlkUAkD1XD/j1ZLpM39vfSoNjwhDUQgAlW319jfF2zTLdz5+3N8nDEUhAFSm9Rs3erXEyWRRCACRfed7L3q1xMlkUQgAkS1dutR3hLP4jWHdmTZhKAoBYPY9vX2bQJullcInGhvSw+/sTls6TgpDUQgAs+f7f/ydQJsl/3pwTzkIJwhDUQgAs+LlX/zSwZJZXCWcV9h3SxRmm9pahaEoBICZky+o9q5x5awSCkNRCAAz7tvLlztYMsvX0dxulVAYikIAmDHz589PX6//kzir0FXCm2040SIMRSEATA8vlsyuvGU/9917i0JhKAoBYFr89PXfOFhSJauEtpJFIQBMix/8+Cflb9mE2ey+eTzZIJxQ39khDEUhADyYZ1etcrCkEl4v+ZLDJXeTt5wLvd3CUBQCwP1ZsHCBgyUV4PFd2+47CG8Ow6ZSrzAUhQDgYEm1mnjO7kHlq2w+7u8ThqIQAO7dD+sFYbUeLrmbHJjtgwNJFPojB4AvtXFrnZPGFfyc3VSE4flrV5MoBADuGoROGtfmKuHNFh4upMGxsSQKAQBBWOFX0Ezmour78cyxQ2l0fDyJQgBAENbgFTSTEfLVE1EIALf3s//YVn5CTYxVSBDurZ+RIAx7ubUoBIAvWr9xoyAMcLjky+4wLF4uJVEIAEHl5+vyt2tiLMbhki87kdx1dSiJQgAI5jvfe1EQ1tD7xk4ki0IAmLRvL1+eHnnbe8ZRD5fczZri0do/kSwKAeBr6ZuLF6dHd3mtJPrhktAnkkUhAHwtPb5rmwirMPkqoHkVsEp4s73dZ5MoBIAatGDhgvJqlAhzuOReTyR/3N+XRCEA1NiWsSCsTPnbzkoLwptPJJeGR5IoBIAaOVQiCN1JeL+WHGmsvYMnohCAaFauXeOUsW3jKTmRLAoBwD2EBNs2vp1Nba1JFAJAlfnuSy95uq7Ct43/5cCuqorCrLmvRp7CE4UARLB244ZydIgv28bTcfCkJl48EYUA1Lrn33hdEFbBU3ZzDvylKqMwW9fSLAoBoJI9veXXosu28Yxo6OlKohAAKtBTdb8VXbaN3V8oCgGI7Ov1fxJcto1n3HPNTaIQACpBfrbuq/XuIKwWtbBt/Hl1Z9qSKAQAl1ITbNv48/JrLO2DA0kUAsAsWL9xo0upXVLtGTxRCEBk3//j79JX/vArsVUl8n9Wc9/dU9NRWJWvnYhCAKrVt556Kj29fZvQ8h1hRcrhW7xcRa+diEIAqtEPfvyTNH9vvciqMvk/swhBOGHh4UL1vHYiCgGoNj99/Te+H6zS62ciBeGEVz4pikIAmOrrZn5Y/6Yn67xaUnUaL/QkUQgAU2Dt2rVp2d7tAst3hF47EYUARL5u5vFdDpRUq0d3vRk6CCesKR4VhQBwvzZurUv/sHWzuHL9TE1o6OlKohAAJmH16tXpxd3bfT9o27jmtpEr9lJrUQhApXn5F79M39i/Q1RVuSf2vS0Eq+lSa1EIQCVdRv3z/XtsF3vGrqblt5HPX7uaRCEA3OEwyfJ39gmqGpCjXvzd3bqWZlEIADf75uLFDpPU2H2E8xp2Cr970NxXYU/giUIAZkt+qu7f/muXmHKwJKQlRxpFIQCxzZ8/v7w66Kk6B0uiq+/sSKIQgJDyyyR5ddBVMw6WcP2KmsGxsSQKAQjlp6//phwPIqr2Dpa4oPr+bTjRIgoBiGHFihUuonawhDvIQd11dSiJQgBq1oKFC6wOOlhCtbyLLAoBmA4/+tnP07K924WTgyXco6OXLiZRCEDNyG8Wr97+ZvrKH34lnGrYo7veFHJTbOHhwuy+iywKAZiqreLv//F3tooDyFcJibjpUXemTRQCUL3yE3Xf2L9DMDlpzBRcUVMaHkmiEICqu3MwbxU7VeykMTVwRY0oBGCy8nvFeavYiyROGjP15hX2zc5qoSgEYLJbxV+t992gIGQ6bWprFYUAVKbvvvRSenr7NlvFAf3z3nqhFuH5O1EIwJfFYP5uMB8wEEiunqGGVwtFIQBiEFfPWC0UhQDcNgZdPu3qmTkH/iLOZtmWjpOiEAAxyOwF4T/9t6tnKmW1cMZeORGFAGJQDDIh//+BIAz6yokoBIh9mlgM4nJqbyKLQgAxCIKwCtR3dohCAB7c/Pnz09qNG9LX6//knkFuSxBaLRSFADXs28uXp+ffeN0LJAjCGrC3+6woBOD+tojdMYjn62prtVAUAvClvrl4cXlVMG8Rix08X1ebCr3dSRQCcFvf+d6L5Stl8usTQgdBWNuWHGkUhQD83YKFCxwcQRAG1XihJ4lCgOCeXbUqff+Pv3NwBEEY2DPHDolCgIjWrl1bDsFle7e7W5AH8uiuN0VVjfi4vy+JQoAg3wkKQQQhd/LKJ0VRCFCrl0vna2RyCH5j/w4hiCDkruYV9qXBsbEkCgFqJAR/8OOfpB/Wv1kOQQdG8A0hs/r0nSgEmNlTwz/62c+FIIKQyrueRhQCTO9qYD4o8tPXf5Ne3L29HIJiBUFIRR44EYUAU2v16tW3RKDvAxGEVMWBE1EI8GBWrFiRXv7FL29EoPeGmU3zGnaKJQdORCHATPjWU0+l9Rs3liMwXxkjAqkE+ftUQRhT3Zk2UQgw3ZYuXVq+Kub5N15PT2/flubvrReBCEIqysLDBVEIMJWngvOF0fk94dXb3yyvAD6+a5vTwVS8/M2qIKR4uZREIcAkTwPnbwDztTD5ouiJ7wAffuv3AoOqk1et/+m/BSFTdOBEFAK1tuKXoy+v+uXv/jZurSv7+f496d/+a5eDIAhCatITjQ1pdHw8iUIgROzlAx75zr+8ypevfJmIvezl9/+a/v3Q/6Tl7+wrh1/e+s0/mnn71xYwtSavbM858BcxxC0aL/Q8eBTmf8kCTJe8apcPa+SYy6t3OeiyvH2b5dc98jZullfzshx3E4GX5QMe+YfQnX9E98jbdYKQ21rX0vxgUfjnk8f9kQGAIKQG7ix8oC1kUQgAXimhNjT0dIlCAHAHIdGtKR4VhQDgDkJsIT/As3eiEABcOUPt2H3urCgEAFfOEN1zzU2iEACq3dxd2wQhD2Tuu3tSaXgkiUIAcMKY4Oo7O0QhADhhjC3kJlEIAA6UYAt5z+QvshaFADA7vFBCRb2FLAoBwPeD1J5XPimKQgCoVC6kZqYsPFwQhQDg/kHYndoHB5IoBIAK8uiuNwUhM67uTJsoBADXzeBqmiZRCACum8HVNJO4mkYUAsDU81wdlaLQ2y0KAWA2tovn7v1PMUL1XU0jCgHAdjGuphGFAOB0MTWuNDySRCEAWB0kuIaeLlEIAFYHiW7DiRZRCABTLT9V5zAJ1WTJkUZRCABTyVN1VOt9hYNjY0kUAoCrZgiuqdQrCgHgQVcHHSah2m1qaxWFAPAgq4O2i6kFzxw7JAoBwOog0c0r7Lv7O8iiEACcLCaG4uWSKASAL/PI23W2iqlpWzpOikIAuBOvkhDFupZmUQgAtz1Ismub1UHCWHi4IAoBwOogLrHec+fDJqIQAAdJII6P+/tEIQAOktgqJrr6zg5RCICtYohuw4kWUQiArWLwsskhUQiAU8UQ3RONDaIQgNonBuHLnb92NYlCAGpSfqv4/+6zVQz3ovFCjygEoPYOkfhuEKbguTtRCEA1HyKxVQxT9NydKASg6mLQd4PwQJYcaRSFAIhBcAK5QRQC4HoZYHcaHBtLohAAMQjeQBaFAIhBiK6hp0sUAiAGwbU0J0UhAGIQonvlk6IoBMBpYojuueYmUQjA7Jl4gUQMwuxaeLggCgGYeY+8XedtYqgg8wr7RCEAM/u9oBiEylQaHkmiEADfC0JwzX0lUQjA9HwvmFcFxSBU4V2FohAAW8QQU31nhygEwKogRLeprVUUAmBVEKLbcKJFFAJw7x5+6/dWBaEGrWtpFoUAfPkJ4n/c4W5BCPOqiSgE4PPfCuYY9IMJtW/JkUZRCMCtEWhFEII/dScKAeKGoG8EwVN3ohBACAKk0fHxJAoBbA0D3j8WhQBWBIHoPh3oF4UAtXKhdI5AIQjcj6OXLopCAHcIAtEVertFIUA1rgYKQWAqNfR0iUKAajkkYlsYmC57u8+KQgARCES3+5woBJjV7WARCFSC+s4OUQgw3St/N/NNIFCJ6s60iUKAqdz2vTn6rPwBohCghuPv4bd+L/6AmrKl46QoBLjdd36PvF2XHt31Zpq79z/L4Sf+gFq2qa1VFAIxoy+v9s3dta1M9AGiUBQCNfCqx0TkTazuZf+8t/6WVT7RB3BnG060XI/CfAz58c/+2zLATHli39tp/mfhlv3rwT13NL+wr+xfDuxK8xp23og7gQcwDVGYb7H2DwQAIHgU5lus/QMBABCF/oEAAEQ/aCIKAQBEoSgEAAjsxuXVohAAIK4bz9yJQgCAuPL1hKIQAEAUikIAgOjyndWiEAAguIaeLlEIABBdobdbFAIARNdU6hWFAADRNfeVRCEAQHTtgwOiEAAgutLwiCgEAIjuoYkRhQAAMT3R2CAKAQCiW3i4IAoBAKJbcqRRFAIARLemeFQUAgBEt66lWRQCAES34USLKAQAiG5TW6soBACIru5MmygEAIiu0NstCgEAovu4v08UAgBENzg2JgoBACK75Yk7UQgAENMtr5mIQgCAmG55zUQUAgDEdMvF1aIQACCmLR0nRSEAQHQNPV2iEAAgulvuKBSFAAAxlYZHRCEAQGTzCvtuDUJRCAAQzxfuKBSFAADxrGtpFoUAANF94ToaUQgAEE9TqVcUAgA4eTwiCgEAInuiseGLQSgKAQBieebYIVEIABDdhhMtohAAILr6zg5RCAAQXfFySRQCAEQ3Oj5++yjc2y0KAQAiWHi4cPsgtFIIABDHbZ+3E4UAAA6ZiEIAgGA+HegXhQAAkc0r7LtzEIpCAIAYnmtuEoUAANFtamsVhQAA0TWVekUhAEBkc9/dkwbHxkQhAEBkS4403j0IRSEAQO175ZOiKAQAiC73nigEAAiuNDwiCgEAIlt4uPDlQSgKAQBq24YTLaIQACC6xgs9ohAAILJ8P+Ho+LgoBACI7EvfOxaFAAC1b0vHSVEIABDdpwP9ohAAILInGhvuPQhFIQBAbVrX0iwKAQCia+jpEoUAAJHlq2gGx8ZEIQBAZGuKRycXhKIQAKD25L4ThQAAto5FIQBAZJN6xUQUAgDUpvrODlEIAGDreEwUAgDYOr7PEYUAAMG3jkUhAICtY1EIAGDrWBQCANSK+7qwWhQCANSOeYV9aXR8XBQCAET2yifFBwtCUQgAUP2a+0qiEAAgsoWHCw8ehKIQAKC6bek4KQoBACLLdxOWhkdEIQBAZGuKR6cmCEUhAED1aujpEoUAAJE90djw4HcTikIAgOq24UTL1AVhnr3dohAAoNp8OtA/tVFopRAAoLo819w0tUEoCgEAqk/jhR5RCAAQ2ZS9YCIKAQCqV31nhygEAIhsyq+hEYUAANVnU1vr9AShKAQAqA5T+s6xKAQAqE6vfFKcviAUhQAA1WHKL6sWhQAA1WVaLqsWhQAA1aV4uSQKAQAie+bYoekPQlEIAGCVUBQCAFglFIUAAFYJRSEAgFVCUQgAYJVQFAIAWCUUhQAAVglFIQCAVUJRCABglVAUAgBUoDXFo7MThKIQAKAyzH13T2ofHBCFAACRbTjRMntBKAoBAGbfE40NaXBsTBQCAERWd6ZtdoNQFAIAzK6FhwtpdHxcFAIARNZ4oWf2g1AUAgDMnueamyojCEUhAMDsmPUraEQhAMDse+WTYuUEoSgEAJh5FXEFjSgEAJhdub8eqrQRhQAAM+eZY4cqLwhFIQBA4MMlohAAYOZtamutzCAUhQAAM6NiXi4RhQAAs+fj/r7KDUJRCAAw/SruTkJRCAAwsyryTkJRCAAws/Z2n638IMyT/xf1HxgAwNRbUzxaHUFopRAAYPq2jUvDI6IQACCyo5cuVk8QikIAgKm34URLdQWhKAQAmFpLjjRW9iXVohAAYHrNK+yr3LeNRSEAwMyo7+yoziAUhQAAU6Oqrp8RhQAAU69qXi0RhQAA02Puu3tS8XKpuoNQFAIAPJhNba3VH4SiEADg/lXt9TOiEABgauTrZ7quDtVGEIpCAID709DTVTtBKAoBACavKp+xE4UAAFPnmWOHauc7QlEIADB5Cw8Xqv8+QlEIAHD/8gXVNXWwRBQCAExOzVxQLQoBAO5f7qWHan1EIQBAsJPGohAA4N4919xUmyeNRSEAgJPGohAA4B5PGp+/djVOEIpCAIAvnjT+uL8vVhCKQgCAWxV6u+MFoSgEAPi7ujNtMYNQFAIABLt6RhQCANzeupbm2EEoCgGA6ELdRSgKAQC+aMmRxlh3EYpCAIBbhbucWhQCAHwxCEvDI4JQFAIAgtCIQgAgpPx8XdfVIUEoCgGAyEHYPjggCO80e7tFIQBQ+0H46UC/ILRSCAAIQiMKAQBbxkYUAgAxTxk7VCIKAYDgQXj+2lVBKAoBgMhB6B5CUQgABOYtY1EIAAT3zLFDglAUAgCRPdfclEbHxwWhKAQAolrX0iwIRSEAENmmtlYxKAoBgKjmFfalQm+3IBSFAEBU+ZWS4uWSIBSFAEBUXikRhQCAK2dcSi0KAYDI1hSPOmEsCgEAJ4yNKAQAnDA2ohAAiHmgpH1wQBCKQgAg8veD3jAWhQBAUHPf3ZPqzrSJQVEIAETlQmpRCAAEt+RIo/sHRSEAENmGEy3uHxSFAEDk7eKmUq8YFIUAQFTrWpqdLhaFAEDk1cHGCz1iUBQCAFHluwcdJhGFAEDg1cHcGopLFAIAQT1z7FA6f+2qIKyW2dstCgGAqTOvsM/LJFYKAYDo3w5aHRSFAEDgbwcLvd1iUBQCABHNfXdPeuWTonsHRSEAENXCw4VUvFwSg6IQAIh6kGRTW6s3i0UhABD5mpmuq0NiUBQCAFG3iht6usSgKAQAom4Vb+k4aatYFAIAkU8Ve69YFAIAQT3X3JTaBwfEoCgEAKJ+N9hU6hWDohAAiCi/RpLfKvbdoCj0BwEAQWMw3zfoNRIjCgFADBojCgFADBojCgFADBojCgGg9mMwXzwtBo0oBIDAp4nFoBGFABD0nsH8u+5qGSMKASCgZ44dSoXebiFoRCEARLSmeDQVL5fEoBGFABDN3Hf3pHUtzd4mNqIQAKJ+L5hPEpeGR8SgEYUAEMm8wr7yqmBzny1iIwoBIOTBkfrODlfKGFEIABHvFtxwosW3gkYUAkDEEHzlk2JqKvW6W9CIQgAQgsaIQgAQgsaIQgAQgsaIQgCoEflS6XxqeFNba/kKGSFoRCEABJEvlM6rgQ09Xa6PMaIQAKLIl0k/19yU6s60uTrGiEIAiLIdnFcC84si+SLpj/v7bAkbUQgAEbaC1xSPlt8XPnrpou1gE2/2dotCAGIGYD4U0nihJ5WGRwSgMVYKAajV7d98LUz+BjA/H5d/72wBGyMKAajxOwHzdTD5JHD+/i9fCWP71xhRCECNnfjN2705+vKhj7zlm8Mvb/t+OtAv/ozxTSEA1RB0eRUvR1225EhjOe7y93w58PK2bo68fMVLXqQo9HaXD3nk2Dt/7argM2YmJ39cm5/gAYD7VbxcKodcvrsv/66IOWOqa/4/tk3Uk1ReVDsAAAAASUVORK5CYII=;" parent="1" vertex="1">
          <mxGeometry x="160" y="1.7200000000000273" width="21.25" height="26.55" as="geometry" />
        </mxCell>
        <mxCell id="cbptBCp-k4vVWJNSy40_-1" value="" style="rounded=1;whiteSpace=wrap;html=1;fillColor=none;" vertex="1" parent="1">
          <mxGeometry x="990" y="175" width="140" height="140" as="geometry" />
        </mxCell>
        <mxCell id="cbptBCp-k4vVWJNSy40_-7" style="edgeStyle=orthogonalEdgeStyle;rounded=0;orthogonalLoop=1;jettySize=auto;html=1;entryX=0.75;entryY=1;entryDx=0;entryDy=0;exitX=0.007;exitY=0.614;exitDx=0;exitDy=0;exitPerimeter=0;" edge="1" parent="1" source="cbptBCp-k4vVWJNSy40_-1" target="dulSs8EgE7Bo_tsadKai-80">
          <mxGeometry relative="1" as="geometry">
            <mxPoint x="920" y="240" as="sourcePoint" />
            <Array as="points">
              <mxPoint x="756" y="260" />
            </Array>
          </mxGeometry>
        </mxCell>
        <mxCell id="cbptBCp-k4vVWJNSy40_-8" value="HTTP" style="edgeLabel;html=1;align=center;verticalAlign=middle;resizable=0;points=[];" vertex="1" connectable="0" parent="cbptBCp-k4vVWJNSy40_-7">
          <mxGeometry x="-0.0942" y="1" relative="1" as="geometry">
            <mxPoint as="offset" />
          </mxGeometry>
        </mxCell>
        <mxCell id="cbptBCp-k4vVWJNSy40_-2" value="" style="shape=image;verticalLabelPosition=bottom;labelBackgroundColor=default;verticalAlign=top;aspect=fixed;imageAspect=0;image=https://cdn.icon-icons.com/icons2/2699/PNG/512/golang_logo_icon_171073.png;" vertex="1" parent="1">
          <mxGeometry x="1004" y="195" width="100" height="100" as="geometry" />
        </mxCell>
        <mxCell id="cbptBCp-k4vVWJNSy40_-3" value="customer-service" style="text;html=1;strokeColor=#006EAF;fillColor=#1ba1e2;align=center;verticalAlign=middle;whiteSpace=wrap;rounded=0;fontSize=15;fontColor=#ffffff;" vertex="1" parent="1">
          <mxGeometry x="998.75" y="275" width="122.5" height="20" as="geometry" />
        </mxCell>
        <mxCell id="cbptBCp-k4vVWJNSy40_-4" value="" style="image;sketch=0;aspect=fixed;html=1;points=[];align=center;fontSize=12;image=img/lib/mscae/Docker.svg;" vertex="1" parent="1">
          <mxGeometry x="998.75" y="185" width="36.59" height="30" as="geometry" />
        </mxCell>
        <mxCell id="cbptBCp-k4vVWJNSy40_-5" value="" style="shape=image;verticalLabelPosition=bottom;labelBackgroundColor=default;verticalAlign=top;aspect=fixed;imageAspect=0;image=data:image/png,iVBORw0KGgoAAAANSUhEUgAAAoUAAAMmCAYAAACD1vsgAAAnwklEQVR42u3dTWzV153w8ayeXbcz0rNA0QgpChpFyqRdRKwGkNqyAKFGFQkoREMqaCaVWpWGtonULiLEptGjorQNTN9cSjIOUF5nDMnVyKnAgQRrrhQnmIBlAzY2hosxtsEv8nlyLjWFBAgGv9x7f5+f9FnPTDrO/fac/znnoYeMMcYYY4zJc6jnagKYTu+fv5Y+uHAtFUvD6XjfSDp1ZTSdHhhN3UNjZaXhkTQ4NpZGx8fL/JvZGGNmKQr/8a12gIoxd8fp9NjuM2nRga60rHAurXyvJ73Q1JvWf3gxvfZRX9rc2p+2nrqSDnYOlaMzB6Z/mxtjjCgEKHty/9lyRE7E4872gfIKZV6N9G97Y4wRhQBpTn1HORrzquOrxUvlYMzb2barjTFGFALcWGG8ORbzd49i0RgjCgG4EYv5W8b8DWNeVfSLYYwRhQCU5W8WJ1YUHXAxxohCAMryKem89ZwPtuR/n/pVMcaIQgDK1+nkLee8kujUszFGFAJwY7s5ryLmC7z94hhjRCEA5a3miVVE3yMaY0QhAGX5W8R8sjk/++fXyBgjCgEQiMYYUQiAQDTGiEIA7iEQfYNojBGFAJTfbp44pOIJPmOMKASg/PxeflXlgwuuuTHGiEIA/nYPYt5edlG2MUYUAnDjJZWDnUPi0BgjCgFoT4sOdFk9NMaIQgD+/oJK/vawWBoWh8YYUQhAu61lY4woBODWgylbT11xrY0xRhQCcP1am9c+6vPdoTFGFAJw/btDcWiMEYUAiENjjCgEQBwaY0QhAOLQGCMKARCHxhhRCMCk4jC/kuJX0xhRCADlew5dgm2MKASAGy+kHO8bEYfGiEIAopu743T5e8PBMd8bGiMKAQhv0YGutLN9QBgaIwoBoD2tfK8nfXDhmjg0RhQCQHt6tXjJlrIxohAAbCkbIwoB4HOnlE9dGRWHxohCAFx87eJrY0QhANx0EOX98w6iGCMKAcBBFGNEIQDcfBDFc3nGiEIAuLFqODo+Lg6NEYUARLescM63hsaIQgC4Lr+j7FfZGFEIAOUTysXSsDg0RhQCEN3cHafda2iMKASA6/JrKKcHvIZijCgEILwn9591dY0xohAArrOdbIwoBICy9R9e9BKKMaIQAK7faeh0sjGiEADSY7vPpJ3tA8LQGFEIAC67NkYUAsBN19Z0D/nO0BhRCEB4iw50eTvZGFEIANdfQfGdoTGiEAB8Z2iMKASAW+8z9OtujCgEgLTyvR5haIwoBIDrB1D8yhsjCgGgfADFlTXGiEIAKPM0njGiEADK8u+dX31jRCEApIOdQ8LQGFEIAO0uuTZGFAKAMDRGFALATbaeuiIMjRGFANCeNrf2C0NjRCEACENjRCEA/M1rH/UJQ2NEIQAIQ2NEIQDYSjZGFAKAMDRGFAKA62qMEYUAIAyNEYUAcBdePjGiEAAoO9g5JAyNKAQAhKERhQDA3+TfS9VgRCEAkLqHxoShEYUAQHsaHR8XhkYUAkB0iw50iUIjCgGA9vRCU68wNKIQAGhPr33UJwyNKAQAvHpiRCEA8DdePTGiEABwh6ERhQDAdU/uP5uO940IQyMKASC6ZYVz7jA0ohAAaE/rP7woCo0oBADa0+bWfmFoRCEA0J4Odg4JQyMKAcDBk7Pp9MCoMDSiEACiW/lejyg0ohAAaE+vFi8JQyMKAQBP4RlRCAB8Zu6O0+mDC9eEoRGFABCdi62NKAQAfF9oRCEA4P5CIwoBgJssOtCVSsMjwtCIQgCIzvvIRhQCAGU72weEoRGFABCdZ/CMKAQAyl5o6hWFRhQCAO1pc2u/MDSiEACiy6+dHO9zGtmIQgAIb+V7PaLQiEIAwDayEYUAwGce230mnbriNLIRhQDgNLLTyEYUAgDZ1lNXhKERhQAQnUutjSgEAMq8jWxEIQBQ5m1kIwoBgPI2cmnYpdZGFAKAbWTbyEYUAgDZ++evCUMjCgEgOk/gGVEIADh0YkQhAHDdssI5UWhEIQDQnja39gtDIwoBwBU1Z1P30JgwNKIQAKJ7tXhJFBpRCADRzanvSMXSsDA0ohAAonuhqVcUGlEIALSng51DwtCIQgCIzoXWRhQCAFYLjSgEAKwWGlEIAFgtNKIQALBaaEQhAGC10IhCAMBqoRGFAIDVQiMKAQCrhUYUAgBWC40oBACsFhpRCADcg/x7rmqMKASA4NZ/eFEUGlEIANHNqe9Ip66MCkMjCgEguleLl0ShEYUAEN2T+8+mwbExYWhEIQBEt7m1XxQaUQgA0S060CUKjSgEAFxmbUQhAPCWy6yNKAQA/uaDC9eEoRGFABCdy6yNKAQA0mO7z7iexohCAKA9bT11RRQaUQgADpw4cGJEIQDwmeN9I8LQiEIAiO61j/pEoRGFABCdF06MKAQAyrxwYkQhAODOQiMKAYDrdxaWhh04MaIQANxZ6M5CIwoBAHcWGlEIAJSdujIqDI0oBIDoNrf2i0IjCgEgumWFc6LQiEIAwLN3RhQCALaQjSgEAGwhG1EIANxQLA0LQyMKASC61z7qE4VGFAKALWRbyEYUAgC2kI0oBABsIRtRCADYQjaiEAD4u9MD3kI2ohAAwtt66oooNKIQAKJ7oalXFBpRCADRPbb7jCg0ohAAaE8fXLgmDI0oBABX07iaxohCAHA1jatpjCgEALLS8IgwNKIQAKLb2T4gCo0oBIDo1n94URQaUQgA0T25/6woNKIQAPBdoRGFAMBnDnYOiUJRKAoBILpXi5dEoSgUhQAQnfsKjSgEANLcHadFoSgUhQBAezre57CJKPSHAADhbT11RRSKQn8IABCdS6xFoT8EACAtOtAlCkWhPwQAoD0Njo0JQ1EIAESXu0AdiUIAILjNrf2iUBQCANG90NQrCkUhAOCwicMmohAA4DOj4+PCUBQCANEVS8OiUBQCANF52UQUAgB42UQUAgA4bCIKAQA+M6e+QxSKQgCA9nS8b0QYikIAILqd7QOiUBQCANG9WrwkCkUhABCd5+5EIQBAWlY4JwpFIQAQ3ZP7z4pCUQgARDd3x2lRKAoBANpTadi1NKIQAAjPXYWiEAAg5UZQSqIQAAhu66krolAUAgDRvfZRnygUhQBAdOs/vCgKRSEAEN3K93pEoSgEAKJbdKBLFIpCACC6x3afEYWiEACIbk59hygUhQAA7WlwbEwYikIAILrTA6OiUBQCANF9cOGaKBSFAEB0BzuHRKEoBACi89SdKAQA8NSdKAQA8NSdKAQA+MwLTb2iUBQCANEtK5wThaIQABCFolAUAgDhLTrQJQpFIQAgCkWhKAQAwnty/1lRKAoBAFEoCkUhACAKRaEoBAB4bPcZUSgKAQBRKApFIQAQ3twdp0WhKAQARKEoFIUAQHhz6jtEoSgEAGgXhaIQALBSaKVQFAIAvin0TaEoBABwJY0oBAAQhaIQAMAzd6IQAOAziw50iUJRCACIQlEoCgGA8JYVzolCUQgAiEJRKAoBgPBWvtcjCkUhACAKRaEoBADCe6GpVxSKQgBAFIpCUQgAhLf+w4uiUBQCAKJQFIpCACC8V4uXRKEoBABEoSgUhQBAeJtb+0WhKAQAotvZPiAKRSEAEN0HF66JQlEIAETXPTQmCkUhABDZnPoOQSgKAYDontx/VhSKQgAgumWFc6JQFAIA0Xn3WBQCALi4WhQCALSnraeuiEJRCABEd7BzSBSKQgAguuN9I6JQFAIA0Q2OubhaFAIAoc3dcVoQikIAILpFB7pEoSgEAKJb+V6PKBSFAEB06z+8KApFIQAQ3ebWflEoCgGA6NxRKAoBAFL3kOtoRCEA4DoaIwoBgNiWFc6JQlEIADh57OSxKAQAnDx28lgUAgC8f/6aKBSFAEB0peERUSgKAYDIHtt9RhCKQgAgOm8ei0IAgPRq8ZIoFIUAQHQ72wdEoSgEAKIrloZFoSgEAKIbHR8XhaIQAIjsyf1nBaEo9IcAAE4eO3ksCv0hAEB4r33UJwpFoT8EAIjO83ai0B8CAAQ3p75DEIpCUQgAvif0PaEoFIUAEN7m1n5RKApFIQBEd7xvRBSKQlEIAJE9tvuMIDSiEACie6GpVxQaUQgA0W09dUUUGlEIANGdHhgVhUYUAkBkiw50CUIjCgEguvUfXhSFRhQCQHQHO4dEoRGFABBZftquNOx+QiMKASA0T9sZUQgApNc+6hOFRhQCQHTvn78mCo0oBIDIntx/VhAaUQgArqJxFY0RhQDgKhpX0RhRCAC2jhWQEYUAYOtYFBpRCAC2jm0dG1EIALaOjRGFAGDrWP0YUQgAto5FoRGFAGDr2BhRCAC2jo0RhQBg61j5mDvOsWPH0te+9rUpNX/+/Jq2YOGCsL65eHFVW7p0acX61lNPzapvL18+q1asWDGtnl21alatXr26oq1du/aBfOd7L6Yf/PgnZT/62c/T+o0b08u/+GXZT1//TfrZf2wr+/GbB254cW/zDc81fHrDssK58jbnnPoOIWfr2FR7FALAg8j/JS7Hao7MHJYTQZkDUjTaOjaiEABEo61jIwoB4P6icSIYcyzaOjZGFAIgFtN3X3qp/J1jDsX8DeNju8/YOjZGFAIQXT7olA/H5C3ovJq46EBXzUXh++eviUIjCgFgsjdo5BPVE9vOeTWxmredV77XIwiNKASAqdp2zt8nTmw7V9Nq4s72AVFoRCEATId8b2uOxImVxEo96ZxXOEfHx0WhEYUAMBPydvPEN4mVtNX82kd9gtCIQgCYrYMrE98j5jsTZzMKT10ZFYVGFAJAJWwzT5xsztvMc3ecnrEgfKGpVxAaUQgAlSi/EZ0Pq8zE1TeHeq6KQiMKAaAatpnXb9xY3mae6u8Q87a1wjGiEACqTH6SL68g5i3mqYjCraeuiEIjCgGg2r9BfJDVw/xs3+DYmCg0ohAAasGzq1bdWD2czD2IrxYvCUIjCgGg1uRn9yYuyr6XwynH+0ZEoRGFABDhDsQ7XW/jGhojCgEgmO++9NIXLsg+2DkkCo0oBICIli5dWl49zHcfqhojCgEguOffeD39+eRxYWhEIQBE9c3Fi9M/bN2cHtry/9Ijb9eV43B0fFwgGlEIAJE8veXX5SC8mTg0ohAAgn1TOLFKeDvi0IhCAAi6SigOjSgEgGCrhF/5w6/uKQonPPzW78WhEYUAEHGVUBwaUQgANepbTz11128JxaERhQAQwFN1v33gIBSHRhQCQBXLbyBP9lvCe5UPpLx37qwwFIUAQLRVwttZ/s6+dG5oUByKQgAg2irh5+X/OZta/teWsigEACKuEt5uS7mp55wwFIUAQCVYsWLFjK0S3mlL+fy1q+JQFAIA0VYJbSmLQgCggqxcu2ZWVwk/7/Fd22wpi0IAYKY9vX1bxQThzf790P/YUhaFAMBMWLtxQ0UG4YT8sootZVEIAEyjBQsXlE//VnIU3rylXLzYKwxFIQAw1Z5/4/WqCMLPbymXhkfEoSgEAKbCs6tWlbdmqy0KJ7aUPZcnCgGAKfD1+j9VZRDe7OX3/+pbQ1EIANTq4ZLJmL+33jvKohAAmKz58+dXzeGSyVx6vdt2sigEACZxJ+GWX9dUEH7+EMrg2Jg4FIUAwN18e/nyinq5ZDrkVdBPB/qFoSgEAGr5cMm9bif/+eRxYSgKAYDP++5LL4UIwpstf2ef7WRRCADc7OG3fh8uCrP8f7eXUEQhAFDjh0vuxf/57S/L7ycrM1EIAGGtXLum5g+X3Ktv7N+Rzl+7Kg5FIQDE89X6OkHoiTxRCAC2jYXg7dhOFoUAEOa0cf6WTgDe/bJrbyeLQgCoWd9cvDjsaeP7+c7QtTWiEABq0lN1vxV8k/D4rm3p3NCgMBSFAFA71m7cIPTu8wBK8XJJGIpCAKh+z65aVY4bkXf/z+M5mSwKAaDqRXnbeLovuvZusigEgKr1/Buvi7op9PL7fxWGohAAqu/6Ga+WTL3l7+xzMlkUAkD1XD/j1ZLpM39vfSoNjwhDUQgAlW319jfF2zTLdz5+3N8nDEUhAFSm9Rs3erXEyWRRCACRfed7L3q1xMlkUQgAkS1dutR3hLP4jWHdmTZhKAoBYPY9vX2bQJullcInGhvSw+/sTls6TgpDUQgAs+f7f/ydQJsl/3pwTzkIJwhDUQgAs+LlX/zSwZJZXCWcV9h3SxRmm9pahaEoBICZky+o9q5x5awSCkNRCAAz7tvLlztYMsvX0dxulVAYikIAmDHz589PX6//kzir0FXCm2040SIMRSEATA8vlsyuvGU/9917i0JhKAoBYFr89PXfOFhSJauEtpJFIQBMix/8+Cflb9mE2ey+eTzZIJxQ39khDEUhADyYZ1etcrCkEl4v+ZLDJXeTt5wLvd3CUBQCwP1ZsHCBgyUV4PFd2+47CG8Ow6ZSrzAUhQDgYEm1mnjO7kHlq2w+7u8ThqIQAO7dD+sFYbUeLrmbHJjtgwNJFPojB4AvtXFrnZPGFfyc3VSE4flrV5MoBADuGoROGtfmKuHNFh4upMGxsSQKAQBBWOFX0Ezmour78cyxQ2l0fDyJQgBAENbgFTSTEfLVE1EIALf3s//YVn5CTYxVSBDurZ+RIAx7ubUoBIAvWr9xoyAMcLjky+4wLF4uJVEIAEHl5+vyt2tiLMbhki87kdx1dSiJQgAI5jvfe1EQ1tD7xk4ki0IAmLRvL1+eHnnbe8ZRD5fczZri0do/kSwKAeBr6ZuLF6dHd3mtJPrhktAnkkUhAHwtPb5rmwirMPkqoHkVsEp4s73dZ5MoBIAatGDhgvJqlAhzuOReTyR/3N+XRCEA1NiWsSCsTPnbzkoLwptPJJeGR5IoBIAaOVQiCN1JeL+WHGmsvYMnohCAaFauXeOUsW3jKTmRLAoBwD2EBNs2vp1Nba1JFAJAlfnuSy95uq7Ct43/5cCuqorCrLmvRp7CE4UARLB244ZydIgv28bTcfCkJl48EYUA1Lrn33hdEFbBU3ZzDvylKqMwW9fSLAoBoJI9veXXosu28Yxo6OlKohAAKtBTdb8VXbaN3V8oCgGI7Ov1fxJcto1n3HPNTaIQACpBfrbuq/XuIKwWtbBt/Hl1Z9qSKAQAl1ITbNv48/JrLO2DA0kUAsAsWL9xo0upXVLtGTxRCEBk3//j79JX/vArsVUl8n9Wc9/dU9NRWJWvnYhCAKrVt556Kj29fZvQ8h1hRcrhW7xcRa+diEIAqtEPfvyTNH9vvciqMvk/swhBOGHh4UL1vHYiCgGoNj99/Te+H6zS62ciBeGEVz4pikIAmOrrZn5Y/6Yn67xaUnUaL/QkUQgAU2Dt2rVp2d7tAst3hF47EYUARL5u5vFdDpRUq0d3vRk6CCesKR4VhQBwvzZurUv/sHWzuHL9TE1o6OlKohAAJmH16tXpxd3bfT9o27jmtpEr9lJrUQhApXn5F79M39i/Q1RVuSf2vS0Eq+lSa1EIQCVdRv3z/XtsF3vGrqblt5HPX7uaRCEA3OEwyfJ39gmqGpCjXvzd3bqWZlEIADf75uLFDpPU2H2E8xp2Cr970NxXYU/giUIAZkt+qu7f/muXmHKwJKQlRxpFIQCxzZ8/v7w66Kk6B0uiq+/sSKIQgJDyyyR5ddBVMw6WcP2KmsGxsSQKAQjlp6//phwPIqr2Dpa4oPr+bTjRIgoBiGHFihUuonawhDvIQd11dSiJQgBq1oKFC6wOOlhCtbyLLAoBmA4/+tnP07K924WTgyXco6OXLiZRCEDNyG8Wr97+ZvrKH34lnGrYo7veFHJTbOHhwuy+iywKAZiqreLv//F3tooDyFcJibjpUXemTRQCUL3yE3Xf2L9DMDlpzBRcUVMaHkmiEICqu3MwbxU7VeykMTVwRY0oBGCy8nvFeavYiyROGjP15hX2zc5qoSgEYLJbxV+t992gIGQ6bWprFYUAVKbvvvRSenr7NlvFAf3z3nqhFuH5O1EIwJfFYP5uMB8wEEiunqGGVwtFIQBiEFfPWC0UhQDcNgZdPu3qmTkH/iLOZtmWjpOiEAAxyOwF4T/9t6tnKmW1cMZeORGFAGJQDDIh//+BIAz6yokoBIh9mlgM4nJqbyKLQgAxCIKwCtR3dohCAB7c/Pnz09qNG9LX6//knkFuSxBaLRSFADXs28uXp+ffeN0LJAjCGrC3+6woBOD+tojdMYjn62prtVAUAvClvrl4cXlVMG8Rix08X1ebCr3dSRQCcFvf+d6L5Stl8usTQgdBWNuWHGkUhQD83YKFCxwcQRAG1XihJ4lCgOCeXbUqff+Pv3NwBEEY2DPHDolCgIjWrl1bDsFle7e7W5AH8uiuN0VVjfi4vy+JQoAg3wkKQQQhd/LKJ0VRCFCrl0vna2RyCH5j/w4hiCDkruYV9qXBsbEkCgFqJAR/8OOfpB/Wv1kOQQdG8A0hs/r0nSgEmNlTwz/62c+FIIKQyrueRhQCTO9qYD4o8tPXf5Ne3L29HIJiBUFIRR44EYUAU2v16tW3RKDvAxGEVMWBE1EI8GBWrFiRXv7FL29EoPeGmU3zGnaKJQdORCHATPjWU0+l9Rs3liMwXxkjAqkE+ftUQRhT3Zk2UQgw3ZYuXVq+Kub5N15PT2/flubvrReBCEIqysLDBVEIMJWngvOF0fk94dXb3yyvAD6+a5vTwVS8/M2qIKR4uZREIcAkTwPnbwDztTD5ouiJ7wAffuv3AoOqk1et/+m/BSFTdOBEFAK1tuKXoy+v+uXv/jZurSv7+f496d/+a5eDIAhCatITjQ1pdHw8iUIgROzlAx75zr+8ypevfJmIvezl9/+a/v3Q/6Tl7+wrh1/e+s0/mnn71xYwtSavbM858BcxxC0aL/Q8eBTmf8kCTJe8apcPa+SYy6t3OeiyvH2b5dc98jZullfzshx3E4GX5QMe+YfQnX9E98jbdYKQ21rX0vxgUfjnk8f9kQGAIKQG7ix8oC1kUQgAXimhNjT0dIlCAHAHIdGtKR4VhQDgDkJsIT/As3eiEABcOUPt2H3urCgEAFfOEN1zzU2iEACq3dxd2wQhD2Tuu3tSaXgkiUIAcMKY4Oo7O0QhADhhjC3kJlEIAA6UYAt5z+QvshaFADA7vFBCRb2FLAoBwPeD1J5XPimKQgCoVC6kZqYsPFwQhQDg/kHYndoHB5IoBIAK8uiuNwUhM67uTJsoBADXzeBqmiZRCACum8HVNJO4mkYUAsDU81wdlaLQ2y0KAWA2tovn7v1PMUL1XU0jCgHAdjGuphGFAOB0MTWuNDySRCEAWB0kuIaeLlEIAFYHiW7DiRZRCABTLT9V5zAJ1WTJkUZRCABTyVN1VOt9hYNjY0kUAoCrZgiuqdQrCgHgQVcHHSah2m1qaxWFAPAgq4O2i6kFzxw7JAoBwOog0c0r7Lv7O8iiEACcLCaG4uWSKASAL/PI23W2iqlpWzpOikIAuBOvkhDFupZmUQgAtz1Ismub1UHCWHi4IAoBwOogLrHec+fDJqIQAAdJII6P+/tEIQAOktgqJrr6zg5RCICtYohuw4kWUQiArWLwsskhUQiAU8UQ3RONDaIQgNonBuHLnb92NYlCAGpSfqv4/+6zVQz3ovFCjygEoPYOkfhuEKbguTtRCEA1HyKxVQxT9NydKASg6mLQd4PwQJYcaRSFAIhBcAK5QRQC4HoZYHcaHBtLohAAMQjeQBaFAIhBiK6hp0sUAiAGwbU0J0UhAGIQonvlk6IoBMBpYojuueYmUQjA7Jl4gUQMwuxaeLggCgGYeY+8XedtYqgg8wr7RCEAM/u9oBiEylQaHkmiEADfC0JwzX0lUQjA9HwvmFcFxSBU4V2FohAAW8QQU31nhygEwKogRLeprVUUAmBVEKLbcKJFFAJw7x5+6/dWBaEGrWtpFoUAfPkJ4n/c4W5BCPOqiSgE4PPfCuYY9IMJtW/JkUZRCMCtEWhFEII/dScKAeKGoG8EwVN3ohBACAKk0fHxJAoBbA0D3j8WhQBWBIHoPh3oF4UAtXKhdI5AIQjcj6OXLopCAHcIAtEVertFIUA1rgYKQWAqNfR0iUKAajkkYlsYmC57u8+KQgARCES3+5woBJjV7WARCFSC+s4OUQgw3St/N/NNIFCJ6s60iUKAqdz2vTn6rPwBohCghuPv4bd+L/6AmrKl46QoBLjdd36PvF2XHt31Zpq79z/L4Sf+gFq2qa1VFAIxoy+v9s3dta1M9AGiUBQCNfCqx0TkTazuZf+8t/6WVT7RB3BnG060XI/CfAz58c/+2zLATHli39tp/mfhlv3rwT13NL+wr+xfDuxK8xp23og7gQcwDVGYb7H2DwQAIHgU5lus/QMBABCF/oEAAEQ/aCIKAQBEoSgEAAjsxuXVohAAIK4bz9yJQgCAuPL1hKIQAEAUikIAgOjyndWiEAAguIaeLlEIABBdobdbFAIARNdU6hWFAADRNfeVRCEAQHTtgwOiEAAgutLwiCgEAIjuoYkRhQAAMT3R2CAKAQCiW3i4IAoBAKJbcqRRFAIARLemeFQUAgBEt66lWRQCAES34USLKAQAiG5TW6soBACIru5MmygEAIiu0NstCgEAovu4v08UAgBENzg2JgoBACK75Yk7UQgAENMtr5mIQgCAmG55zUQUAgDEdMvF1aIQACCmLR0nRSEAQHQNPV2iEAAgulvuKBSFAAAxlYZHRCEAQGTzCvtuDUJRCAAQzxfuKBSFAADxrGtpFoUAANF94ToaUQgAEE9TqVcUAgA4eTwiCgEAInuiseGLQSgKAQBieebYIVEIABDdhhMtohAAILr6zg5RCAAQXfFySRQCAEQ3Oj5++yjc2y0KAQAiWHi4cPsgtFIIABDHbZ+3E4UAAA6ZiEIAgGA+HegXhQAAkc0r7LtzEIpCAIAYnmtuEoUAANFtamsVhQAA0TWVekUhAEBkc9/dkwbHxkQhAEBkS4403j0IRSEAQO175ZOiKAQAiC73nigEAAiuNDwiCgEAIlt4uPDlQSgKAQBq24YTLaIQACC6xgs9ohAAILJ8P+Ho+LgoBACI7EvfOxaFAAC1b0vHSVEIABDdpwP9ohAAILInGhvuPQhFIQBAbVrX0iwKAQCia+jpEoUAAJHlq2gGx8ZEIQBAZGuKRycXhKIQAKD25L4ThQAAto5FIQBAZJN6xUQUAgDUpvrODlEIAGDreEwUAgDYOr7PEYUAAMG3jkUhAICtY1EIAGDrWBQCANSK+7qwWhQCANSOeYV9aXR8XBQCAET2yifFBwtCUQgAUP2a+0qiEAAgsoWHCw8ehKIQAKC6bek4KQoBACLLdxOWhkdEIQBAZGuKR6cmCEUhAED1aujpEoUAAJE90djw4HcTikIAgOq24UTL1AVhnr3dohAAoNp8OtA/tVFopRAAoLo819w0tUEoCgEAqk/jhR5RCAAQ2ZS9YCIKAQCqV31nhygEAIhsyq+hEYUAANVnU1vr9AShKAQAqA5T+s6xKAQAqE6vfFKcviAUhQAA1WHKL6sWhQAA1WVaLqsWhQAA1aV4uSQKAQAie+bYoekPQlEIAGCVUBQCAFglFIUAAFYJRSEAgFVCUQgAYJVQFAIAWCUUhQAAVglFIQCAVUJRCABglVAUAgBUoDXFo7MThKIQAKAyzH13T2ofHBCFAACRbTjRMntBKAoBAGbfE40NaXBsTBQCAERWd6ZtdoNQFAIAzK6FhwtpdHxcFAIARNZ4oWf2g1AUAgDMnueamyojCEUhAMDsmPUraEQhAMDse+WTYuUEoSgEAJh5FXEFjSgEAJhdub8eqrQRhQAAM+eZY4cqLwhFIQBA4MMlohAAYOZtamutzCAUhQAAM6NiXi4RhQAAs+fj/r7KDUJRCAAw/SruTkJRCAAwsyryTkJRCAAws/Z2n638IMyT/xf1HxgAwNRbUzxaHUFopRAAYPq2jUvDI6IQACCyo5cuVk8QikIAgKm34URLdQWhKAQAmFpLjjRW9iXVohAAYHrNK+yr3LeNRSEAwMyo7+yoziAUhQAAU6Oqrp8RhQAAU69qXi0RhQAA02Puu3tS8XKpuoNQFAIAPJhNba3VH4SiEADg/lXt9TOiEABgauTrZ7quDtVGEIpCAID709DTVTtBKAoBACavKp+xE4UAAFPnmWOHauc7QlEIADB5Cw8Xqv8+QlEIAHD/8gXVNXWwRBQCAExOzVxQLQoBAO5f7qWHan1EIQBAsJPGohAA4N4919xUmyeNRSEAgJPGohAA4B5PGp+/djVOEIpCAIAvnjT+uL8vVhCKQgCAWxV6u+MFoSgEAPi7ujNtMYNQFAIABLt6RhQCANzeupbm2EEoCgGA6ELdRSgKAQC+aMmRxlh3EYpCAIBbhbucWhQCAHwxCEvDI4JQFAIAgtCIQgAgpPx8XdfVIUEoCgGAyEHYPjggCO80e7tFIQBQ+0H46UC/ILRSCAAIQiMKAQBbxkYUAgAxTxk7VCIKAYDgQXj+2lVBKAoBgMhB6B5CUQgABOYtY1EIAAT3zLFDglAUAgCRPdfclEbHxwWhKAQAolrX0iwIRSEAENmmtlYxKAoBgKjmFfalQm+3IBSFAEBU+ZWS4uWSIBSFAEBUXikRhQCAK2dcSi0KAYDI1hSPOmEsCgEAJ4yNKAQAnDA2ohAAiHmgpH1wQBCKQgAg8veD3jAWhQBAUHPf3ZPqzrSJQVEIAETlQmpRCAAEt+RIo/sHRSEAENmGEy3uHxSFAEDk7eKmUq8YFIUAQFTrWpqdLhaFAEDk1cHGCz1iUBQCAFHluwcdJhGFAEDg1cHcGopLFAIAQT1z7FA6f+2qIKyW2dstCgGAqTOvsM/LJFYKAYDo3w5aHRSFAEDgbwcLvd1iUBQCABHNfXdPeuWTonsHRSEAENXCw4VUvFwSg6IQAIh6kGRTW6s3i0UhABD5mpmuq0NiUBQCAFG3iht6usSgKAQAom4Vb+k4aatYFAIAkU8Ve69YFAIAQT3X3JTaBwfEoCgEAKJ+N9hU6hWDohAAiCi/RpLfKvbdoCj0BwEAQWMw3zfoNRIjCgFADBojCgFADBojCgFADBojCgGg9mMwXzwtBo0oBIDAp4nFoBGFABD0nsH8u+5qGSMKASCgZ44dSoXebiFoRCEARLSmeDQVL5fEoBGFABDN3Hf3pHUtzd4mNqIQAKJ+L5hPEpeGR8SgEYUAEMm8wr7yqmBzny1iIwoBIOTBkfrODlfKGFEIABHvFtxwosW3gkYUAkDEEHzlk2JqKvW6W9CIQgAQgsaIQgAQgsaIQgAQgsaIQgCoEflS6XxqeFNba/kKGSFoRCEABJEvlM6rgQ09Xa6PMaIQAKLIl0k/19yU6s60uTrGiEIAiLIdnFcC84si+SLpj/v7bAkbUQgAEbaC1xSPlt8XPnrpou1gE2/2dotCAGIGYD4U0nihJ5WGRwSgMVYKAajV7d98LUz+BjA/H5d/72wBGyMKAajxOwHzdTD5JHD+/i9fCWP71xhRCECNnfjN2705+vKhj7zlm8Mvb/t+OtAv/ozxTSEA1RB0eRUvR1225EhjOe7y93w58PK2bo68fMVLXqQo9HaXD3nk2Dt/7argM2YmJ39cm5/gAYD7VbxcKodcvrsv/66IOWOqa/4/tk3Uk1ReVDsAAAAASUVORK5CYII=;" vertex="1" parent="1">
          <mxGeometry x="1100" y="185" width="21.25" height="26.55" as="geometry" />
        </mxCell>
        <mxCell id="cbptBCp-k4vVWJNSy40_-6" style="edgeStyle=orthogonalEdgeStyle;rounded=0;orthogonalLoop=1;jettySize=auto;html=1;entryX=0.629;entryY=1.007;entryDx=0;entryDy=0;entryPerimeter=0;exitX=0;exitY=0.75;exitDx=0;exitDy=0;startArrow=classic;startFill=1;" edge="1" parent="1" source="cbptBCp-k4vVWJNSy40_-1" target="dulSs8EgE7Bo_tsadKai-60">
          <mxGeometry relative="1" as="geometry">
            <mxPoint x="980" y="245" as="sourcePoint" />
            <Array as="points">
              <mxPoint x="960" y="280" />
              <mxPoint x="960" y="520" />
              <mxPoint x="328" y="520" />
            </Array>
          </mxGeometry>
        </mxCell>
        <mxCell id="cbptBCp-k4vVWJNSy40_-9" value="RPC" style="edgeLabel;html=1;align=center;verticalAlign=middle;resizable=0;points=[];" vertex="1" connectable="0" parent="cbptBCp-k4vVWJNSy40_-6">
          <mxGeometry x="-0.6286" y="3" relative="1" as="geometry">
            <mxPoint as="offset" />
          </mxGeometry>
        </mxCell>
      </root>
    </mxGraphModel>
  </diagram>
</mxfile>
